<svg width="40px" height="40px" xmlns="http://www.w3.org/2000/svg" viewBox="0 0 512 512">
<g>
	<path d="M509.2,455.7L183.4,128.9c-3.7-3.7-11.2-3.7-14.9,0l-38.2,38.2c-3.7,3.7-3.7,11.2,0,14.9l325.8,326.7
		c3.7,3.7,11.2,3.7,14.9,0l38.2-38.2C512.9,466.9,512.9,460.3,509.2,455.7L509.2,455.7z M474.8,475.2L474.8,475.2
		c-4.7,4.7-11.2,4.7-14.9,0L206.7,221.1c-3.7-3.7-3.7-11.2,0-14.9l0,0c3.7-3.7,11.2-3.7,14.9,0l253.2,254.1
		C479.4,464.1,479.4,470.6,474.8,475.2L474.8,475.2z M171.3,74.9c8.4,0,15.8-7.4,15.8-15.8V16.3c0-8.4-7.4-15.8-15.8-15.8
		c-8.4,0-15.8,7.4-15.8,15.8v42.8C155.5,68.4,162.9,74.9,171.3,74.9z M171.3,265.8c-8.4,0-15.8,7.4-15.8,15.8v42.8
		c0,8.4,7.4,15.8,15.8,15.8c8.4,0,15.8-7.4,15.8-15.8v-42.8C188,273.2,180.6,265.8,171.3,265.8z M275.5,169
		c0,8.4,7.4,15.8,15.8,15.8h42.8c8.4,0,15.8-7.4,15.8-15.8c0-8.4-7.4-15.8-15.8-15.8h-42.8C283,153.1,275.5,159.7,275.5,169z
		 M74.5,169c0-8.4-7.4-15.8-15.8-15.8H15.8C7.4,153.1,0,160.6,0,169c0,8.4,7.4,15.8,15.8,15.8h42.8C67,184.8,74.5,177.3,74.5,169z
		 M81,102.9c2.8,2.8,7.4,4.7,11.2,4.7c4.7,0,8.4-1.9,11.2-4.7c6.5-6.5,6.5-16.8,0-22.3L75.4,52.6c-2.8-2.8-7.4-4.7-11.2-4.7
		c-4.7,0-8.4,1.9-11.2,4.7c-6.5,6.5-6.5,16.8,0,22.3L81,102.9z M92.2,235.1c-4.7,0-8.4,1.9-11.2,4.7l-27.9,27.9
		c-2.8,2.8-4.7,7.4-4.7,11.2c0,4.7,1.9,8.4,4.7,11.2s7.4,4.7,11.2,4.7c4.7,0,8.4-1.9,11.2-4.7l27.9-27.9c6.5-6.5,6.5-16.8,0-22.3
		C100.5,236.9,96.8,235.1,92.2,235.1z M251.3,107.5c4.7,0,8.4-1.9,11.2-4.7l27.9-27.9c6.5-6.5,6.5-16.8,0-22.3
		c-2.8-2.8-7.4-4.7-11.2-4.7c-3.7,0-8.4,1.9-11.2,4.7l-27.9,27.9c-2.8,2.8-4.7,7.4-4.7,11.2c0,3.7,1.9,8.4,4.7,11.2
		C243,105.7,246.7,107.5,251.3,107.5z"/>
</g>
</svg>
