<svg width="18" height="18" viewBox="0 0 18 18" fill="none" xmlns="http://www.w3.org/2000/svg">
<path d="M13.1904 11.608H12.3567L12.0612 11.3231C13.3276 9.84582 13.9819 7.83036 13.6231 5.68827C13.1271 2.75477 10.6787 0.412194 7.72381 0.0534209C3.2598 -0.495291 -0.486587 3.26128 0.0516265 7.72484C0.410436 10.6794 2.75325 13.1275 5.68704 13.6235C7.82934 13.9823 9.84501 13.328 11.3225 12.0618L11.6074 12.3572V13.1909L16.1031 17.6755C16.5357 18.1082 17.2323 18.1082 17.6649 17.6755L17.6755 17.665C18.1082 17.2323 18.1082 16.5359 17.6755 16.1032L13.1904 11.608ZM6.85845 11.608C4.2307 11.608 2.1095 9.48705 2.1095 6.85956C2.1095 4.23207 4.2307 2.11109 6.85845 2.11109C9.4862 2.11109 11.6074 4.23207 11.6074 6.85956C11.6074 9.48705 9.4862 11.608 6.85845 11.608ZM6.85845 4.22152C6.56296 4.22152 6.33079 4.45367 6.33079 4.74913V6.33195H4.7478C4.45231 6.33195 4.22014 6.5641 4.22014 6.85956C4.22014 7.15502 4.45231 7.38717 4.7478 7.38717H6.33079V8.96999C6.33079 9.26545 6.56296 9.4976 6.85845 9.4976C7.15394 9.4976 7.38611 9.26545 7.38611 8.96999V7.38717H8.96909C9.26458 7.38717 9.49675 7.15502 9.49675 6.85956C9.49675 6.5641 9.26458 6.33195 8.96909 6.33195H7.38611V4.74913C7.38611 4.45367 7.15394 4.22152 6.85845 4.22152Z" fill="black"/>
</svg>
