<svg width="40" height="40" viewBox="-3 -1 20 20" fill="none" xmlns="http://www.w3.org/2000/svg">
<path d="M7 2.00396V0.438594C7 0.0450671 6.5275 -0.147324 6.25625 0.132518L3.80625 2.57239C3.63125 2.74729 3.63125 3.01838 3.80625 3.19329L6.2475 5.63315C6.5275 5.90425 7 5.71186 7 5.31833V3.75297C9.89625 3.75297 12.25 6.10539 12.25 9C12.25 9.69086 12.1187 10.3642 11.865 10.9676C11.7337 11.2825 11.83 11.641 12.0663 11.8771C12.5125 12.3231 13.265 12.1657 13.5013 11.5798C13.825 10.784 14 9.90948 14 9C14 5.13469 10.8675 2.00396 7 2.00396ZM7 14.247C4.10375 14.247 1.75 11.8946 1.75 9C1.75 8.30914 1.88125 7.63577 2.135 7.03236C2.26625 6.71754 2.17 6.35899 1.93375 6.12288C1.4875 5.67688 0.735 5.83429 0.49875 6.42021C0.175 7.21601 0 8.09051 0 9C0 12.8653 3.1325 15.996 7 15.996V17.5614C7 17.9549 7.4725 18.1473 7.74375 17.8675L10.185 15.4276C10.36 15.2527 10.36 14.9816 10.185 14.8067L7.74375 12.3668C7.4725 12.0957 7 12.2881 7 12.6817V14.247Z" fill="black"/>
</svg>
