<svg width="18" height="16" viewBox="0 0 18 16" fill="none" xmlns="http://www.w3.org/2000/svg">
<path d="M0 6.11028V9.89314C0 10.4133 0.45 10.8389 1 10.8389H4L7.29 13.9503C7.92 14.5461 9 14.1205 9 13.2788V2.71517C9 1.87348 7.92 1.44791 7.29 2.04371L4 5.16457H1C0.45 5.16457 0 5.59014 0 6.11028ZM13.5 8.00171C13.5 6.3278 12.48 4.89031 11 4.19048V11.8035C12.48 11.1131 13.5 9.67563 13.5 8.00171ZM11 0.861567V1.05071C11 1.41008 11.25 1.72217 11.6 1.85457C14.18 2.82865 16 5.22131 16 8.00171C16 10.7821 14.18 13.1748 11.6 14.1489C11.24 14.2813 11 14.5933 11 14.9527V15.1419C11 15.7377 11.63 16.1538 12.21 15.9457C15.6 14.7257 18 11.6333 18 8.00171C18 4.37017 15.6 1.27768 12.21 0.0577099C11.63 -0.159805 11 0.265767 11 0.861567Z" fill="black"/>
</svg>
