<svg width="40" height="40" viewBox="-4.4 -3 23.5 23.5" fill="none" xmlns="http://www.w3.org/2000/svg">
<path d="M7.38585 0L4.79419 3.08875L5.57242 4.01625L6.83521 2.51125V6.1775H7.93648V2.51125L9.19927 4.01625L9.9775 3.08875L7.38585 0ZM2.59165 5.71375L0 8.8025L2.59165 11.8912L3.36988 10.9637L2.1071 9.45875H5.73394V8.14625H2.1071L3.36988 6.64125L2.59165 5.71375ZM12.18 5.71375L11.4018 6.64125L12.6646 8.14625H9.03775V9.45875H12.6646L11.4018 10.9637L12.18 11.8912L14.7717 8.8025L12.18 5.71375ZM6.83521 10.7712V15.0937L5.57242 13.5887L4.79419 14.5162L7.38585 17.605L9.9775 14.5162L9.19927 13.5887L7.93648 15.0937V10.7712H6.83521Z" fill="black"/>
</svg>
