<svg width="32" height="14" viewBox="0 0 35 17" fill="none" xmlns="http://www.w3.org/2000/svg">
<path d="M34.4685 7.59028C34.232 7.36755 33.9177 7.24668 33.5931 7.25014L4.78619 7.25013L9.72432 2.312C9.96605 2.07718 10.1025 1.7543 10.1025 1.41589C10.1025 1.07747 9.96605 0.754591 9.7226 0.518043C9.22878 0.0380432 8.43799 0.0484026 7.95626 0.543943L1.01353 7.48668C0.903022 7.56611 0.806332 7.6628 0.72518 7.77503L0 8.50021L0.721727 9.22194C0.802879 9.33417 0.901296 9.43258 1.01353 9.51373L7.95627 16.4565C8.27051 16.7811 8.73324 16.9088 9.17008 16.7932C9.60692 16.6809 9.94879 16.3391 10.061 15.9022C10.1767 15.4654 10.0489 15.0027 9.72433 14.6884L4.78619 9.75028H33.5931C34.1077 9.75719 34.5756 9.44812 34.7707 8.96985C34.9623 8.49158 34.8432 7.94424 34.4685 7.59028Z" fill="black"/>
</svg>
