<svg xmlns="http://www.w3.org/2000/svg" aria-hidden="true" fill="currentColor" height="1em" width="1em" viewBox="64 64 896 896">
    <g style="transform: scale(25)">
        <path d="M33.632 2.58a2.058 2.058 0 0 1 2.863 0l1.912 1.868c.79.772.79 2.022.003 2.795L25.42 20l12.99 12.757a1.947 1.947 0 0 1-.003 2.795l-1.912 1.868a2.058 2.058 0 0 1-2.863 0L17.24 21.4a1.947 1.947 0 0 1 0-2.798zm-15.647 0a2.058 2.058 0 0 1 2.863 0l1.912 1.868c.79.772.79 2.022.003 2.795L9.773 20l12.99 12.757a1.947 1.947 0 0 1-.003 2.795l-1.912 1.868a2.058 2.058 0 0 1-2.863 0L1.593 21.4a1.947 1.947 0 0 1 0-2.798z" fill-rule="nonzero"/>
    </g>
</svg>
