<svg width="40px" height="40px" viewBox="0 0 24 25" fill="none" xmlns="http://www.w3.org/2000/svg">
<path d="M17.248 4.15283L12.6799 12.9155C12.0119 13.0658 11.3672 13.333 10.85 13.8502L10.8324 13.8663L10.8149 13.8854C10.0755 14.7293 9.82742 15.8244 9.42596 16.9781C9.05378 18.0478 8.55224 19.1753 7.68984 20.2526H2.25V21.7528H8.83553V21.6986C12.8813 21.5609 14.9145 20.4462 16.1565 19.1494C17.0676 18.2357 17.3401 16.9703 17.1088 15.7856L22.4813 5.60033L21.1539 4.90002L18.0626 10.7633L16.0803 9.63955L18.5783 4.84728L17.248 4.15283ZM15.3859 10.9713L17.3623 12.0906L16.3104 14.0861C16.2475 14.0125 16.2231 13.9197 16.1536 13.8502C15.648 13.3445 15.0192 13.0793 14.3677 12.9243L15.3859 10.9713ZM13.5018 14.2472C14.0762 14.2472 14.6504 14.4684 15.0929 14.9109C15.9779 15.7959 15.9779 17.2081 15.0929 18.0931L15.087 18.0989L15.0812 18.1048C14.1191 19.112 12.7313 19.9498 9.54023 20.1618C10.1124 19.2227 10.557 18.2913 10.8427 17.4704C11.2594 16.2728 11.5636 15.3363 11.9327 14.9021C12.3727 14.4717 12.9353 14.2472 13.5018 14.2472Z" fill="black"/>
</svg>
