<svg width="15" height="15" viewBox="0 0 22 22" fill="none" xmlns="http://www.w3.org/2000/svg">
<g opacity="0.2">
<path d="M10.9948 22C12.5049 22 13.9254 21.7138 15.2562 21.1415C16.5871 20.5692 17.7558 19.7762 18.7626 18.7626C19.7693 17.7489 20.5588 16.5802 21.1312 15.2562C21.7104 13.9323 22 12.5153 22 11.0052C22 9.48817 21.7104 8.0677 21.1312 6.74377C20.5588 5.41984 19.7693 4.25106 18.7626 3.23742C17.7558 2.22379 16.5871 1.43081 15.2562 0.858486C13.9254 0.286162 12.5049 0 10.9948 0C9.48472 0 8.06425 0.286162 6.73343 0.858486C5.4095 1.43081 4.24071 2.22379 3.22708 3.23742C2.22034 4.25106 1.43081 5.41984 0.858486 6.74377C0.286162 8.0677 0 9.48817 0 11.0052C0 12.5153 0.286162 13.9323 0.858486 15.2562C1.43081 16.5802 2.22034 17.7489 3.22708 18.7626C4.24071 19.7762 5.41294 20.5692 6.74377 21.1415C8.0746 21.7138 9.49162 22 10.9948 22ZM7.78843 15.4528C7.44366 15.4528 7.1506 15.3321 6.90926 15.0907C6.66792 14.8494 6.54725 14.5494 6.54725 14.1909C6.54725 13.8599 6.67137 13.5737 6.91961 13.3324L9.23648 11.0155L6.91961 8.69864C6.67137 8.4504 6.54725 8.16079 6.54725 7.82981C6.54725 7.47124 6.66792 7.17474 6.90926 6.94029C7.1506 6.69895 7.44366 6.57828 7.78843 6.57828C8.15389 6.57828 8.46419 6.69895 8.71932 6.94029L11.0155 9.23648L13.3221 6.94029C13.5634 6.69205 13.8702 6.56794 14.2426 6.56794C14.5943 6.56794 14.8873 6.68861 15.1218 6.92995C15.3631 7.17129 15.4838 7.4678 15.4838 7.81946C15.4838 8.15734 15.3597 8.4504 15.1114 8.69864L12.7945 11.0155L15.1011 13.3324C15.3562 13.5668 15.4838 13.853 15.4838 14.1909C15.4838 14.5494 15.3631 14.8494 15.1218 15.0907C14.8804 15.3321 14.5805 15.4528 14.2219 15.4528C13.8496 15.4528 13.5427 15.3286 13.3014 15.0804L11.0155 12.8049L8.72967 15.0804C8.48143 15.3286 8.16769 15.4528 7.78843 15.4528Z" fill="black"/>
</g>
</svg>
