<svg xmlns="http://www.w3.org/2000/svg" width="40" height="40"><defs><clipPath id="_clipPath_b86Ru3e2XeLnWXrZTiRAIWy8b12PL9SA"><rect width="40" height="40"/></clipPath></defs><g clip-path="url(#_clipPath_b86Ru3e2XeLnWXrZTiRAIWy8b12PL9SA)"><g><path d=" M 20.008 5.661 C 25.591 5.661 30.357 9.173 32.227 14.111 C 35.736 15.042 38.321 18.256 38.296 22.07 C 38.268 26.326 34.968 29.789 30.814 30.165 C 30.622 30.181 30.455 30.03 30.455 29.838 L 30.455 27.367 C 30.455 27.204 30.573 27.065 30.737 27.045 C 31.839 26.906 32.877 26.42 33.673 25.636 C 34.653 24.676 35.192 23.389 35.192 22.017 C 35.192 19.718 33.644 17.705 31.431 17.116 L 29.887 16.708 L 29.324 15.213 C 28.972 14.282 28.482 13.408 27.866 12.62 C 27.257 11.836 26.538 11.15 25.726 10.578 C 24.047 9.394 22.071 8.769 20.008 8.769 C 17.946 8.769 15.969 9.394 14.291 10.574 C 13.482 11.146 12.759 11.832 12.151 12.616 C 11.534 13.404 11.044 14.278 10.693 15.209 L 10.125 16.708 L 8.577 17.116 C 7.519 17.394 6.56 18.027 5.878 18.901 C 5.179 19.8 4.808 20.878 4.808 22.021 C 4.808 23.389 5.347 24.68 6.327 25.64 C 7.127 26.428 8.169 26.91 9.271 27.049 C 9.435 27.069 9.557 27.208 9.557 27.371 L 9.557 29.838 C 9.557 30.03 9.394 30.181 9.202 30.165 C 5.036 29.793 1.728 26.326 1.704 22.062 C 1.683 18.248 4.273 15.034 7.789 14.107 C 9.659 9.169 14.425 5.661 20.008 5.661 Z  M 16.096 22.242 C 15.124 23.218 14.556 24.493 14.483 25.861 C 14.475 26.036 14.332 26.171 14.16 26.175 L 12.204 26.175 C 12.016 26.175 11.869 26.02 11.877 25.836 C 12.057 21.483 15.634 18.007 20.021 18.007 C 22.475 18.007 24.672 19.094 26.167 20.809 L 27.115 20.066 C 27.331 19.894 27.641 20.049 27.641 20.323 L 27.621 24.46 C 27.621 24.668 27.421 24.823 27.217 24.774 L 23.206 23.794 C 23.146 23.78 23.092 23.749 23.049 23.704 C 23.006 23.66 22.977 23.605 22.964 23.545 C 22.951 23.485 22.956 23.422 22.977 23.364 C 22.998 23.307 23.035 23.256 23.084 23.218 L 24.105 22.418 L 24.094 22.406 C 24.041 22.349 23.991 22.296 23.937 22.242 C 22.888 21.193 21.495 20.617 20.017 20.617 C 18.546 20.617 17.133 21.201 16.096 22.242 Z  M 25.844 26.171 L 27.801 26.171 C 27.988 26.171 28.135 26.326 28.127 26.51 C 27.948 30.864 24.37 34.339 19.984 34.339 C 17.529 34.339 15.332 33.253 13.838 31.537 L 12.89 32.281 C 12.674 32.452 12.363 32.297 12.363 32.023 L 12.38 27.882 C 12.38 27.674 12.58 27.519 12.784 27.568 L 16.794 28.548 C 16.854 28.563 16.908 28.594 16.951 28.638 C 16.994 28.682 17.024 28.737 17.036 28.797 C 17.049 28.858 17.045 28.92 17.024 28.978 C 17.003 29.036 16.965 29.086 16.917 29.124 L 15.896 29.924 L 15.907 29.936 C 15.96 29.993 16.01 30.046 16.063 30.1 C 17.113 31.149 18.505 31.725 19.984 31.725 C 21.454 31.725 22.867 31.141 23.905 30.1 C 24.876 29.124 25.444 27.85 25.518 26.481 C 25.53 26.306 25.673 26.171 25.844 26.171 Z " fill-rule="evenodd" fill="rgb(0,0,0)"/><path d=" M 32.227 14.111 L 31.569 14.36 L 31.697 14.698 L 32.047 14.791 L 32.227 14.111 Z  M 38.296 22.07 L 39 22.075 L 39 22.075 L 38.296 22.07 Z  M 30.814 30.165 L 30.874 30.866 L 30.878 30.865 L 30.814 30.165 Z  M 30.737 27.045 L 30.824 27.743 L 30.825 27.743 L 30.737 27.045 Z  M 33.673 25.636 L 33.181 25.133 L 33.179 25.134 L 33.673 25.636 Z  M 31.431 17.116 L 31.612 16.436 L 31.611 16.436 L 31.431 17.116 Z  M 29.887 16.708 L 29.229 16.956 L 29.357 17.296 L 29.707 17.388 L 29.887 16.708 Z  M 29.324 15.213 L 29.982 14.965 L 29.982 14.965 L 29.324 15.213 Z  M 27.866 12.62 L 27.31 13.051 L 27.311 13.054 L 27.866 12.62 Z  M 25.726 10.578 L 25.32 11.153 L 25.321 11.154 L 25.726 10.578 Z  M 14.291 10.574 L 13.886 9.998 L 13.884 9.999 L 14.291 10.574 Z  M 12.151 12.616 L 12.705 13.05 L 12.707 13.047 L 12.151 12.616 Z  M 10.693 15.209 L 11.351 15.458 L 11.351 15.458 L 10.693 15.209 Z  M 10.125 16.708 L 10.304 17.388 L 10.655 17.296 L 10.783 16.957 L 10.125 16.708 Z  M 8.577 17.116 L 8.756 17.797 L 8.757 17.797 L 8.577 17.116 Z  M 5.878 18.901 L 5.323 18.468 L 5.322 18.469 L 5.878 18.901 Z  M 6.327 25.64 L 6.821 25.138 L 6.819 25.137 L 6.327 25.64 Z  M 9.271 27.049 L 9.183 27.747 L 9.184 27.747 L 9.271 27.049 Z  M 9.202 30.165 L 9.139 30.866 L 9.142 30.866 L 9.202 30.165 Z  M 1 22.066 L 1 22.066 L 1 22.066 Z  M 7.789 14.107 L 7.968 14.787 L 8.319 14.695 L 8.447 14.356 L 7.789 14.107 Z  M 14.483 25.861 L 13.78 25.823 L 13.78 25.828 L 14.483 25.861 Z  M 16.096 22.242 L 15.597 21.746 L 15.597 21.746 L 16.096 22.242 Z  M 14.16 26.175 L 14.16 26.879 L 14.177 26.879 L 14.16 26.175 Z  M 11.877 25.836 L 12.58 25.867 L 12.58 25.865 L 11.877 25.836 Z  M 26.167 20.809 L 25.636 21.271 L 26.076 21.775 L 26.601 21.362 L 26.167 20.809 Z  M 27.115 20.066 L 27.549 20.619 L 27.551 20.617 L 27.115 20.066 Z  M 27.641 20.323 L 28.345 20.326 L 28.345 20.323 L 27.641 20.323 Z  M 27.621 24.46 L 26.917 24.456 L 26.917 24.46 L 27.621 24.46 Z  M 27.217 24.774 L 27.049 25.458 L 27.052 25.459 L 27.217 24.774 Z  M 23.206 23.794 L 23.373 23.111 L 23.373 23.111 L 23.206 23.794 Z  M 23.049 23.704 L 22.544 24.195 L 22.544 24.195 L 23.049 23.704 Z  M 22.964 23.545 L 22.276 23.691 L 22.276 23.691 L 22.964 23.545 Z  M 22.977 23.364 L 22.316 23.122 L 22.316 23.122 L 22.977 23.364 Z  M 23.084 23.218 L 23.514 23.775 L 23.518 23.772 L 23.084 23.218 Z  M 24.105 22.418 L 24.539 22.972 L 25.142 22.499 L 24.619 21.938 L 24.105 22.418 Z  M 24.094 22.406 L 24.608 21.926 L 24.608 21.926 L 24.094 22.406 Z  M 23.937 22.242 L 24.435 21.745 L 24.435 21.745 L 23.937 22.242 Z  M 28.127 26.51 L 27.424 26.479 L 27.424 26.481 L 28.127 26.51 Z  M 13.838 31.537 L 14.368 31.075 L 13.929 30.571 L 13.403 30.984 L 13.838 31.537 Z  M 12.89 32.281 L 12.456 31.727 L 12.453 31.729 L 12.89 32.281 Z  M 12.363 32.023 L 11.66 32.021 L 11.66 32.023 L 12.363 32.023 Z  M 12.38 27.882 L 13.083 27.885 L 13.083 27.882 L 12.38 27.882 Z  M 12.784 27.568 L 12.951 26.884 L 12.948 26.884 L 12.784 27.568 Z  M 16.794 28.548 L 16.627 29.231 L 16.628 29.232 L 16.794 28.548 Z  M 16.951 28.638 L 17.456 28.148 L 17.456 28.148 L 16.951 28.638 Z  M 17.036 28.797 L 16.348 28.944 L 16.348 28.944 L 17.036 28.797 Z  M 17.024 28.978 L 16.363 28.736 L 16.363 28.736 L 17.024 28.978 Z  M 16.917 29.124 L 16.486 28.567 L 16.483 28.57 L 16.917 29.124 Z  M 15.896 29.924 L 15.462 29.37 L 14.858 29.844 L 15.381 30.404 L 15.896 29.924 Z  M 15.907 29.936 L 15.392 30.416 L 15.392 30.416 L 15.907 29.936 Z  M 16.063 30.1 L 16.561 29.602 L 16.063 30.1 Z  M 23.905 30.1 L 24.403 30.597 L 24.403 30.596 L 23.905 30.1 Z  M 25.518 26.481 L 24.816 26.432 L 24.815 26.444 L 25.518 26.481 Z  M 32.885 13.861 C 30.915 8.66 25.894 4.957 20.008 4.957 L 20.008 6.365 C 25.288 6.365 29.799 9.686 31.569 14.36 L 32.885 13.861 Z  M 39 22.075 C 39.026 17.932 36.219 14.442 32.408 13.43 L 32.047 14.791 C 35.252 15.642 37.615 18.58 37.592 22.066 L 39 22.075 Z  M 30.878 30.865 C 35.383 30.458 38.969 26.702 39 22.075 L 37.592 22.066 C 37.566 25.95 34.552 29.12 30.751 29.464 L 30.878 30.865 Z  M 29.751 29.838 C 29.751 30.451 30.28 30.916 30.874 30.866 L 30.755 29.464 C 30.965 29.446 31.159 29.609 31.159 29.838 L 29.751 29.838 Z  M 29.751 27.367 L 29.751 29.838 L 31.159 29.838 L 31.159 27.367 L 29.751 27.367 Z  M 30.649 26.346 C 30.123 26.412 29.751 26.86 29.751 27.367 L 31.159 27.367 C 31.159 27.548 31.024 27.718 30.824 27.743 L 30.649 26.346 Z  M 33.179 25.134 C 32.498 25.805 31.605 26.226 30.649 26.346 L 30.825 27.743 C 32.074 27.585 33.256 27.034 34.167 26.137 L 33.179 25.134 Z  M 34.489 22.017 C 34.489 23.201 34.025 24.306 33.181 25.133 L 34.165 26.138 C 35.281 25.046 35.896 23.578 35.896 22.017 L 34.489 22.017 Z  M 31.25 17.797 C 33.155 18.303 34.489 20.036 34.489 22.017 L 35.896 22.017 C 35.896 19.4 34.134 17.107 31.612 16.436 L 31.25 17.797 Z  M 29.707 17.388 L 31.251 17.797 L 31.611 16.436 L 30.067 16.028 L 29.707 17.388 Z  M 28.665 15.462 L 29.229 16.956 L 30.546 16.46 L 29.982 14.965 L 28.665 15.462 Z  M 27.311 13.054 C 27.884 13.785 28.339 14.597 28.665 15.462 L 29.982 14.965 C 29.606 13.968 29.081 13.031 28.42 12.186 L 27.311 13.054 Z  M 25.321 11.154 C 26.076 11.685 26.744 12.323 27.31 13.051 L 28.422 12.189 C 27.77 11.349 27.001 10.615 26.131 10.002 L 25.321 11.154 Z  M 20.008 9.473 C 21.926 9.473 23.761 10.053 25.32 11.153 L 26.131 10.003 C 24.333 8.734 22.215 8.065 20.008 8.065 L 20.008 9.473 Z  M 14.695 11.15 C 16.255 10.053 18.09 9.473 20.008 9.473 L 20.008 8.065 C 17.801 8.065 15.683 8.734 13.886 9.998 L 14.695 11.15 Z  M 12.707 13.047 C 13.271 12.319 13.943 11.681 14.697 11.149 L 13.884 9.999 C 13.02 10.61 12.247 11.344 11.595 12.184 L 12.707 13.047 Z  M 11.351 15.458 C 11.677 14.593 12.132 13.781 12.705 13.05 L 11.596 12.182 C 10.936 13.027 10.41 13.963 10.034 14.961 L 11.351 15.458 Z  M 10.783 16.957 L 11.351 15.458 L 10.035 14.96 L 9.467 16.459 L 10.783 16.957 Z  M 8.757 17.797 L 10.304 17.388 L 9.945 16.028 L 8.398 16.436 L 8.757 17.797 Z  M 6.432 19.334 C 7.02 18.58 7.849 18.035 8.756 17.797 L 8.398 16.436 C 7.19 16.753 6.099 17.474 5.323 18.468 L 6.432 19.334 Z  M 5.511 22.021 C 5.511 21.035 5.831 20.108 6.433 19.333 L 5.322 18.469 C 4.528 19.491 4.104 20.721 4.104 22.021 L 5.511 22.021 Z  M 6.819 25.137 C 5.975 24.31 5.511 23.201 5.511 22.021 L 4.104 22.021 C 4.104 23.578 4.719 25.05 5.835 26.142 L 6.819 25.137 Z  M 9.359 26.35 C 8.401 26.23 7.505 25.812 6.821 25.138 L 5.833 26.141 C 6.75 27.043 7.936 27.59 9.183 27.747 L 9.359 26.35 Z  M 10.261 27.371 C 10.261 26.851 9.873 26.415 9.359 26.35 L 9.184 27.747 C 8.997 27.723 8.854 27.564 8.854 27.371 L 10.261 27.371 Z  M 10.261 29.838 L 10.261 27.371 L 8.854 27.371 L 8.854 29.838 L 10.261 29.838 Z  M 9.142 30.866 C 9.747 30.917 10.261 30.44 10.261 29.838 L 8.854 29.838 C 8.854 29.62 9.041 29.445 9.262 29.464 L 9.142 30.866 Z  M 1 22.066 C 1.027 26.702 4.622 30.463 9.139 30.866 L 9.264 29.464 C 5.451 29.124 2.43 25.949 2.408 22.058 L 1 22.066 Z  M 7.61 13.426 C 3.79 14.433 0.978 17.923 1 22.066 L 1.704 22.062 L 2.408 22.058 C 2.389 18.573 4.755 15.634 7.968 14.787 L 7.61 13.426 Z  M 20.008 4.957 C 14.123 4.957 9.101 8.656 7.131 13.857 L 8.447 14.356 C 10.217 9.682 14.728 6.365 20.008 6.365 L 20.008 4.957 Z  M 15.185 25.898 C 15.25 24.704 15.744 23.593 16.595 22.739 L 15.597 21.746 C 14.504 22.844 13.863 24.281 13.78 25.823 L 15.185 25.898 Z  M 14.177 26.879 C 14.709 26.866 15.16 26.446 15.186 25.893 L 13.78 25.828 C 13.789 25.626 13.954 25.476 14.143 25.472 L 14.177 26.879 Z  M 12.204 26.879 L 14.16 26.879 L 14.16 25.471 L 12.204 25.471 L 12.204 26.879 Z  M 11.174 25.805 C 11.148 26.391 11.617 26.879 12.204 26.879 L 12.204 25.471 C 12.415 25.471 12.59 25.649 12.58 25.867 L 11.174 25.805 Z  M 20.021 17.304 C 15.254 17.304 11.369 21.08 11.174 25.807 L 12.58 25.865 C 12.745 21.885 16.015 18.711 20.021 18.711 L 20.021 17.304 Z  M 26.697 20.346 C 25.075 18.485 22.688 17.304 20.021 17.304 L 20.021 18.711 C 22.262 18.711 24.269 19.702 25.636 21.271 L 26.697 20.346 Z  M 26.68 19.512 L 25.733 20.255 L 26.601 21.362 L 27.549 20.619 L 26.68 19.512 Z  M 28.345 20.323 C 28.345 19.477 27.368 18.967 26.677 19.514 L 27.551 20.617 C 27.294 20.821 26.938 20.622 26.938 20.323 L 28.345 20.323 Z  M 28.325 24.463 L 28.345 20.326 L 26.938 20.319 L 26.917 24.456 L 28.325 24.463 Z  M 27.052 25.459 C 27.689 25.611 28.325 25.134 28.325 24.46 L 26.917 24.46 C 26.917 24.202 27.153 24.035 27.381 24.09 L 27.052 25.459 Z  M 23.039 24.478 L 27.049 25.458 L 27.384 24.091 L 23.373 23.111 L 23.039 24.478 Z  M 22.544 24.195 C 22.679 24.334 22.851 24.432 23.039 24.478 L 23.373 23.111 C 23.442 23.127 23.505 23.163 23.554 23.214 L 22.544 24.195 Z  M 22.276 23.691 C 22.316 23.881 22.409 24.055 22.544 24.195 L 23.554 23.214 C 23.603 23.265 23.637 23.329 23.652 23.398 L 22.276 23.691 Z  M 22.316 23.122 C 22.249 23.304 22.235 23.502 22.276 23.691 L 23.652 23.398 C 23.667 23.468 23.662 23.54 23.637 23.607 L 22.316 23.122 Z  M 22.653 22.662 C 22.5 22.78 22.383 22.94 22.316 23.122 L 23.637 23.607 C 23.613 23.673 23.57 23.732 23.514 23.775 L 22.653 22.662 Z  M 23.67 21.864 L 22.649 22.665 L 23.518 23.772 L 24.539 22.972 L 23.67 21.864 Z  M 23.579 22.887 L 23.59 22.898 L 24.619 21.938 L 24.608 21.926 L 23.579 22.887 Z  M 23.44 22.74 C 23.483 22.784 23.525 22.828 23.579 22.887 L 24.608 21.926 C 24.557 21.871 24.498 21.808 24.435 21.745 L 23.44 22.74 Z  M 20.017 21.321 C 21.308 21.321 22.522 21.822 23.44 22.74 L 24.435 21.745 C 23.253 20.563 21.682 19.913 20.017 19.913 L 20.017 21.321 Z  M 16.595 22.739 C 17.499 21.831 18.732 21.321 20.017 21.321 L 20.017 19.913 C 18.36 19.913 16.767 20.571 15.597 21.746 L 16.595 22.739 Z  M 27.801 25.467 L 25.844 25.467 L 25.844 26.875 L 27.801 26.875 L 27.801 25.467 Z  M 28.83 26.541 C 28.856 25.955 28.388 25.467 27.801 25.467 L 27.801 26.875 C 27.589 26.875 27.415 26.697 27.424 26.479 L 28.83 26.541 Z  M 19.984 35.043 C 24.751 35.043 28.635 31.266 28.83 26.539 L 27.424 26.481 C 27.26 30.461 23.989 33.635 19.984 33.635 L 19.984 35.043 Z  M 13.307 32 C 14.929 33.861 17.317 35.043 19.984 35.043 L 19.984 33.635 C 17.742 33.635 15.735 32.644 14.368 31.075 L 13.307 32 Z  M 13.324 32.834 L 14.272 32.091 L 13.403 30.984 L 12.456 31.727 L 13.324 32.834 Z  M 11.66 32.023 C 11.66 32.869 12.637 33.379 13.327 32.832 L 12.453 31.729 C 12.71 31.525 13.067 31.725 13.067 32.023 L 11.66 32.023 Z  M 11.676 27.88 L 11.66 32.021 L 13.067 32.026 L 13.083 27.885 L 11.676 27.88 Z  M 12.948 26.884 C 12.312 26.731 11.676 27.208 11.676 27.882 L 13.083 27.882 C 13.083 28.14 12.848 28.307 12.62 28.252 L 12.948 26.884 Z  M 16.961 27.864 L 12.951 26.884 L 12.617 28.251 L 16.627 29.231 L 16.961 27.864 Z  M 17.456 28.148 C 17.321 28.008 17.149 27.91 16.961 27.864 L 16.628 29.232 C 16.559 29.215 16.496 29.179 16.446 29.128 L 17.456 28.148 Z  M 17.725 28.651 C 17.684 28.461 17.591 28.287 17.456 28.148 L 16.446 29.128 C 16.397 29.077 16.363 29.013 16.348 28.944 L 17.725 28.651 Z  M 17.684 29.22 C 17.751 29.038 17.765 28.841 17.725 28.651 L 16.348 28.944 C 16.333 28.874 16.339 28.802 16.363 28.736 L 17.684 29.22 Z  M 17.347 29.68 C 17.501 29.562 17.618 29.402 17.684 29.22 L 16.363 28.736 C 16.387 28.669 16.43 28.611 16.486 28.567 L 17.347 29.68 Z  M 16.33 30.478 L 17.351 29.678 L 16.483 28.57 L 15.462 29.37 L 16.33 30.478 Z  M 16.421 29.456 L 16.41 29.444 L 15.381 30.404 L 15.392 30.416 L 16.421 29.456 Z  M 16.561 29.602 C 16.517 29.559 16.475 29.514 16.421 29.456 L 15.392 30.416 C 15.444 30.471 15.502 30.534 15.566 30.598 L 16.561 29.602 Z  M 19.984 31.022 C 18.692 31.022 17.478 30.52 16.561 29.602 L 15.566 30.598 C 16.747 31.779 18.319 32.429 19.984 32.429 L 19.984 31.022 Z  M 23.406 29.603 C 22.501 30.511 21.268 31.022 19.984 31.022 L 19.984 32.429 C 21.64 32.429 23.233 31.771 24.403 30.597 L 23.406 29.603 Z  M 24.815 26.444 C 24.751 27.638 24.256 28.749 23.406 29.603 L 24.403 30.596 C 25.497 29.498 26.137 28.061 26.22 26.519 L 24.815 26.444 Z  M 25.844 25.467 C 25.293 25.467 24.853 25.898 24.816 26.432 L 26.22 26.53 C 26.207 26.713 26.053 26.875 25.844 26.875 L 25.844 25.467 Z " fill="rgb(255,255,255)"/></g></g></svg>
