<?xml version="1.0" encoding="utf-8"?>
<!-- Generator: Adobe Illustrator 26.5.0, SVG Export Plug-In . SVG Version: 6.00 Build 0)  -->
<svg version="1.1" id="Layer_1" xmlns="http://www.w3.org/2000/svg" xmlns:xlink="http://www.w3.org/1999/xlink" x="0px" y="0px"
	 viewBox="0 0 36.5 42.7" style="enable-background:new 0 0 36.5 42.7;" xml:space="preserve">
<g>
	<path d="M31.1,30.4c6.9-7,6.8-18.2-0.4-25.1S12.2-1.3,5.3,5.7c-6.8,6.9-6.8,17.8,0,24.7c0,0,0,0,0,0.1l0.1,0.1
		c0,0,0.1,0.1,0.1,0.1l11.2,11.1c0.8,0.8,2,0.8,2.8,0l11.2-11.1c0,0,0.1-0.1,0.1-0.1L31.1,30.4C31.1,30.5,31.1,30.5,31.1,30.4z"/>
</g>
<path d="M18.2,23.3c0.9,0,1.4-0.5,1.4-1.5l0.3-9.8c0-0.5-0.1-0.9-0.5-1.2c-0.3-0.3-0.7-0.5-1.2-0.5
	c-0.5,0-0.9,0.2-1.2,0.5c-0.3,0.3-0.5,0.7-0.4,1.2l0.2,9.8C16.8,22.8,17.3,23.3,18.2,23.3z M18.2,29.4c0.5,0,1-0.2,1.4-0.6
	c0.4-0.4,0.6-0.8,0.6-1.4c0-0.5-0.2-1-0.6-1.4c-0.4-0.4-0.9-0.6-1.4-0.6c-0.5,0-1,0.2-1.4,0.6c-0.4,0.4-0.6,0.8-0.6,1.4
	c0,0.5,0.2,1,0.6,1.4C17.2,29.2,17.7,29.4,18.2,29.4z" fill='#FFFFFF'/>
</svg>
