<svg style="border-radius: 0.2em;" width="1em" height="1em" viewBox="341 178 290 290" fill="none" xmlns="http://www.w3.org/2000/svg">
   <rect x="265.733" y="102.968" width="441.064" height="441.064" fill="black"/>
   <path d="M411.249 322.235L392.562 340.922H449.501L384.094 406.329L401.905 424.141L467.313 358.734V415.673L486 396.985V322.235H411.249Z" fill="#E8E8E6"/>
   <path d="M411.249 322.235L392.562 340.922H449.501L384.094 406.329L401.905 424.141L467.313 358.734V415.673L486 396.985V322.235H411.249Z" fill="#E8E8E6"/>
   <rect x="486" y="126.322" width="150" height="197.444" fill="#D9D9D9"/>
   <rect x="486" y="126.322" width="150" height="197.444" fill="url(#paint0_linear_2_750_cvat_icon)"/>
   <rect x="552.876" y="186.829" width="79.9393" height="70.0607" stroke="#FF7300" stroke-width="70.0607"/>
   <rect x="584.722" y="154.983" width="79.9393" height="70.0607" stroke="#FF4800" stroke-width="70.0607"/>
   <rect x="616.567" y="123.137" width="79.9393" height="70.0607" stroke="#E10602" stroke-width="70.0607"/>
   <path fill-rule="evenodd" clip-rule="evenodd" d="M971.117 0H0.882812V647H971.117V0ZM348.507 215.431C341.102 229.964 341.102 248.988 341.102 287.037V359.433C341.102 397.481 341.102 416.506 348.507 431.038C355.02 443.822 365.413 454.215 378.196 460.728C392.729 468.133 411.753 468.133 449.802 468.133H522.198C560.247 468.133 579.271 468.133 593.804 460.728C606.587 454.215 616.98 443.822 623.494 431.038C630.898 416.506 630.898 397.481 630.898 359.433V287.037C630.898 248.988 630.898 229.964 623.494 215.431C616.98 202.648 606.587 192.255 593.804 185.741C579.271 178.336 560.247 178.336 522.198 178.336H449.802C411.753 178.336 392.729 178.336 378.196 185.741C365.413 192.255 355.02 202.648 348.507 215.431Z" fill="#E3E3E3"/>
   <defs>
      <linearGradient id="paint0_linear_2_750_cvat_icon" x1="497.77" y1="225.043" x2="607.301" y2="207.522" gradientUnits="userSpaceOnUse">
         <stop stop-color="#D6D5D3"/>
         <stop offset="1" stop-color="#F0A121"/>
      </linearGradient>
   </defs>
</svg>
