<svg width="64" height="12" viewBox="0 0 80 15" xmlns="http://www.w3.org/2000/svg">
    <path d="M6.63399 15C2.37083 15 0 12.5333 0 7.48889C0 2.46667 2.34908 0 6.63399 0H10.6576V2.62222H6.63399C3.78464 2.62222 2.56659 4.06667 2.56659 7.48889C2.56659 10.9333 3.80639 12.3778 6.63399 12.3778H15.0638V15H6.63399Z"/>
    <path d="M22.412 0L27.2466 13.1004C27.7814 14.5415 28.8724 15 30.2842 15C31.7817 15 32.7657 14.476 33.3005 13.1004L38.3918 0H35.5895L30.9902 11.8559C30.8404 12.2052 30.6265 12.3581 30.2842 12.3581C29.942 12.3581 29.7067 12.2052 29.5783 11.8559L25.1929 0H22.412Z"/>
    <path d="M53.0989 3.1441C53.2487 2.79476 53.484 2.64192 53.8262 2.64192C54.1685 2.64192 54.4038 2.79476 54.5322 3.1441L58.9176 15H61.7199L56.8425 1.89956C56.3291 0.524017 55.3451 0 53.8476 0C52.3288 0 51.3448 0.524017 50.81 1.89956L45.74 15H48.521L53.0989 3.1441Z"/>
    <path d="M69.0681 0V2.5665H73.2661V15H75.802V2.5665H80V0H69.0681Z"/>
</svg>
