<!-- Downloaded from: https://www.svgrepo.com/svg/253277/vector-ellipse, CC0 License -->
<svg width="40" height="40" version="1.1" xmlns="http://www.w3.org/2000/svg" xmlns:xlink="http://www.w3.org/1999/xlink" x="0px" y="0px" viewBox="0 0 512 512" style="enable-background:new 0 0 512 512;" xml:space="preserve">
	<g>
		<g>
			<path d="M503.47,231.292h-19.628c-22.657-62.638-105.58-108.515-210.691-116.371V94.806c0-4.709-3.822-8.53-8.53-8.53h-51.182
				c-4.709,0-8.53,3.822-8.53,8.53v21.138C87.138,128.714,0,193.264,0,269.678c0,86.046,111.014,156.046,247.465,156.046
				c127.776,0,221.943-50.389,237.766-126.189h18.238c4.709,0,8.53-3.822,8.53-8.53v-51.182
				C512,235.113,508.187,231.292,503.47,231.292z M221.968,103.337h34.121v34.121h-34.121V103.337z M247.465,408.663
				c-127.051,0-230.405-62.348-230.405-138.985c0-67.236,79.742-124.355,187.847-136.571v12.881c0,4.709,3.822,8.53,8.53,8.53h51.182
				c4.709,0,8.53-3.822,8.53-8.53v-13.964c94.508,7.328,169.336,46.072,192.556,99.268h-13.41c-4.709,0-8.53,3.822-8.53,8.53v51.182
				c0,4.709,3.822,8.53,8.53,8.53h15.235C451.025,364.246,362.821,408.663,247.465,408.663z M494.939,282.474h-34.121v-34.121h34.121
				V282.474z"/>
		</g>
	</g>
	<g>
		<g>
			<path d="M256.09,256.883h-8.53v-8.53c0-4.709-3.813-8.53-8.53-8.53c-4.709,0-8.53,3.822-8.53,8.53v8.53h-8.53
				c-4.709,0-8.53,3.822-8.53,8.53c0,4.709,3.822,8.53,8.53,8.53h8.53v8.53c0,4.709,3.822,8.53,8.53,8.53s8.53-3.822,8.53-8.53v-8.53
				h8.53c4.709,0,8.53-3.822,8.53-8.53C264.62,260.704,260.798,256.883,256.09,256.883z"/>
		</g>
	</g>
</svg>
