<?xml version="1.0" encoding="UTF-8"?>
<svg width="90px" height="78px" viewBox="0 0 90 78" version="1.1" xmlns="http://www.w3.org/2000/svg" xmlns:xlink="http://www.w3.org/1999/xlink">
    <!-- Generator: sketchtool 58 (101010) - https://sketch.com -->
    <title>8EAC7454-72F0-4344-ACCC-8688B016EA51</title>
    <desc>Created with sketchtool.</desc>
    <g id="Page-1" stroke="none" stroke-width="1" fill="none" fill-rule="evenodd">
        <g id="cvat-app---tasks-empty-NEW" transform="translate(-675.000000, -200.000000)" fill="#9B9B9B">
            <path d="M759.270349,200 C762.023479,200 764.276863,202.167234 764.390611,204.873941 L764.395116,205.08872 L764.395116,272.23736 C764.395116,274.971333 762.212326,277.208669 759.486633,277.321607 L759.270349,277.32608 L680.122674,277.32608 C677.371583,277.32608 675.118252,275.158846 675.004505,272.452139 L675,272.23736 L675,205.08872 C675,202.354747 677.182791,200.117411 679.906547,200.004473 L680.122674,200 L759.270349,200 Z M760.850581,216.24168 L678.544535,216.24168 L678.544535,272.23736 C678.544535,273.052604 679.177422,273.72499 679.979474,273.797183 L680.122674,273.8036 L759.270349,273.8036 C760.093663,273.8036 760.771357,273.176506 760.844115,272.379651 L760.850581,272.23736 L760.850581,216.24168 Z M687.656578,238.480495 L691.984557,238.480495 C692.574881,238.480495 693.060645,238.931945 693.12279,239.511284 L693.129507,239.637268 L693.129507,240.666335 L708.149563,240.666335 L708.149563,239.636773 C708.149563,239.040814 708.596399,238.549634 709.170215,238.486792 L709.295003,238.48 L713.622982,238.48 C714.213306,238.48 714.698644,238.93145 714.760732,239.510789 L714.767442,239.636773 L714.767442,244.008948 C714.767442,244.604906 714.32146,245.096086 713.747757,245.158928 L713.622982,245.16572 L712.603942,245.16572 L712.603942,255.71428 L713.622002,255.71428 C714.212327,255.71428 714.698517,256.165298 714.760719,256.744982 L714.767442,256.871052 L714.767442,261.243227 C714.767442,261.839186 714.320606,262.330366 713.74679,262.393208 L713.622002,262.4 L709.294513,262.4 C708.704189,262.4 708.218425,261.948981 708.15628,261.369297 L708.149563,261.243227 L708.149563,260.213665 L693.129997,260.213665 L693.129997,261.243227 C693.129997,261.839186 692.683587,262.330366 692.109828,262.393208 L691.985047,262.4 L687.657068,262.4 C687.066743,262.4 686.580979,261.948981 686.518834,261.369297 L686.512118,261.243227 L686.512118,256.871052 C686.512118,256.275094 686.958527,255.783914 687.532286,255.721072 L687.657068,255.71428 L688.675617,255.71428 L688.675617,245.166215 L687.656578,245.166215 C687.066253,245.166215 686.580489,244.714766 686.518344,244.135426 L686.511628,244.009443 L686.511628,239.637268 C686.511628,239.041309 686.958037,238.550129 687.531796,238.487287 L687.656578,238.480495 L691.984557,238.480495 Z M690.839607,258.027825 L688.802018,258.027825 L688.802018,260.086455 L690.839607,260.086455 L690.839607,258.027825 Z M712.477542,258.027825 L710.439463,258.027825 L710.439463,260.086455 L712.477542,260.086455 L712.477542,258.027825 Z M708.149563,242.97988 L693.129507,242.97988 L693.129507,244.009443 C693.129507,244.605401 692.683098,245.096581 692.109338,245.159423 L691.984557,245.166215 L690.966007,245.166215 L690.966007,255.71428 L691.985047,255.71428 C692.575371,255.71428 693.061135,256.165298 693.12328,256.744982 L693.129997,256.871052 L693.129997,257.899625 L708.149563,257.899625 L708.149563,256.871052 C708.149563,256.275094 708.595972,255.783914 709.169732,255.721072 L709.294513,255.71428 L710.313553,255.71428 L710.313553,245.16572 L709.295003,245.16572 C708.704679,245.16572 708.218488,244.714271 708.156286,244.134931 L708.149563,244.008948 L708.149563,242.97988 Z M729.724988,235.360323 C730.123223,235.360323 730.445882,235.698309 730.445882,236.11474 L730.445882,236.11474 L730.445882,236.785871 L739.902955,236.785871 L739.902955,236.114417 C739.902955,235.697987 740.225923,235.36 740.624158,235.36 L740.624158,235.36 L743.349182,235.36 C743.747416,235.36 744.069767,235.697987 744.069767,236.114417 L744.069767,236.114417 L744.069767,238.965835 C744.069767,239.382266 743.747416,239.720252 743.349182,239.720252 L743.349182,239.720252 L742.707564,239.720252 L742.707564,246.599748 L743.348565,246.599748 C743.746799,246.599748 744.069767,246.937411 744.069767,247.354165 L744.069767,247.354165 L744.069767,250.205583 C744.069767,250.622013 743.746799,250.96 743.348565,250.96 L743.348565,250.96 L740.623849,250.96 C740.225615,250.96 739.902955,250.622336 739.902955,250.205583 L739.902955,250.205583 L739.902955,249.534129 L730.446191,249.534129 L730.446191,250.205583 C730.446191,250.622013 730.123531,250.96 729.725296,250.96 L729.725296,250.96 L727.000273,250.96 C726.602038,250.96 726.279378,250.622336 726.279378,250.205583 L726.279378,250.205583 L726.279378,247.354165 C726.279378,246.937734 726.602038,246.599748 727.000273,246.599748 L727.000273,246.599748 L727.641582,246.599748 L727.641582,239.720575 L726.999964,239.720575 C726.601729,239.720575 726.27907,239.382589 726.27907,238.966158 L726.27907,238.966158 L726.27907,236.11474 C726.27907,235.698309 726.601729,235.360323 726.999964,235.360323 L726.999964,235.360323 Z M729.004094,248.108581 L727.721167,248.108581 L727.721167,249.451166 L729.004094,249.451166 L729.004094,248.108581 Z M742.627979,248.108581 L741.344744,248.108581 L741.344744,249.451166 L742.627979,249.451166 L742.627979,249.451166 L742.627979,248.108581 Z M739.902955,238.294705 L730.445882,238.294705 L730.445882,238.966158 C730.445882,239.382589 730.123223,239.720575 729.724988,239.720575 L729.724988,239.720575 L729.083679,239.720575 L729.083679,246.599748 L729.725296,246.599748 C730.123531,246.599748 730.446191,246.937411 730.446191,247.354165 L730.446191,247.354165 L730.446191,248.024973 L739.902955,248.024973 L739.902955,247.354165 C739.902955,246.937734 740.225615,246.599748 740.623849,246.599748 L740.623849,246.599748 L741.265467,246.599748 L741.265467,246.599748 L741.265467,239.720252 L740.624158,239.720252 C740.225923,239.720252 739.902955,239.382266 739.902955,238.965835 L739.902955,238.965835 L739.902955,238.294705 Z M690.839607,240.794535 L688.801528,240.794535 L688.801528,242.85267 L690.839607,242.85267 L690.839607,240.794535 Z M712.477542,240.793545 L710.439953,240.793545 L710.439953,242.85168 L712.477542,242.85168 L712.477542,240.793545 Z M742.627979,236.868834 L741.345052,236.868834 L741.345052,236.868834 L741.345052,238.211096 L742.627979,238.211096 L742.627979,236.868834 Z M729.004094,236.86948 L727.720858,236.86948 L727.720858,238.211741 L729.004094,238.211741 L729.004094,236.86948 Z M684.098372,219.76 C685.027936,219.76 685.790328,220.471459 685.864243,221.376316 L685.870116,221.52072 L685.870116,221.63928 C685.870116,222.61168 685.07686,223.4 684.098372,223.4 C683.167814,223.4 682.405373,222.688541 682.331455,221.783684 L682.325581,221.63928 L682.325581,221.52072 C682.325581,220.54832 683.118837,219.76 684.098372,219.76 Z M705.747558,219.76 C706.726047,219.76 707.519302,220.54832 707.519302,221.52072 C707.519302,222.49416 706.726047,223.28248 705.747558,223.28248 L691.422907,223.28248 C690.443372,223.28248 689.651163,222.49416 689.651163,221.52072 C689.651163,220.54832 690.443372,219.76 691.422907,219.76 L705.747558,219.76 Z M719.736279,219.76 C720.715814,219.76 721.508023,220.54832 721.508023,221.52072 C721.508023,222.49416 720.715814,223.28248 719.736279,223.28248 L714.446163,223.28248 C713.469767,223.28248 712.674419,222.49416 712.674419,221.52072 C712.674419,220.54832 713.469767,219.76 714.446163,219.76 L719.736279,219.76 Z M729.603837,219.76 C730.581279,219.76 731.376628,220.54832 731.376628,221.52072 C731.376628,222.49416 730.581279,223.28248 729.603837,223.28248 L728.050814,223.28248 C727.072326,223.28248 726.27907,222.49416 726.27907,221.52072 C726.27907,220.54832 727.072326,219.76 728.050814,219.76 L729.603837,219.76 Z M746.711163,219.76 C747.687558,219.76 748.482907,220.54832 748.482907,221.52072 C748.482907,222.49416 747.687558,223.28248 746.711163,223.28248 L738.516977,223.28248 C737.537442,223.28248 736.744186,222.49416 736.744186,221.52072 C736.744186,220.54832 737.537442,219.76 738.516977,219.76 L746.711163,219.76 Z M759.270349,203.52248 L680.122674,203.52248 C679.302326,203.52248 678.623863,204.149574 678.55101,204.946429 L678.544535,205.08872 L678.544535,212.72024 L760.850581,212.72024 L760.850581,205.08872 C760.850581,204.22552 760.142093,203.52248 759.270349,203.52248 Z M684.125581,206.24 C685.105116,206.24 685.898372,207.02728 685.898372,208.00072 C685.898372,208.97312 685.105116,209.76144 684.125581,209.76144 C683.149186,209.76144 682.325581,208.97312 682.325581,208.00072 C682.325581,207.02728 683.087442,206.24 684.066977,206.24 L684.125581,206.24 Z M691.480465,206.24 C692.458953,206.24 693.252209,207.02728 693.252209,208.00072 C693.252209,208.97312 692.458953,209.76144 691.480465,209.76144 C690.503023,209.76144 689.651163,208.97312 689.651163,208.00072 C689.651163,207.02728 690.384767,206.24 691.363256,206.24 L691.480465,206.24 Z M698.776744,206.24 C699.754186,206.24 700.549535,207.02728 700.549535,208.00072 C700.549535,208.97312 699.754186,209.76144 698.776744,209.76144 C697.798256,209.76144 696.976744,208.97312 696.976744,208.00072 C696.976744,207.02728 697.740698,206.24 698.720233,206.24 L698.776744,206.24 Z" id="empty-tasks-icon"></path>
        </g>
    </g>
</svg>