<svg width="40px" height="40px" viewBox="0 0 24 25" fill="none" xmlns="http://www.w3.org/2000/svg">
<path d="M14.1797 3.82031C13.5762 3.82031 12.9492 4.02539 12.4687 4.45312V4.47656L12.4453 4.5L3.67969 13.1953C2.77148 14.1035 2.77734 15.583 3.63281 16.5469L3.65625 16.5703H3.67969L8.17968 21.0703C8.63379 21.5244 9.24023 21.7441 9.84375 21.75H21V20.25H12.375L20.25 12.375C21.1992 11.4258 21.2285 9.9082 20.3203 9L15.8203 4.5C15.3662 4.0459 14.7832 3.82031 14.1797 3.82031ZM14.1562 5.34375C14.3965 5.34375 14.6191 5.4082 14.7656 5.55469L19.2656 10.0547C19.5557 10.3447 19.5967 10.9189 19.1953 11.3203L15.4219 15.0938L9.67968 9.35156L13.4766 5.57812L13.5 5.55469C13.6904 5.39648 13.9277 5.34375 14.1562 5.34375ZM8.60156 10.4297L14.3437 16.1719L10.5234 19.9922C10.5146 19.998 10.5088 20.0098 10.5 20.0156C10.1133 20.3379 9.51855 20.2998 9.23437 20.0156L4.75781 15.5625C4.74609 15.5479 4.74609 15.5303 4.73437 15.5156C4.42676 15.1289 4.45312 14.5312 4.73437 14.25L8.60156 10.4297Z" fill="black"/>
</svg>
