<svg xmlns="http://www.w3.org/2000/svg" viewBox="0 0 171 171"><g fill="#00B394" transform="scale(0.1,-0.1) translate(0,-1710)"><path d="M460 1467 c-14 -7 -30 -24 -37 -37 -6 -14 -41 -155 -76 -315 -36
-159 -94 -415 -128 -567 -61 -270 -62 -278 -44 -298 14 -15 31 -20 72 -20 60
0 87 11 103 40 25 46 175 771 245 1183 4 27 4 27 -53 27 -31 0 -68 -6 -82 -13z"/><path d="M690 1467 c0 -54 147 -796 215 -1086 33 -137 44 -151 121 -151 71 0
94 12 94 50 0 16 -25 141 -56 277 -185 828 -191 854 -200 878 -10 26 -60 45
-119 45 -38 0 -55 -4 -55 -13z"/><path d="M1390 1468 c-13 -7 -27 -24 -31 -38 -4 -14 -7 -273 -8 -577 -1 -546
2 -596 32 -615 22 -14 122 -9 145 8 l22 15 0 588 c0 477 -3 591 -14 606 -17
23 -110 32 -146 13z"/></g></svg>