<!--
    Copyright (C) CVAT.ai Corporation
    SPDX-License-Identifier: MIT
-->
<svg width="1em" height="1em" viewBox="0 0 20 20" fill="none" xmlns="http://www.w3.org/2000/svg">
    <path d="M10 1C5.03832 1 1 5.03832 1 10C1 14.9617 5.03832 19 10 19C14.9617 19 19 14.9617 19 10C19 5.03832 14.9617 1 10 1ZM10 2.5C14.151 2.5 17.5 5.84898 17.5 10C17.5 14.151 14.151 17.5 10 17.5C5.84898 17.5 2.5 14.151 2.5 10C2.5 5.84898 5.84898 2.5 10 2.5Z" fill="black"/>
    <path d="M5.5 7C5.08579 7 4.75 7.33579 4.75 7.75C4.75 8.16421 5.08579 8.5 5.5 8.5H14.5C14.9142 8.5 15.25 8.16421 15.25 7.75C15.25 7.33579 14.9142 7 14.5 7H5.5ZM7 10C6.58579 10 6.25 10.3358 6.25 10.75C6.25 11.1642 6.58579 11.5 7 11.5H13C13.4142 11.5 13.75 11.1642 13.75 10.75C13.75 10.3358 13.4142 10 13 10H7ZM8.5 13C8.08579 13 7.75 13.3358 7.75 13.75C7.75 14.1642 8.08579 14.5 8.5 14.5H11.5C11.9142 14.5 12.25 14.1642 12.25 13.75C12.25 13.3358 11.9142 13 11.5 13H8.5Z" fill="black"/>
</svg>
