<svg xmlns="http://www.w3.org/2000/svg" aria-hidden="true" fill="currentColor" height="1em" width="1em" viewBox="64 64 896 896">
    <g style="transform: scale(25)">
        <path d="M6.368 2.58a2.058 2.058 0 0 0-2.863 0L1.593 4.448a1.947 1.947 0 0 0-.003 2.795L14.58 20 1.59 32.757a1.947 1.947 0 0 0 .003 2.795l1.912 1.868c.79.773 2.072.773 2.863 0L22.76 21.4c.79-.773.79-2.025 0-2.798zm15.647 0a2.058 2.058 0 0 0-2.863 0L17.24 4.448a1.947 1.947 0 0 0-.003 2.795L30.227 20l-12.99 12.757a1.947 1.947 0 0 0 .003 2.795l1.912 1.868c.79.773 2.072.773 2.863 0L38.407 21.4c.79-.773.79-2.025 0-2.798z" fill-rule="nonzero"/>
    </g>
</svg>
