<svg width="12" height="14" viewBox="0 0 12 14" fill="none" xmlns="http://www.w3.org/2000/svg">
<path d="M4 0V1.33333H8V0H4ZM6 2C2.6817 2 0 4.6817 0 8C0 11.3183 2.6817 14 6 14C9.3183 14 12 11.3183 12 8C12 6.53428 11.4756 5.19341 10.6055 4.15234L11.6081 2.95833L10.5872 2.10026L9.63542 3.23177C8.62656 2.46203 7.36946 2 6 2ZM6 3.33333C8.60703 3.33333 10.6667 5.39297 10.6667 8C10.6667 10.607 8.60703 12.6667 6 12.6667C3.39297 12.6667 1.33333 10.607 1.33333 8C1.33333 5.39297 3.39297 3.33333 6 3.33333ZM5.33333 4.66667V6.84766C5.13099 6.96448 4.96289 7.13243 4.84589 7.33467C4.72888 7.53691 4.66708 7.76635 4.66667 8C4.66667 8.35362 4.80714 8.69276 5.05719 8.94281C5.30724 9.19286 5.64638 9.33333 6 9.33333C6.35362 9.33333 6.69276 9.19286 6.94281 8.94281C7.19286 8.69276 7.33333 8.35362 7.33333 8C7.33315 7.76613 7.27145 7.53642 7.15444 7.33393C7.03742 7.13144 6.8692 6.96329 6.66667 6.84635V4.66667H5.33333Z" fill="black"/>
</svg>
