<!--
    Copyright (C) CVAT.ai Corporation
    SPDX-License-Identifier: MIT
-->
<svg width="1em" height="1em" viewBox="0 0 19 18" fill="none" xmlns="http://www.w3.org/2000/svg">
    <path d="M2.47936 1.0003C2.37547 1.00033 2.2728 1.02263 2.17826 1.06572C2.08373 1.10881 1.99954 1.17168 1.93137 1.25008C1.8632 1.32849 1.81263 1.4206 1.78309 1.52022C1.75354 1.61983 1.7457 1.72462 1.76009 1.82752V6.09274C1.75873 6.18901 1.77651 6.28458 1.81241 6.37392C1.8483 6.46325 1.90158 6.54456 1.96917 6.61312C2.03675 6.68168 2.11728 6.73611 2.20609 6.77327C2.29489 6.81043 2.39019 6.82957 2.48645 6.82957C2.58271 6.82957 2.67801 6.81043 2.76681 6.77327C2.85561 6.73611 2.93615 6.68168 3.00373 6.61312C3.07131 6.54456 3.1246 6.46325 3.16049 6.37392C3.19638 6.28458 3.21417 6.18901 3.2128 6.09274V3.48764L6.6942 6.96962C6.76113 7.03935 6.8413 7.09501 6.93001 7.13336C7.01872 7.17171 7.11418 7.19196 7.21082 7.19295C7.30745 7.19393 7.40331 7.17562 7.49278 7.13909C7.58226 7.10255 7.66354 7.04853 7.73187 6.98018C7.80021 6.91184 7.85422 6.83054 7.89075 6.74106C7.92728 6.65157 7.94559 6.55569 7.9446 6.45904C7.94362 6.36239 7.92336 6.26691 7.88502 6.17818C7.84668 6.08946 7.79102 6.00928 7.72131 5.94234L4.23992 2.46035H6.84458C6.94083 2.46171 7.03639 2.44393 7.12571 2.40803C7.21503 2.37213 7.29632 2.31884 7.36487 2.25124C7.43341 2.18365 7.48784 2.1031 7.525 2.01428C7.56215 1.92547 7.58128 1.83015 7.58128 1.73387C7.58128 1.6376 7.56215 1.54228 7.525 1.45346C7.48784 1.36465 7.43341 1.2841 7.36487 1.21651C7.29632 1.14891 7.21503 1.09562 7.12571 1.05972C7.03639 1.02382 6.94083 1.00604 6.84458 1.0074H2.57157C2.54101 1.00308 2.51021 1.00071 2.47936 1.0003ZM16.9994 1.0003C16.9723 1.00116 16.9453 1.00353 16.9185 1.0074H12.6554C12.5592 1.00604 12.4636 1.02382 12.3743 1.05972C12.285 1.09562 12.2037 1.14891 12.1351 1.21651C12.0666 1.2841 12.0122 1.36465 11.975 1.45346C11.9379 1.54228 11.9187 1.6376 11.9187 1.73387C11.9187 1.83015 11.9379 1.92547 11.975 2.01428C12.0122 2.1031 12.0666 2.18365 12.1351 2.25124C12.2037 2.31884 12.285 2.37213 12.3743 2.40803C12.4636 2.44393 12.5592 2.46171 12.6554 2.46035H15.2601L11.7787 5.94234C11.709 6.00928 11.6533 6.08946 11.615 6.17818C11.5766 6.26691 11.5564 6.36239 11.5554 6.45904C11.5544 6.55569 11.5727 6.65157 11.6093 6.74106C11.6458 6.83054 11.6998 6.91184 11.7681 6.98018C11.8365 7.04853 11.9177 7.10255 12.0072 7.13909C12.0967 7.17562 12.1925 7.19393 12.2892 7.19295C12.3858 7.19196 12.4813 7.17171 12.57 7.13336C12.6587 7.09501 12.7389 7.03935 12.8058 6.96962L16.2872 3.48764V6.09274C16.2858 6.18901 16.3036 6.28458 16.3395 6.37392C16.3754 6.46325 16.4287 6.54456 16.4963 6.61312C16.5639 6.68168 16.6444 6.73611 16.7332 6.77327C16.822 6.81043 16.9173 6.82957 17.0136 6.82957C17.1098 6.82957 17.2051 6.81043 17.2939 6.77327C17.3827 6.73611 17.4632 6.68168 17.5308 6.61312C17.5984 6.54456 17.6517 6.46325 17.6876 6.37392C17.7235 6.28458 17.7413 6.18901 17.7399 6.09274V1.8261C17.7544 1.72151 17.7459 1.61502 17.715 1.51405C17.6841 1.41307 17.6316 1.32004 17.5611 1.24144C17.4906 1.16283 17.4038 1.10054 17.3068 1.05889C17.2098 1.01725 17.1049 0.997255 16.9994 1.0003ZM7.19357 10.8078C7.00486 10.8134 6.82576 10.8923 6.6942 11.0277L3.2128 14.5097V11.9046C3.21413 11.8074 3.19595 11.7109 3.15933 11.6209C3.12271 11.5308 3.0684 11.449 2.99961 11.3804C2.93082 11.3117 2.84896 11.2575 2.75886 11.2211C2.66877 11.1846 2.57228 11.1666 2.4751 11.1682C2.28271 11.1712 2.09937 11.2504 1.96532 11.3885C1.83127 11.5265 1.75746 11.7121 1.76009 11.9046V16.1528C1.74085 16.267 1.7492 16.3842 1.78446 16.4946C1.81972 16.6049 1.88085 16.7053 1.96277 16.7872C2.04468 16.8691 2.145 16.9303 2.25534 16.9655C2.36569 17.0008 2.48287 17.0092 2.5971 16.9899H6.84458C6.94083 16.9913 7.03639 16.9735 7.12571 16.9376C7.21503 16.9017 7.29632 16.8484 7.36487 16.7808C7.43341 16.7132 7.48784 16.6327 7.525 16.5438C7.56215 16.455 7.58128 16.3597 7.58128 16.2634C7.58128 16.1672 7.56215 16.0718 7.525 15.983C7.48784 15.8942 7.43341 15.8137 7.36487 15.7461C7.29632 15.6785 7.21503 15.6252 7.12571 15.5893C7.03639 15.5534 6.94083 15.5356 6.84458 15.5369H4.23992L7.72131 12.055C7.82627 11.9529 7.89796 11.8215 7.92699 11.6781C7.95601 11.5346 7.94102 11.3856 7.88397 11.2508C7.82692 11.116 7.73048 11.0016 7.60728 10.9225C7.48409 10.8434 7.33988 10.8034 7.19357 10.8078ZM12.2851 10.8078C12.1407 10.8078 11.9995 10.8509 11.8796 10.9316C11.7597 11.0124 11.6667 11.127 11.6123 11.2609C11.5579 11.3948 11.5447 11.5419 11.5744 11.6833C11.604 11.8248 11.6751 11.9542 11.7787 12.055L15.2601 15.5369H12.6554C12.5592 15.5356 12.4636 15.5534 12.3743 15.5893C12.285 15.6252 12.2037 15.6785 12.1351 15.7461C12.0666 15.8137 12.0122 15.8942 11.975 15.983C11.9379 16.0718 11.9187 16.1672 11.9187 16.2634C11.9187 16.3597 11.9379 16.455 11.975 16.5438C12.0122 16.6327 12.0666 16.7132 12.1351 16.7808C12.2037 16.8484 12.285 16.9017 12.3743 16.9376C12.4636 16.9735 12.5592 16.9913 12.6554 16.9899H16.9029C17.0171 17.0092 17.1343 17.0008 17.2447 16.9655C17.355 16.9303 17.4553 16.8691 17.5372 16.7872C17.6191 16.7053 17.6803 16.6049 17.7155 16.4946C17.7508 16.3842 17.7591 16.267 17.7399 16.1528V11.9046C17.7412 11.8074 17.7231 11.7109 17.6864 11.6209C17.6498 11.5308 17.5955 11.449 17.5267 11.3804C17.4579 11.3117 17.3761 11.2575 17.286 11.2211C17.1959 11.1846 17.0994 11.1666 17.0022 11.1682C16.8098 11.1712 16.6265 11.2504 16.4924 11.3885C16.3584 11.5265 16.2846 11.7121 16.2872 11.9046V14.5097L12.8058 11.0277C12.7381 10.9581 12.6572 10.9028 12.5677 10.865C12.4783 10.8272 12.3822 10.8078 12.2851 10.8078Z" fill="black"/>
</svg>
