<svg width="1em" height="1em" viewBox="0 0 256 206" fill="none" xmlns="http://www.w3.org/2000/svg">
<path d="M170.252 56.8185L192.505 34.5655L193.988 25.1955C153.437 -11.6775 88.9758 -7.49646 52.4198 33.9195C42.2668 45.4225 34.7338 59.7635 30.7168 74.5725L38.6868 73.4495L83.1918 66.1095L86.6278 62.5965C106.425 40.8545 139.898 37.9295 162.756 56.4285L170.252 56.8185V56.8185Z" fill="#EA4335"/>
<path d="M224.205 73.9183C219.09 55.0824 208.589 38.1491 193.988 25.1963L162.756 56.4283C169.265 61.7468 174.481 68.474 178.012 76.1023C181.542 83.7307 183.294 92.0612 183.135 100.465V106.009C198.485 106.009 210.932 118.454 210.932 133.805C210.932 149.157 198.486 161.29 183.135 161.29H127.464L121.998 167.224V200.564L127.464 205.795H183.134C223.064 206.106 255.687 174.301 255.998 134.371C256.091 122.455 253.237 110.701 247.69 100.154C242.143 89.607 234.076 80.5945 224.205 73.9183" fill="#4285F4"/>
<path d="M71.8701 205.796H127.463V161.29H71.8701C67.9348 161.289 64.0461 160.437 60.4711 158.792L52.5841 161.212L30.1751 183.465L28.2231 191.039C40.7901 200.528 56.1231 205.864 71.8701 205.796Z" fill="#34A853"/>
<path d="M71.8698 61.4253C31.9398 61.6643 -0.237176 94.2283 0.000823538 134.159C0.0664705 145.163 2.64282 156.006 7.53357 165.863C12.4243 175.72 19.5004 184.331 28.2228 191.039L60.4708 158.793C46.4808 152.471 40.2628 136.007 46.5838 122.017C52.9038 108.027 69.3698 101.809 83.3588 108.129C89.5236 110.915 94.461 115.852 97.2458 122.017L129.494 89.7693C122.725 80.9206 114.002 73.7576 104.005 68.8405C94.0087 63.9234 83.0102 61.3855 71.8698 61.4253" fill="#FBBC05"/>
</svg>
