<!--
    Copyright (C) CVAT.ai Corporation
    SPDX-License-Identifier: MIT
-->
<svg width="1em" height="1em" viewBox="0 0 16 16" fill="none" xmlns="http://www.w3.org/2000/svg">
    <path d="M2.18182 0C0.985476 0 0 0.985476 0 2.18182V13.8182C0 15.0145 0.985476 16 2.18182 16H11.2727C11.4656 16 11.6506 15.9233 11.7869 15.7869L15.7869 11.7869C15.9233 11.6506 16 11.4656 16 11.2727V2.18182C16 0.985476 15.0145 0 13.8182 0H2.18182ZM2.18182 1.45455H13.8182C14.2291 1.45455 14.5455 1.77089 14.5455 2.18182V10.9091H12.3636C11.56 10.9091 10.9091 11.56 10.9091 12.3636V14.5455H2.18182C1.77089 14.5455 1.45455 14.2291 1.45455 13.8182V2.18182C1.45455 1.77089 1.77089 1.45455 2.18182 1.45455ZM4.36364 5.09091C4.26726 5.08955 4.17158 5.10735 4.08215 5.14329C3.99272 5.17922 3.91132 5.23258 3.84269 5.30025C3.77406 5.36792 3.71956 5.44855 3.68236 5.53746C3.64516 5.62638 3.62601 5.7218 3.62601 5.81818C3.62601 5.91456 3.64516 6.00998 3.68236 6.0989C3.71956 6.18781 3.77406 6.26845 3.84269 6.33612C3.91132 6.40379 3.99272 6.45714 4.08215 6.49308C4.17158 6.52901 4.26726 6.54682 4.36364 6.54545H7.27273C7.3691 6.54682 7.46478 6.52901 7.55421 6.49308C7.64364 6.45714 7.72504 6.40379 7.79367 6.33612C7.86231 6.26845 7.91681 6.18781 7.954 6.0989C7.9912 6.00998 8.01036 5.91456 8.01036 5.81818C8.01036 5.7218 7.9912 5.62638 7.954 5.53746C7.91681 5.44855 7.86231 5.36792 7.79367 5.30025C7.72504 5.23258 7.64364 5.17922 7.55421 5.14329C7.46478 5.10735 7.3691 5.08955 7.27273 5.09091H4.36364ZM10.1818 5.09091C10.0854 5.08955 9.98976 5.10735 9.90033 5.14329C9.8109 5.17922 9.7295 5.23258 9.66087 5.30025C9.59224 5.36792 9.53774 5.44855 9.50054 5.53746C9.46334 5.62638 9.44419 5.7218 9.44419 5.81818C9.44419 5.91456 9.46334 6.00998 9.50054 6.0989C9.53774 6.18781 9.59224 6.26845 9.66087 6.33612C9.7295 6.40379 9.8109 6.45714 9.90033 6.49308C9.98976 6.52901 10.0854 6.54682 10.1818 6.54545H11.6364C11.7327 6.54682 11.8284 6.52901 11.9178 6.49308C12.0073 6.45714 12.0887 6.40379 12.1573 6.33612C12.2259 6.26845 12.2804 6.18781 12.3176 6.0989C12.3548 6.00998 12.374 5.91456 12.374 5.81818C12.374 5.7218 12.3548 5.62638 12.3176 5.53746C12.2804 5.44855 12.2259 5.36792 12.1573 5.30025C12.0887 5.23258 12.0073 5.17922 11.9178 5.14329C11.8284 5.10735 11.7327 5.08955 11.6364 5.09091H10.1818ZM4.36364 8C4.26726 7.99864 4.17158 8.01644 4.08215 8.05238C3.99272 8.08832 3.91132 8.14167 3.84269 8.20934C3.77406 8.27701 3.71956 8.35764 3.68236 8.44656C3.64516 8.53547 3.62601 8.63089 3.62601 8.72727C3.62601 8.82366 3.64516 8.91908 3.68236 9.00799C3.71956 9.0969 3.77406 9.17754 3.84269 9.24521C3.91132 9.31288 3.99272 9.36623 4.08215 9.40217C4.17158 9.4381 4.26726 9.45591 4.36364 9.45455H10.1818C10.2782 9.45591 10.3739 9.4381 10.4633 9.40217C10.5527 9.36623 10.6341 9.31288 10.7028 9.24521C10.7714 9.17754 10.8259 9.0969 10.8631 9.00799C10.9003 8.91908 10.9194 8.82366 10.9194 8.72727C10.9194 8.63089 10.9003 8.53547 10.8631 8.44656C10.8259 8.35764 10.7714 8.27701 10.7028 8.20934C10.6341 8.14167 10.5527 8.08832 10.4633 8.05238C10.3739 8.01644 10.2782 7.99864 10.1818 8H4.36364Z" fill="black"/>
</svg>
