<svg width="18" height="16" viewBox="0 0 18 16" fill="none" xmlns="http://www.w3.org/2000/svg">
<g clip-path="url(#clip0_812_15529)">
<path d="M8.94728 13.9091C12.4489 13.9091 15.2876 11.0803 15.2876 7.59091C15.2876 4.10147 12.4489 1.27273 8.94728 1.27273C5.4456 1.27273 2.60693 4.10147 2.60693 7.59091C2.60693 11.0803 5.4456 13.9091 8.94728 13.9091Z" fill="#FFD21E"/>
<path d="M15.2877 7.59091C15.2877 4.10147 12.449 1.27273 8.94738 1.27273C5.4457 1.27273 2.60703 4.10147 2.60703 7.59091C2.60703 11.0803 5.4457 13.9091 8.94738 13.9091C12.449 13.9091 15.2877 11.0803 15.2877 7.59091ZM1.8772 7.59091C1.8772 3.69982 5.04262 0.545456 8.94738 0.545456C12.8521 0.545456 16.0176 3.69982 16.0176 7.59091C16.0176 11.482 12.8521 14.6364 8.94738 14.6364C5.04262 14.6364 1.8772 11.482 1.8772 7.59091Z" fill="#FF9D0B"/>
<path d="M11.0074 5.87118C11.2399 5.953 11.3324 6.42937 11.5673 6.30489C12.0122 6.06918 12.1811 5.51873 11.9445 5.07542C11.708 4.63213 11.1556 4.46384 10.7107 4.69955C10.2659 4.93526 10.097 5.48571 10.3335 5.92902C10.4452 6.13826 10.7995 5.79804 11.0074 5.87118Z" fill="#3A3B45"/>
<path d="M6.70913 5.87118C6.47661 5.953 6.38411 6.42937 6.14921 6.30489C5.70435 6.06918 5.53547 5.51873 5.772 5.07542C6.00854 4.63213 6.56093 4.46384 7.00579 4.69955C7.45065 4.93526 7.61954 5.48571 7.383 5.92902C7.27135 6.13826 6.91699 5.79804 6.70913 5.87118Z" fill="#3A3B45"/>
<path d="M8.90171 10.2344C10.695 10.2344 11.2736 8.64111 11.2736 7.82294C11.2736 7.39772 10.9868 7.53156 10.5274 7.75822C10.1028 7.96767 9.53088 8.25638 8.90171 8.25638C7.59173 8.25638 6.52979 7.00478 6.52979 7.82294C6.52979 8.64111 7.10844 10.2344 8.90171 10.2344Z" fill="#3A3B45"/>
<mask id="mask0_812_15529" style="mask-type:alpha" maskUnits="userSpaceOnUse" x="6" y="7" width="6" height="4">
<path d="M8.90171 10.2344C10.695 10.2344 11.2736 8.64111 11.2736 7.82294C11.2736 7.39772 10.9868 7.53156 10.5274 7.75822C10.1028 7.96767 9.53088 8.25638 8.90171 8.25638C7.59173 8.25638 6.52979 7.00478 6.52979 7.82294C6.52979 8.64111 7.10844 10.2344 8.90171 10.2344Z" fill="white"/>
</mask>
<g mask="url(#mask0_812_15529)">
<path d="M8.94743 12.0909C9.82138 12.0909 10.5299 11.3849 10.5299 10.514C10.5299 9.83567 10.1 9.25738 9.49701 9.03482C9.4748 9.02662 9.45238 9.01891 9.42974 9.01169C9.27768 8.96325 9.11562 9.48405 8.94743 9.48405C8.79028 9.48405 8.63848 8.95994 8.49518 9.00245C7.84158 9.19634 7.36499 9.79971 7.36499 10.514C7.36499 11.3849 8.07347 12.0909 8.94743 12.0909Z" fill="#F94040"/>
</g>
<path d="M13.2351 6.72727C13.5626 6.72727 13.8281 6.46271 13.8281 6.13637C13.8281 5.81002 13.5626 5.54546 13.2351 5.54546C12.9076 5.54546 12.6421 5.81002 12.6421 6.13637C12.6421 6.46271 12.9076 6.72727 13.2351 6.72727Z" fill="#FF9D0B"/>
<path d="M4.75094 6.72727C5.07843 6.72727 5.34392 6.46271 5.34392 6.13637C5.34392 5.81002 5.07843 5.54546 4.75094 5.54546C4.42343 5.54546 4.15796 5.81002 4.15796 6.13637C4.15796 6.46271 4.42343 6.72727 4.75094 6.72727Z" fill="#FF9D0B"/>
<path d="M3.53053 8.72727C3.23514 8.72727 2.97112 8.84818 2.78702 9.06745C2.67317 9.20327 2.55421 9.42218 2.54454 9.75C2.42065 9.71454 2.30151 9.69473 2.19021 9.69473C1.9074 9.69473 1.65196 9.80273 1.47133 9.99891C1.23925 10.2507 1.13616 10.5602 1.18104 10.8698C1.20239 11.0173 1.25184 11.1495 1.32573 11.2718C1.16991 11.3975 1.05515 11.5724 0.999683 11.7827C0.956258 11.9476 0.911739 12.2911 1.14419 12.6449C1.12941 12.668 1.11554 12.692 1.10259 12.7165C0.962827 12.9809 0.953886 13.2796 1.07723 13.5578C1.26424 13.9795 1.72896 14.3116 2.63139 14.6682C3.19281 14.89 3.70642 15.0318 3.71098 15.0331C4.45321 15.2249 5.12447 15.3224 5.70559 15.3224C6.77369 15.3224 7.53836 14.9964 7.97845 14.3535C8.68674 13.3182 8.58548 12.3713 7.669 11.4585C7.16177 10.9535 6.82459 10.2087 6.75435 10.0453C6.61276 9.56127 6.23836 9.02327 5.61601 9.02327C5.56364 9.02327 5.51055 9.02745 5.45836 9.03564C5.18577 9.07836 4.94749 9.23473 4.77725 9.47C4.59352 9.24236 4.41508 9.06127 4.25361 8.95909C4.01021 8.80527 3.76699 8.72727 3.53053 8.72727ZM3.53053 9.45454C3.62358 9.45454 3.73725 9.494 3.8626 9.57327C4.25178 9.81927 5.00277 11.1056 5.27773 11.606C5.36987 11.7736 5.52733 11.8445 5.6691 11.8445C5.95045 11.8445 6.17012 11.5658 5.69483 11.2116C4.98015 10.6787 5.23084 9.80764 5.57203 9.754C5.58699 9.75164 5.60177 9.75054 5.61601 9.75054C5.92618 9.75054 6.06302 10.2833 6.06302 10.2833C6.06302 10.2833 6.46406 11.2869 7.15302 11.9729C7.84197 12.6591 7.87755 13.2098 7.37543 13.9436C7.03296 14.444 6.37739 14.5951 5.70559 14.5951C5.00879 14.5951 4.29448 14.4325 3.89417 14.3291C3.87446 14.324 1.43995 13.6387 1.7483 13.0555C1.80012 12.9575 1.88551 12.9182 1.99297 12.9182C2.42722 12.9182 3.21707 13.5622 3.55662 13.5622C3.63252 13.5622 3.68598 13.53 3.70788 13.4515C3.85257 12.9342 1.50801 12.7167 1.70561 11.9675C1.74045 11.8349 1.83497 11.7811 1.9678 11.7813C2.54162 11.7813 3.82903 12.7869 4.09888 12.7869C4.1195 12.7869 4.13428 12.7809 4.14231 12.7682C4.27751 12.5507 4.20343 12.3989 3.25046 11.8242C2.29749 11.2493 1.62861 10.9035 2.00903 10.4907C2.05282 10.4431 2.11485 10.422 2.19021 10.422C2.76878 10.4222 4.13574 11.6618 4.13574 11.6618C4.13574 11.6618 4.50466 12.0442 4.72781 12.0442C4.77908 12.0442 4.82269 12.024 4.85224 11.9742C5.01043 11.7084 3.38292 10.4793 3.29115 9.97218C3.22893 9.62854 3.33476 9.45454 3.53053 9.45454Z" fill="#FF9D0B"/>
<path d="M7.37549 13.9436C7.87761 13.2098 7.84203 12.6591 7.15308 11.9729C6.46413 11.2869 6.06309 10.2832 6.06309 10.2832C6.06309 10.2832 5.91329 9.70033 5.5721 9.75397C5.2309 9.8076 4.98039 10.6787 5.69507 11.2116C6.40975 11.7443 5.55276 12.1063 5.2778 11.606C5.00283 11.1056 4.25203 9.81924 3.86267 9.57324C3.47349 9.32724 3.19944 9.46506 3.29121 9.97215C3.38299 10.4792 5.01068 11.7083 4.85231 11.9743C4.69394 12.2401 4.1358 11.6618 4.1358 11.6618C4.1358 11.6618 2.38933 10.078 2.00909 10.4907C1.62885 10.9034 2.29756 11.2492 3.25053 11.8241C4.20368 12.3989 4.27757 12.5507 4.14237 12.7681C4.00699 12.9856 1.90326 11.2181 1.70566 11.9674C1.50824 12.7167 3.85263 12.9341 3.70794 13.4514C3.56326 13.9689 2.05652 12.4723 1.74836 13.0554C1.44 13.6387 3.87453 14.324 3.89423 14.3291C4.68062 14.5323 6.67778 14.9631 7.37549 13.9436Z" fill="#FFD21E"/>
<path d="M14.4554 8.72727C14.7508 8.72727 15.0148 8.84818 15.1989 9.06745C15.3128 9.20327 15.4318 9.42218 15.4414 9.75C15.5653 9.71454 15.6845 9.69473 15.7958 9.69473C16.0786 9.69473 16.334 9.80273 16.5146 9.99891C16.7467 10.2507 16.8498 10.5602 16.8049 10.8698C16.7836 11.0173 16.7341 11.1495 16.6602 11.2718C16.816 11.3975 16.9308 11.5724 16.9863 11.7827C17.0297 11.9476 17.0742 12.2911 16.8418 12.6449C16.8566 12.668 16.8704 12.692 16.8834 12.7165C17.0231 12.9809 17.0321 13.2796 16.9087 13.5578C16.7217 13.9795 16.257 14.3116 15.3546 14.6682C14.7932 14.89 14.2795 15.0318 14.275 15.0331C13.5327 15.2249 12.8615 15.3224 12.2804 15.3224C11.2123 15.3224 10.4476 14.9964 10.0075 14.3535C9.29922 13.3182 9.40048 12.3713 10.317 11.4585C10.8242 10.9535 11.1614 10.2087 11.2316 10.0453C11.3732 9.56127 11.7476 9.02327 12.37 9.02327C12.4223 9.02327 12.4754 9.02745 12.5276 9.03564C12.8002 9.07836 13.0385 9.23473 13.2087 9.47C13.3924 9.24236 13.5709 9.06127 13.7324 8.95909C13.9758 8.80527 14.219 8.72727 14.4554 8.72727ZM14.4554 9.45454C14.3624 9.45454 14.2487 9.494 14.1234 9.57327C13.7342 9.81927 12.9832 11.1056 12.7082 11.606C12.6161 11.7736 12.4586 11.8445 12.3169 11.8445C12.0355 11.8445 11.8158 11.5658 12.2911 11.2116C13.0058 10.6787 12.7551 9.80764 12.4139 9.754C12.399 9.75164 12.3842 9.75054 12.37 9.75054C12.0598 9.75054 11.9229 10.2833 11.9229 10.2833C11.9229 10.2833 11.5219 11.2869 10.8329 11.9729C10.144 12.6591 10.1084 13.2098 10.6105 13.9436C10.953 14.444 11.6086 14.5951 12.2804 14.5951C12.9772 14.5951 13.6915 14.4325 14.0918 14.3291C14.1115 14.324 16.546 13.6387 16.2377 13.0555C16.1858 12.9575 16.1005 12.9182 15.993 12.9182C15.5587 12.9182 14.7689 13.5622 14.4293 13.5622C14.3534 13.5622 14.3 13.53 14.2781 13.4515C14.1334 12.9342 16.478 12.7167 16.2804 11.9675C16.2455 11.8349 16.151 11.7811 16.0182 11.7813C15.4443 11.7813 14.1569 12.7869 13.8871 12.7869C13.8665 12.7869 13.8517 12.7809 13.8437 12.7682C13.7085 12.5507 13.7825 12.3989 14.7355 11.8242C15.6885 11.2493 16.3574 10.9035 15.9769 10.4907C15.9331 10.4431 15.8711 10.422 15.7958 10.422C15.2172 10.4222 13.8502 11.6618 13.8502 11.6618C13.8502 11.6618 13.4813 12.0442 13.2582 12.0442C13.2069 12.0442 13.1633 12.024 13.1337 11.9742C12.9755 11.7084 14.603 10.4793 14.6948 9.97218C14.757 9.62854 14.6512 9.45454 14.4554 9.45454Z" fill="#FF9D0B"/>
<path d="M10.6105 13.9436C10.1084 13.2098 10.1439 12.6591 10.8329 11.9729C11.5218 11.2869 11.9229 10.2832 11.9229 10.2832C11.9229 10.2832 12.0727 9.70033 12.4139 9.75397C12.7551 9.8076 13.0056 10.6787 12.2909 11.2116C11.5762 11.7443 12.4332 12.1063 12.7082 11.606C12.9831 11.1056 13.7339 9.81924 14.1233 9.57324C14.5125 9.32724 14.7865 9.46506 14.6948 9.97215C14.603 10.4792 12.9753 11.7083 13.1337 11.9743C13.292 12.2401 13.8502 11.6618 13.8502 11.6618C13.8502 11.6618 15.5966 10.078 15.9769 10.4907C16.3571 10.9034 15.6884 11.2492 14.7354 11.8241C13.7823 12.3989 13.7084 12.5507 13.8436 12.7681C13.979 12.9856 16.0827 11.2181 16.2803 11.9674C16.4777 12.7167 14.1333 12.9341 14.278 13.4514C14.4227 13.9689 15.9294 12.4723 16.2376 13.0554C16.546 13.6387 14.1114 14.324 14.0917 14.3291C13.3054 14.5323 11.3082 14.9631 10.6105 13.9436Z" fill="#FFD21E"/>
</g>
<defs>
<clipPath id="clip0_812_15529">
<rect width="17.3333" height="16" fill="white" transform="translate(0.333252)"/>
</clipPath>
</defs>
</svg>
