<svg width="36" height="32" viewBox="0 0 36 32" fill="none" xmlns="http://www.w3.org/2000/svg">
<path d="M17.8951 27.8182C24.8984 27.8182 30.5758 22.1607 30.5758 15.1818C30.5758 8.20295 24.8984 2.54546 17.8951 2.54546C10.8917 2.54546 5.21436 8.20295 5.21436 15.1818C5.21436 22.1607 10.8917 27.8182 17.8951 27.8182Z" fill="#FFD21E"/>
<path d="M30.5757 15.1818C30.5757 8.20295 24.8983 2.54546 17.895 2.54546C10.8916 2.54546 5.21431 8.20295 5.21431 15.1818C5.21431 22.1607 10.8916 27.8182 17.895 27.8182C24.8983 27.8182 30.5757 22.1607 30.5757 15.1818ZM3.75464 15.1818C3.75464 7.39964 10.0855 1.09091 17.895 1.09091C25.7045 1.09091 32.0354 7.39964 32.0354 15.1818C32.0354 22.964 25.7045 29.2727 17.895 29.2727C10.0855 29.2727 3.75464 22.964 3.75464 15.1818Z" fill="#FF9D0B"/>
<path d="M22.015 11.7424C22.48 11.906 22.6651 12.8587 23.1349 12.6098C24.0246 12.1384 24.3624 11.0375 23.8893 10.1508C23.4162 9.26425 22.3114 8.92767 21.4217 9.39909C20.532 9.87051 20.1942 10.9714 20.6673 11.858C20.8906 12.2765 21.5993 11.5961 22.015 11.7424Z" fill="#3A3B45"/>
<path d="M13.4188 11.7424C12.9537 11.906 12.7687 12.8587 12.2989 12.6098C11.4092 12.1384 11.0714 11.0375 11.5445 10.1508C12.0176 9.26425 13.1223 8.92767 14.0121 9.39909C14.9018 9.87051 15.2396 10.9714 14.7665 11.858C14.5432 12.2765 13.8345 11.5961 13.4188 11.7424Z" fill="#3A3B45"/>
<path d="M17.8037 20.4687C21.3902 20.4687 22.5475 17.2822 22.5475 15.6459C22.5475 14.7955 21.9739 15.0631 21.055 15.5164C20.2059 15.9353 19.062 16.5128 17.8037 16.5128C15.1837 16.5128 13.0598 14.0096 13.0598 15.6459C13.0598 17.2822 14.2171 20.4687 17.8037 20.4687Z" fill="#3A3B45"/>
<mask id="mask0_812_15529" style="mask-type:alpha" maskUnits="userSpaceOnUse" x="13" y="15" width="10" height="6">
<path d="M17.8037 20.4687C21.3902 20.4687 22.5475 17.2822 22.5475 15.6459C22.5475 14.7955 21.9739 15.0631 21.055 15.5164C20.2059 15.9353 19.062 16.5128 17.8037 16.5128C15.1837 16.5128 13.0598 14.0096 13.0598 15.6459C13.0598 17.2822 14.2171 20.4687 17.8037 20.4687Z" fill="white"/>
</mask>
<g mask="url(#mask0_812_15529)">
<path d="M17.8949 24.1818C19.6428 24.1818 21.0597 22.7698 21.0597 21.028C21.0597 19.6713 20.2001 18.5148 18.994 18.0696C18.9496 18.0532 18.9048 18.0378 18.8595 18.0234C18.5554 17.9265 18.2312 18.9681 17.8949 18.9681C17.5806 18.9681 17.277 17.9199 16.9904 18.0049C15.6832 18.3927 14.73 19.5994 14.73 21.028C14.73 22.7698 16.1469 24.1818 17.8949 24.1818Z" fill="#F94040"/>
</g>
<path d="M26.4704 13.4545C27.1254 13.4545 27.6564 12.9254 27.6564 12.2727C27.6564 11.62 27.1254 11.0909 26.4704 11.0909C25.8154 11.0909 25.2844 11.62 25.2844 12.2727C25.2844 12.9254 25.8154 13.4545 26.4704 13.4545Z" fill="#FF9D0B"/>
<path d="M9.50188 13.4545C10.1569 13.4545 10.6878 12.9254 10.6878 12.2727C10.6878 11.62 10.1569 11.0909 9.50188 11.0909C8.84687 11.0909 8.31592 11.62 8.31592 12.2727C8.31592 12.9254 8.84687 13.4545 9.50188 13.4545Z" fill="#FF9D0B"/>
<path d="M7.06131 17.4545C6.47051 17.4545 5.94249 17.6964 5.57429 18.1349C5.34658 18.4065 5.10866 18.8444 5.08932 19.5C4.84155 19.4291 4.60326 19.3895 4.38066 19.3895C3.81505 19.3895 3.30417 19.6055 2.94291 19.9978C2.47874 20.5015 2.27256 21.1204 2.36233 21.7396C2.40503 22.0345 2.50392 22.2989 2.65171 22.5436C2.34007 22.7949 2.11054 23.1447 1.99961 23.5655C1.91276 23.8953 1.82372 24.5822 2.28862 25.2898C2.25906 25.336 2.23133 25.384 2.20542 25.4331C1.9259 25.9618 1.90802 26.5593 2.1547 27.1156C2.52873 27.9589 3.45816 28.6233 5.26302 29.3364C6.38586 29.78 7.41308 30.0636 7.42221 30.0662C8.90667 30.4498 10.2492 30.6447 11.4114 30.6447C13.5476 30.6447 15.077 29.9927 15.9571 28.7069C17.3737 26.6364 17.1712 24.7425 15.3382 22.9171C14.3238 21.9069 13.6494 20.4175 13.5089 20.0905C13.2258 19.1225 12.477 18.0465 11.2323 18.0465C11.1275 18.0465 11.0213 18.0549 10.917 18.0713C10.3718 18.1567 9.89522 18.4695 9.55475 18.94C9.18729 18.4847 8.8304 18.1225 8.50745 17.9182C8.02066 17.6105 7.53423 17.4545 7.06131 17.4545ZM7.06131 18.9091C7.24741 18.9091 7.47475 18.988 7.72545 19.1465C8.50381 19.6385 10.0058 22.2113 10.5557 23.212C10.74 23.5473 11.0549 23.6891 11.3384 23.6891C11.9011 23.6891 12.3405 23.1316 11.3899 22.4233C9.96054 21.3575 10.4619 19.6153 11.1443 19.508C11.1742 19.5033 11.2038 19.5011 11.2323 19.5011C11.8526 19.5011 12.1263 20.5665 12.1263 20.5665C12.1263 20.5665 12.9284 22.5738 14.3063 23.9458C15.6842 25.3182 15.7553 26.4196 14.7511 27.8873C14.0662 28.888 12.755 29.1902 11.4114 29.1902C10.0178 29.1902 8.5892 28.8651 7.78858 28.6582C7.74917 28.648 2.88014 27.2775 3.49684 26.1109C3.60048 25.9149 3.77126 25.8364 3.98619 25.8364C4.85468 25.8364 6.43439 27.1244 7.11349 27.1244C7.26529 27.1244 7.37221 27.06 7.416 26.9029C7.70538 25.8684 3.01626 25.4335 3.41146 23.9349C3.48115 23.6698 3.67018 23.5622 3.93583 23.5625C5.08348 23.5625 7.6583 25.5738 8.19801 25.5738C8.23924 25.5738 8.2688 25.5618 8.28486 25.5364C8.55526 25.1015 8.4071 24.7978 6.50117 23.6484C4.59523 22.4985 3.25746 21.8069 4.0183 20.9815C4.10588 20.8862 4.22995 20.844 4.38066 20.844C5.5378 20.8444 8.27172 23.3236 8.27172 23.3236C8.27172 23.3236 9.00957 24.0884 9.45586 24.0884C9.5584 24.0884 9.64562 24.048 9.70473 23.9484C10.0211 23.4167 6.76609 20.9585 6.58254 19.9444C6.45811 19.2571 6.66976 18.9091 7.06131 18.9091Z" fill="#FF9D0B"/>
<path d="M14.7512 27.8872C15.7555 26.4196 15.6843 25.3181 14.3064 23.9457C12.9285 22.5737 12.1264 20.5665 12.1264 20.5665C12.1264 20.5665 11.8268 19.4007 11.1444 19.5079C10.4621 19.6152 9.96103 21.3574 11.3904 22.4232C12.8198 23.4887 11.1058 24.2127 10.5558 23.2119C10.0059 22.2112 8.5043 19.6385 7.72558 19.1465C6.94722 18.6545 6.39912 18.9301 6.58267 19.9443C6.76622 20.9585 10.0216 23.4167 9.70486 23.9487C9.38812 24.4803 8.27185 23.3236 8.27185 23.3236C8.27185 23.3236 4.77891 20.1559 4.01841 20.9814C3.25794 21.8068 4.59536 22.4985 6.5013 23.6483C8.4076 24.7977 8.55539 25.1014 8.28499 25.5363C8.01422 25.9712 3.80677 22.4363 3.41157 23.9348C3.01673 25.4334 7.70551 25.8683 7.41613 26.9028C7.12675 27.9377 4.11329 24.9447 3.49695 26.1108C2.88025 27.2774 7.7493 28.6479 7.78871 28.6581C9.36148 29.0647 13.3558 29.9261 14.7512 27.8872Z" fill="#FFD21E"/>
<path d="M28.9109 17.4545C29.5017 17.4545 30.0297 17.6964 30.3979 18.1349C30.6256 18.4065 30.8635 18.8444 30.8828 19.5C31.1306 19.4291 31.3689 19.3895 31.5915 19.3895C32.1571 19.3895 32.668 19.6055 33.0293 19.9978C33.4934 20.5015 33.6996 21.1204 33.6098 21.7396C33.5671 22.0345 33.4682 22.2989 33.3205 22.5436C33.6321 22.7949 33.8616 23.1447 33.9726 23.5655C34.0594 23.8953 34.1484 24.5822 33.6835 25.2898C33.7131 25.336 33.7408 25.384 33.7667 25.4331C34.0463 25.9618 34.0641 26.5593 33.8175 27.1156C33.4434 27.9589 32.514 28.6233 30.7091 29.3364C29.5863 29.78 28.5591 30.0636 28.55 30.0662C27.0655 30.4498 25.723 30.6447 24.5607 30.6447C22.4245 30.6447 20.8952 29.9927 20.015 28.7069C18.5984 26.6364 18.801 24.7425 20.6339 22.9171C21.6484 21.9069 22.3227 20.4175 22.4632 20.0905C22.7464 19.1225 23.4952 18.0465 24.7399 18.0465C24.8446 18.0465 24.9508 18.0549 25.0552 18.0713C25.6004 18.1567 26.077 18.4695 26.4174 18.94C26.7849 18.4847 27.1418 18.1225 27.4647 17.9182C27.9515 17.6105 28.4379 17.4545 28.9109 17.4545ZM28.9109 18.9091C28.7248 18.9091 28.4974 18.988 28.2467 19.1465C27.4684 19.6385 25.9664 22.2113 25.4165 23.212C25.2322 23.5473 24.9173 23.6891 24.6337 23.6891C24.071 23.6891 23.6317 23.1316 24.5823 22.4233C26.0116 21.3575 25.5102 19.6153 24.8279 19.508C24.7979 19.5033 24.7684 19.5011 24.7399 19.5011C24.1196 19.5011 23.8459 20.5665 23.8459 20.5665C23.8459 20.5665 23.0438 22.5738 21.6659 23.9458C20.288 25.3182 20.2168 26.4196 21.2211 27.8873C21.906 28.888 23.2171 29.1902 24.5607 29.1902C25.9543 29.1902 27.383 28.8651 28.1836 28.6582C28.223 28.648 33.092 27.2775 32.4753 26.1109C32.3717 25.9149 32.2009 25.8364 31.986 25.8364C31.1175 25.8364 29.5378 27.1244 28.8587 27.1244C28.7069 27.1244 28.6 27.06 28.5562 26.9029C28.2668 25.8684 32.9559 25.4335 32.5607 23.9349C32.491 23.6698 32.302 23.5622 32.0363 23.5625C30.8887 23.5625 28.3139 25.5738 27.7742 25.5738C27.7329 25.5738 27.7034 25.5618 27.6873 25.5364C27.4169 25.1015 27.5651 24.7978 29.471 23.6484C31.3769 22.4985 32.7147 21.8069 31.9539 20.9815C31.8663 20.8862 31.7422 20.844 31.5915 20.844C30.4344 20.8444 27.7004 23.3236 27.7004 23.3236C27.7004 23.3236 26.9626 24.0884 26.5163 24.0884C26.4138 24.0884 26.3265 24.048 26.2674 23.9484C25.9511 23.4167 29.2061 20.9585 29.3896 19.9444C29.5141 19.2571 29.3024 18.9091 28.9109 18.9091Z" fill="#FF9D0B"/>
<path d="M21.2212 27.8872C20.217 26.4196 20.2881 25.3181 21.666 23.9457C23.0439 22.5737 23.846 20.5665 23.846 20.5665C23.846 20.5665 24.1456 19.4007 24.828 19.5079C25.5104 19.6152 26.0114 21.3574 24.582 22.4232C23.1527 23.4887 24.8667 24.2127 25.4166 23.2119C25.9665 22.2112 27.4681 19.6385 28.2469 19.1465C29.0252 18.6545 29.5733 18.9301 29.3898 19.9443C29.2062 20.9585 25.9508 23.4167 26.2676 23.9487C26.5843 24.4803 27.7006 23.3236 27.7006 23.3236C27.7006 23.3236 31.1935 20.1559 31.954 20.9814C32.7145 21.8068 31.3771 22.4985 29.4711 23.6483C27.5648 24.7977 27.417 25.1014 27.6874 25.5363C27.9582 25.9712 32.1656 22.4363 32.5608 23.9348C32.9557 25.4334 28.2669 25.8683 28.5563 26.9028C28.8457 27.9377 31.8591 24.9447 32.4755 26.1108C33.0922 27.2774 28.2231 28.6479 28.1837 28.6581C26.611 29.0647 22.6166 29.9261 21.2212 27.8872Z" fill="#FFD21E"/>
</svg>
