<!--
    Copyright (C) 2023 CVAT.ai Corporation
    SPDX-License-Identifier: MIT
-->
<svg width="1em" height="1em" viewBox="0 0 19 18" fill="none" xmlns="http://www.w3.org/2000/svg">
    <g clip-path="url(#clip0_1474_17299)">
        <path d="M7.60441 4.00113C7.42763 4.02066 7.26422 4.10178 7.14092 4.22947L6.52884 4.84841C6.23582 5.14472 6.23582 5.62165 6.52884 5.91795V5.91795C6.82652 6.21897 7.3127 6.21897 7.61038 5.91795L7.71731 5.80982C7.88843 5.63679 8.12166 5.53941 8.36502 5.53941H10.372C10.6391 5.53941 10.8952 5.64631 11.083 5.83626L11.1898 5.94425C11.3749 6.13146 11.4788 6.38412 11.4788 6.6474V7.52158C11.4788 7.89809 11.2673 8.24268 10.9316 8.41318L8.85229 9.46926C8.59677 9.59995 8.43633 9.86435 8.43633 10.1543V10.932C8.43633 11.352 8.77687 11.6926 9.19694 11.6926H9.30218C9.66413 11.6926 9.95756 11.3991 9.95756 11.0372V11.0372C9.95756 10.7904 10.0961 10.5646 10.3162 10.4529L12.584 9.30101C12.8396 9.17032 13 8.90592 13 8.61599V5.92399C12.9985 5.72119 12.9168 5.52589 12.7742 5.38318L11.6333 4.22947C11.4921 4.08525 11.299 4.00263 11.0985 4.00113H7.67572C7.65195 3.99962 7.62818 3.99962 7.60441 4.00113ZM9.19694 12.4617C8.77687 12.4617 8.43633 12.8022 8.43633 13.2223V13.2394C8.43633 13.6595 8.77687 14 9.19694 14V14C9.61702 14 9.95756 13.6595 9.95756 13.2394V13.2223C9.95756 12.8022 9.61702 12.4617 9.19694 12.4617V12.4617Z" fill="black"/>
        <path d="M9.25 0C4.28832 0 0.25 4.03832 0.25 9C0.25 13.9617 4.28832 18 9.25 18C14.2117 18 18.25 13.9617 18.25 9C18.25 4.03832 14.2117 0 9.25 0ZM9.25 1.5C13.401 1.5 16.75 4.84898 16.75 9C16.75 13.151 13.401 16.5 9.25 16.5C5.09898 16.5 1.75 13.151 1.75 9C1.75 4.84898 5.09898 1.5 9.25 1.5Z" fill="black"/>
    </g>
    <defs>
        <clipPath id="clip0_1474_17299">
            <rect width="18" height="18" fill="white" transform="translate(0.25)"/>
        </clipPath>
    </defs>
</svg>
