<!--
    Copyright (C) CVAT.ai Corporation
    SPDX-License-Identifier: MIT
-->

<svg width="1em" height="1em" viewBox="0 0 24 24" fill="none" xmlns="http://www.w3.org/2000/svg">
  <path d="M9 14V5C9 3.9 9.9 3 11 3C12.1 3 13 3.9 13 5V12" stroke="black" stroke-width="1.2" stroke-linecap="round" stroke-linejoin="round"/>
  <path d="M13 11V8C13 6.9 13.9 6 15 6C16.1 6 17 6.9 17 8V12" stroke="black" stroke-width="1.2" stroke-linecap="round" stroke-linejoin="round"/>
  <path d="M17 12V10C17 8.9 17.9 8 19 8C20.1 8 21 8.9 21 10V16C21 19.3 18.3 22 15 22H12.1C10.6 22 9.1 21.3 8.1 20.1L4 15.2C3.3 14.3 3.4 13.1 4.2 12.3C5 11.5 6.3 11.5 7.1 12.3L9 14.2" stroke="black" stroke-width="1.2" stroke-linecap="round" stroke-linejoin="round"/>
</svg>
