<svg width="40px" height="40px" viewBox="0 0 24 24" fill="none" xmlns="http://www.w3.org/2000/svg">
  <path d="M12 1.93945L8.46973 5.46973L9.53027 6.53027L11.25 4.81055V9H12.75V4.81055L14.4697 6.53027L15.5303 5.46973L12 1.93945ZM5.46973 8.46973L1.93945 12L5.46973 15.5303L6.53027 14.4697L4.81055 12.75H9.75V11.25H4.81055L6.53027 9.53027L5.46973 8.46973ZM18.5303 8.46973L17.4697 9.53027L19.1895 11.25H14.25V12.75H19.1895L17.4697 14.4697L18.5303 15.5303L22.0605 12L18.5303 8.46973ZM11.25 14.25V19.1895L9.53027 17.4697L8.46973 18.5303L12 22.0605L15.5303 18.5303L14.4697 17.4697L12.75 19.1895V14.25H11.25Z" fill="black" />
</svg>
