<svg width="40" height="40" xmlns="http://www.w3.org/2000/svg"><path d="M36.918 19.593a1.05 1.05 0 0 0-.231-.346l-3.633-3.633a1.064 1.064 0 1 0-1.505 1.505l1.817 1.816H21.062l.001-12.301L22.96 8.53a1.062 1.062 0 0 0 1.505 0 1.064 1.064 0 0 0 0-1.505L20.752 3.31a1.063 1.063 0 0 0-1.16-.23c-.13.054-.246.13-.343.228l-.002.001-3.636 3.634a1.066 1.066 0 0 0 .753 1.818c.272 0 .545-.105.753-.312l1.818-1.817-.001 12.302H6.635l1.816-1.816a1.065 1.065 0 0 0-1.506-1.505l-3.633 3.634a1.059 1.059 0 0 0 0 1.505l3.713 3.713a1.059 1.059 0 0 0 1.506 0 1.065 1.065 0 0 0 0-1.505l-1.898-1.897h12.3v12.3l-1.816-1.815a1.066 1.066 0 0 0-1.506 1.506l3.636 3.633a1.059 1.059 0 0 0 1.504 0l3.714-3.714a1.064 1.064 0 1 0-1.506-1.505l-1.897 1.898V21.064h12.304l-1.896 1.897a1.065 1.065 0 0 0 1.505 1.505l3.713-3.713c.002-.003.003-.007.007-.01a1.064 1.064 0 0 0 .223-1.15z" fill="#000" fill-rule="evenodd"/></svg>