<!-- The icon received from: https://github.com/Templarian/MaterialDesign/blob/master/svg/plus-circle-multiple-outline.svg  -->
<!-- License: Apache 2.0  -->
<svg width="20" height="15" viewBox="0 0 20 15" fill="currentColor" xmlns="http://www.w3.org/2000/svg">
<path d="M11.6667 10.8333H13.3333V8.33333H15.8333V6.66667H13.3333V4.16667H11.6667V6.66667H9.16667V8.33333H11.6667V10.8333ZM5 14.5833C3.48611 14.0556 2.27444 13.1422 1.365 11.8433C0.455 10.545 0 9.09722 0 7.5C0 5.90278 0.455 4.45472 1.365 3.15583C2.27444 1.8575 3.48611 0.944444 5 0.416667V2.25C3.97222 2.73611 3.15972 3.45139 2.5625 4.39583C1.96528 5.34028 1.66667 6.375 1.66667 7.5C1.66667 8.625 1.96528 9.65972 2.5625 10.6042C3.15972 11.5486 3.97222 12.2639 5 12.75V14.5833ZM12.5 15C11.4583 15 10.4828 14.8022 9.57333 14.4067C8.66333 14.0106 7.87167 13.4756 7.19833 12.8017C6.52444 12.1283 5.98972 11.3367 5.59417 10.4267C5.19805 9.51722 5 8.54167 5 7.5C5 6.45833 5.19805 5.4825 5.59417 4.5725C5.98972 3.66306 6.52444 2.87139 7.19833 2.1975C7.87167 1.52417 8.66333 0.989444 9.57333 0.593333C10.4828 0.197778 11.4583 0 12.5 0C13.5417 0 14.5175 0.197778 15.4275 0.593333C16.3369 0.989444 17.1286 1.52417 17.8025 2.1975C18.4758 2.87139 19.0106 3.66306 19.4067 4.5725C19.8022 5.4825 20 6.45833 20 7.5C20 8.54167 19.8022 9.51722 19.4067 10.4267C19.0106 11.3367 18.4758 12.1283 17.8025 12.8017C17.1286 13.4756 16.3369 14.0106 15.4275 14.4067C14.5175 14.8022 13.5417 15 12.5 15ZM12.5 13.3333C14.125 13.3333 15.5033 12.7672 16.635 11.635C17.7672 10.5033 18.3333 9.125 18.3333 7.5C18.3333 5.875 17.7672 4.49639 16.635 3.36417C15.5033 2.2325 14.125 1.66667 12.5 1.66667C10.875 1.66667 9.49667 2.2325 8.365 3.36417C7.23278 4.49639 6.66667 5.875 6.66667 7.5C6.66667 9.125 7.23278 10.5033 8.365 11.635C9.49667 12.7672 10.875 13.3333 12.5 13.3333Z" />
</svg>
