<svg width="40" height="40" xmlns="http://www.w3.org/2000/svg"><path d="M20 28.656c-4.267 0-7.72-3.325-8.038-7.54l-5.9-4.591c-.777.98-1.49 2.016-2.066 3.149a1.844 1.844 0 0 0 0 1.653C7.046 27.32 13.085 31.375 20 31.375c1.514 0 2.974-.227 4.381-.593l-2.919-2.274a8.053 8.053 0 0 1-1.462.148zm17.652 3.291l-6.218-4.84a18.74 18.74 0 0 0 4.57-5.78 1.844 1.844 0 0 0 0-1.654C32.954 13.68 26.914 9.625 20 9.625a17.24 17.24 0 0 0-8.287 2.135L4.557 6.191a.896.896 0 0 0-1.263.16L2.189 7.78a.91.91 0 0 0 .159 1.272l33.095 25.756a.896.896 0 0 0 1.263-.16l1.105-1.43a.91.91 0 0 0-.159-1.272zm-10.334-8.043l-2.21-1.72a5.38 5.38 0 0 0-1.812-6.027 5.3 5.3 0 0 0-4.72-.88c.34.463.523 1.023.524 1.598a2.659 2.659 0 0 1-.087.566l-4.14-3.222A7.972 7.972 0 0 1 20 12.344a8.067 8.067 0 0 1 5.729 2.387 8.18 8.18 0 0 1 2.37 5.769c0 1.225-.297 2.367-.781 3.405z" fill="#000" fill-rule="nonzero"/></svg>