<!-- 
    The file has been downloaded from: https://icon-icons.com/ru/%D0%B7%D0%BD%D0%B0%D1%87%D0%BE%D0%BA/%D0%92-%D1%84%D0%BE%D1%80%D0%BC%D0%B0%D1%82%D0%B5-OpenCV/132129 
    License:  Attribution 4.0 International (CC BY 4.0) https://creativecommons.org/licenses/by/4.0/
    The file has been modified
-->
<svg version="1.1" xmlns="http://www.w3.org/2000/svg" width="40" height="40">
<g style="transform: scale(0.078)">
	<path d="M148.6458282,81.0641403C191.8570709-0.3458452,307.612915-4.617764,356.5062561,73.3931732c37.8880615,60.4514771,13.7960815,135.4847717-41.8233948,167.7876129l-36.121521-62.5643005c22.1270447-12.8510284,31.7114563-42.7013397,16.6385498-66.750618c-19.4511414-31.034935-65.5021057-29.3354645-82.692749,3.0517044c-12.7206879,23.9658356-2.6391449,51.5502472,18.3088379,63.7294922l-36.1482544,62.6105804C142.0118256,210.643219,116.6704254,141.3057709,148.6458282,81.0641403z M167.9667206,374.4708557c-0.0435791,24.2778625-18.934967,46.8978271-46.092804,47.9000549c-36.6418304,1.3522339-61.0877724-37.6520386-43.8971252-70.0392151c13.2918015-25.0418091,43.8297424-31.7192383,65.9928284-19.1222839l36.2165222-62.7288513c-55.7241974-31.7991638-132.6246796-15.0146027-166.0706635,47.9976501c-43.2111893,81.4099731,18.2372913,179.4530945,110.3418884,176.0540161c68.1375427-2.5146179,115.5750122-59.1652527,115.8612366-120.0613708H167.9667206z M451.714386,270.7571411l-36.1215515,62.5642395c22.2027588,12.816864,31.8418274,42.7249451,16.744751,66.8127441c-19.4511414,31.0349426-65.5021057,29.3354797-82.692688-3.0516968c-12.742218-24.0063782-2.6048279-51.643219,18.4154358-63.7908325l-36.1482544-62.6105652c-52.7280579,30.5827942-78.1254272,99.9726562-46.128479,160.2548218c43.2111816,81.4099731,158.9670105,85.6818848,207.8603821,7.6710205C531.5561523,378.1168213,507.4096069,303.0259705,451.714386,270.7571411z"/>
</g>
</svg>
