<svg xmlns="http://www.w3.org/2000/svg" aria-hidden="true" fill="currentColor" height="1em" width="1em" viewBox="64 64 896 896">
    <g style="transform: scale(25)">
        <g transform="scale(0.07812)" transform-origin="bottom">
            <path d="m201.350937,473.371796l0,-434.86451c0,-8.10006 -6.528412,-14.628468 -14.749344,-14.628468l-86.561874,0c-8.220955,0 -14.749359,6.528408 -14.749359,14.628468l0,434.86454c0,8.100037 6.528404,14.749359 14.749359,14.749359l86.561874,0c8.220932,0 14.749344,-6.528412 14.749344,-14.74939z" />
            <path d="m423.967224,473.371796l0,-434.86451c0,-8.10006 -6.528381,-14.628468 -14.749329,-14.628468l-86.56189,0c-8.220947,0 -14.749329,6.528408 -14.749329,14.628468l0,434.86454c0,8.100037 6.528381,14.749359 14.749329,14.749359l86.56189,0c8.220947,0 14.749329,-6.528412 14.749329,-14.74939z" />
        </g>
    </g>
</svg>
