<svg width="24px" height="25px" viewBox="0 0 24 25" fill="none" xmlns="http://www.w3.org/2000/svg">
  <g clip-path="url(#clip0_402_12031)">
    <path d="M18 1C14.6916 1 12 3.6916 12 7C12 10.3084 14.6916 13 18 13C21.3084 13 24 10.3084 24 7C24 3.6916 21.3084 1 18 1ZM20.55 7.45H18.45V9.55C18.45 9.7987 18.2487 10 18 10C17.7513 10 17.55 9.7987 17.55 9.55V7.45H15.45C15.2013 7.45 15 7.2487 15 7C15 6.7513 15.2013 6.55 15.45 6.55H17.55V4.45C17.55 4.2013 17.7513 4 18 4C18.2487 4 18.45 4.2013 18.45 4.45V6.55H20.55C20.7987 6.55 21 6.7513 21 7C21 7.2487 20.7987 7.45 20.55 7.45Z" fill="black" />
    <path fill-rule="evenodd" clip-rule="evenodd" d="M11.37 4.74853L9.83243 3.63143C9.7201 3.54995 9.5858 3.50425 9.44709 3.50028C9.29488 3.49591 9.1455 3.54202 9.02223 3.63143L0.284204 9.98015C0.166471 10.0657 0.0788289 10.1864 0.033816 10.3248C-0.0111969 10.4632 -0.0112737 10.6124 0.0335966 10.7508L3.37054 21.023C3.41554 21.1617 3.50333 21.2826 3.62129 21.3683C3.73926 21.454 3.88134 21.5001 4.02715 21.5H14.8275C14.9733 21.5001 15.1154 21.454 15.2334 21.3683C15.3513 21.2826 15.4391 21.1617 15.4841 21.023L17.7668 13.9962C17.2897 13.9806 16.8247 13.9172 16.3764 13.8107L14.3263 20.1203H4.52836L1.50041 10.8011L9.42733 5.04255L11.0434 6.21653C11.0999 5.70882 11.2107 5.21751 11.37 4.74853Z" fill="black" />
  </g>
  <defs>
    <clipPath id="clip0_402_12031">
      <rect width="24" height="24" fill="white" transform="translate(0 0.75)" />
    </clipPath>
  </defs>
</svg>
