<svg xmlns="http://www.w3.org/2000/svg" aria-hidden="true" fill="currentColor" height="1em" width="1em" viewBox="64 64 896 896">
    <path d="M239.825 534.975l409.8 400.525c19.75 19.325 51.825 19.325 71.575 0l47.8-46.7c19.75-19.3 19.75-50.55.075-69.875L444.325 500l324.75-318.925A48.675 48.675 0 00769 111.2l-47.8-46.7a51.45 51.45 0 00-71.575 0L239.825 465a48.675 48.675 0 000 69.95z"></path><path d="M118.573 908.837l-39.65 54.473c-7.837 10.774-5.464 25.855 5.307 33.693a24.054 24.054 0 0014.174 4.62c7.461 0 14.807-3.442 19.526-9.92l39.963-54.905c26.238 13.988 56.162 21.948 87.925 21.948 103.429 0 187.572-84.147 187.572-187.579 0-52.73-21.899-100.409-57.034-134.52l49.744-68.34c7.838-10.775 5.462-25.853-5.303-33.694-10.8-7.844-25.872-5.448-33.69 5.307l-49.374 67.835c-27.195-15.362-58.539-24.166-91.925-24.166-103.432 0-187.579 84.146-187.579 187.575 0 54.374 23.265 103.386 60.344 137.673zm266.578-137.673c0 76.837-62.502 139.346-139.346 139.346-21.143 0-41.122-4.874-59.087-13.329l160.806-220.938c23.268 24.908 37.627 58.238 37.627 94.921zm-139.343-139.34c22.773 0 44.23 5.604 63.225 15.333L147.19 869.514c-25.156-25.222-40.735-59.997-40.735-98.343.01-76.838 62.515-139.346 139.352-139.346z"></path>
</svg>
