<svg version="1.1" width="1em" height="1em" viewBox="0 0 40 40" fill="none" xmlns="http://www.w3.org/2000/svg">
  <g transform="scale(1.6666667)">
    <path
      d="M9.4 10.2C7.7 6.6 7.1 2.9 8.6 2.2C10 1.5 11.5 5 11.8 8.6C12.9 5 15.1 1.6 16.6 2.4C18.1 3.2 16.7 6.9 14.9 10.2C17.5 11.1 19 13.2 19 15.8C19 19.1 15.9 21.5 12 21.5C8.1 21.5 5 19.1 5 15.8C5 13.2 6.6 11.1 9.4 10.2Z"
      fill="white"
      stroke="black"
      stroke-width="1.5"
      stroke-linecap="round"
      stroke-linejoin="round"
    />
    <circle cx="9.6" cy="14.6" r="0.9" fill="black"/>
    <circle cx="14.4" cy="14.6" r="0.9" fill="black"/>
    <path
      d="M11.5 17.3C11.8 17.6 12.2 17.6 12.5 17.3"
      stroke="black"
      stroke-width="1.3"
      stroke-linecap="round"
    />
  </g>
</svg>