<svg width="1em" height="1em" viewBox="0 0 256 256" fill="none" xmlns="http://www.w3.org/2000/svg">
<path fill-rule="evenodd" clip-rule="evenodd" d="M213 32L240 64H220V192H240L212.5 224L185 192H205V64H185L213 32Z" fill="black"/>
<path d="M32 64L33.1578 56.5899L24.5 55.2371V64H32ZM32 192H24.5V200.628L33.0444 199.427L32 192ZM160 174L161.044 181.427L167.5 180.519V174H160ZM160 84H167.5V77.5809L161.158 76.5899L160 84ZM24.5 64V192H39.5V64H24.5ZM33.0444 199.427L161.044 181.427L158.956 166.573L30.9556 184.573L33.0444 199.427ZM161.158 76.5899L33.1578 56.5899L30.8422 71.4101L158.842 91.4101L161.158 76.5899ZM167.5 174V84H152.5V174H167.5Z" fill="black"/>
</svg>
