<svg width="1em" height="1em" viewBox="0 0 36 36" fill="none" xmlns="http://www.w3.org/2000/svg">
<g clip-path="url(#clip0_13739_233)">
<path d="M17.8932 3.56123C18.0449 3.2359 17.4359 3.34796 17.8932 3.56123L28.9631 8.72321C29.4205 8.93648 29.1148 8.39788 28.9631 8.72321L27.7406 11.345L30.3624 12.5676L31.7208 9.65447C32.3202 8.36905 31.7624 6.83663 30.477 6.23723L18.8245 0.803565C17.5391 0.204164 16.0067 0.761919 15.4073 2.04734L14.0488 4.96047L16.6707 6.18305L17.8932 3.56123ZM35.0234 14.7411L9.38783 2.787C8.7433 2.48646 7.97976 2.76436 7.67921 3.40889L7.13584 4.57414C7.06113 4.73437 7.13109 4.92659 7.29131 5.0013C17.7574 9.88172 32.5151 16.7633 34.6748 17.7704C34.835 17.8451 35.0272 17.7752 35.1019 17.6149L35.6453 16.4497C35.9458 15.8052 35.6679 15.0416 35.0234 14.7411Z" fill="black" fill-opacity="0.65"/>
<path d="M5.31897 17L6.3114 31.6168C6.37569 32.9869 7.50882 34.0677 8.87891 34.0677H27.1199C28.494 34.0677 29.6231 32.9909 29.6874 31.6168L30.6797 17H5.31897ZM26.8105 31.1748H9.18823L8.21594 17H27.7828L26.8105 31.1748Z" fill="black" fill-opacity="0.65"/>
<path d="M15.3406 14.272C12.8752 11.0314 9.20844 9.3291 5.49785 9.3098L5.49159 7.25027C5.49159 7.0411 5.25381 6.92525 5.09738 7.05397L1.09269 10.3042C0.967544 10.4039 0.970673 10.597 1.09269 10.7L5.10051 13.9534C5.26007 14.0821 5.49785 13.9663 5.49472 13.7571V11.7008C5.89831 11.704 6.30504 11.7297 6.70864 11.7812C8.0258 11.9486 9.27727 12.3669 10.4317 13.0266C11.6238 13.7088 12.6594 14.6259 13.5103 15.7394C14.3582 16.856 14.9714 18.111 15.3281 19.4658H17.7157C17.3279 17.6312 16.5409 15.8536 15.3406 14.272Z" fill="black" fill-opacity="0.65"/>
</g>
<defs>
<clipPath id="clip0_13739_233">
<rect width="36" height="36" fill="white"/>
</clipPath>
</defs>
</svg>
