<?xml version="1.0" encoding="UTF-8" standalone="no"?>
<svg
   xmlns:dc="http://purl.org/dc/elements/1.1/"
   xmlns:cc="http://creativecommons.org/ns#"
   xmlns:rdf="http://www.w3.org/1999/02/22-rdf-syntax-ns#"
   xmlns:svg="http://www.w3.org/2000/svg"
   xmlns="http://www.w3.org/2000/svg"
   xmlns:sodipodi="http://sodipodi.sourceforge.net/DTD/sodipodi-0.dtd"
   xmlns:inkscape="http://www.inkscape.org/namespaces/inkscape"
   width="40"
   height="40"
   viewBox="0 0 10.583333 10.583333"
   version="1.1"
   id="svg8"
   inkscape:version="1.0.1 (3bc2e813f5, 2020-09-07)"
   sodipodi:docname="rgb_40.svg">
  <defs
     id="defs2" />
  <sodipodi:namedview
     id="base"
     pagecolor="#ffffff"
     bordercolor="#666666"
     borderopacity="1.0"
     inkscape:pageopacity="0.0"
     inkscape:pageshadow="2"
     inkscape:zoom="5.6"
     inkscape:cx="-48.22862"
     inkscape:cy="8.92316"
     inkscape:document-units="px"
     inkscape:current-layer="layer1"
     inkscape:document-rotation="0"
     showgrid="false"
     units="px"
     inkscape:window-width="1514"
     inkscape:window-height="1199"
     inkscape:window-x="955"
     inkscape:window-y="181"
     inkscape:window-maximized="0" />
  <metadata
     id="metadata5">
    <rdf:RDF>
      <cc:Work
         rdf:about="">
        <dc:format>image/svg+xml</dc:format>
        <dc:type
           rdf:resource="http://purl.org/dc/dcmitype/StillImage" />
        <dc:title></dc:title>
      </cc:Work>
    </rdf:RDF>
  </metadata>
  <g
     inkscape:label="Layer 1"
     inkscape:groupmode="layer"
     id="layer1">
    <g
       id="g130"
       transform="matrix(0.10379551,0,0,0.10379551,-3.3541458,-2.0989538)">
      <path
         style="fill:#2196f3;stroke-width:0.264583"
         d="m 69.527621,84.09096 c -0.04683,0.203464 -0.06588,0.412221 -0.05636,0.620977 0.0063,10.485173 5.316272,20.255703 14.111022,25.964353 -5.019675,3.32687 -10.911416,5.09429 -16.933333,5.08 -17.117218,0.031 -31.018691,-13.82024 -31.049647,-30.937726 -0.02117,-11.704108 6.55267,-22.42185 16.994981,-27.708225 0.183621,11.444288 6.707716,21.839238 16.933333,26.980621 z"
         id="path18" />
      <path
         style="fill:#00bcd4;stroke-width:0.264583"
         d="M 97.69331,84.711937 C 97.68696,95.19711 92.377037,104.96764 83.582287,110.67629 74.787273,104.96738 69.47735,95.19711 69.471265,84.711937 c -0.0093,-0.208492 0.0095,-0.417513 0.05636,-0.620977 8.80745,4.590785 19.301883,4.590785 28.109333,0 0.04683,0.203464 0.06562,0.412485 0.05636,0.620977 z"
         id="path20" />
      <path
         style="fill:#4caf50;stroke-width:0.264583"
         d="m 131.55998,84.711937 c -0.031,17.132563 -13.91206,31.013403 -31.04436,31.044353 -6.021916,0.0143 -11.913658,-1.75313 -16.933333,-5.08 8.795015,-5.70891 14.104938,-15.47918 14.111023,-25.964353 0.0093,-0.208492 -0.0095,-0.417513 -0.05636,-0.620977 10.22562,-5.141383 16.74972,-15.536598 16.93334,-26.980356 10.40579,5.270235 16.97169,15.936912 16.98969,27.601333 z"
         id="path22" />
      <path
         style="fill:#d81b60;stroke-width:0.264583"
         d="M 83.582287,58.747581 C 74.978302,64.33611 69.711506,73.833064 69.527621,84.091224 59.302004,78.949841 52.777909,68.554627 52.594288,57.110869 62.455044,51.990916 74.315785,52.61745 83.582287,58.747581 Z"
         id="path24" />
      <path
         style="fill:#ffc107;stroke-width:0.264583"
         d="M 114.57029,57.110604 C 114.38667,68.554627 107.86257,78.949577 97.636954,84.09096 97.453068,73.8328 92.186273,64.33611 83.582287,58.747316 c 9.266502,-6.129866 21.127243,-6.7564 30.988003,-1.636712 z"
         id="path26" />
      <path
         style="fill:#fafafa;stroke-width:0.264583"
         d="m 97.636954,84.09096 c -8.80745,4.590785 -19.301883,4.590785 -28.109333,0 0.183885,-10.25816 5.450681,-19.75485 14.054666,-25.343644 8.603986,5.588794 13.870517,15.085748 14.054667,25.343644 z"
         id="path28" />
      <path
         style="fill:#f44336;stroke-width:0.264583"
         d="m 114.62664,56.489627 c 0.009,0.208492 -0.01,0.417512 -0.0563,0.620977 -9.86076,-5.119688 -21.721501,-4.493154 -30.988003,1.636977 -9.266502,-6.130131 -21.127243,-6.756665 -30.987999,-1.636977 -0.04683,-0.203465 -0.06562,-0.412221 -0.05636,-0.620977 -2.64e-4,-17.145265 13.898827,-31.044356 31.044356,-31.044356 17.145536,0 31.044356,13.899091 31.044356,31.044356 z"
         id="path30" />
    </g>
    <g
       id="g32"
       transform="matrix(0.26458333,0,0,0.26458333,15.846309,25.445271)">
</g>
    <g
       id="g34"
       transform="matrix(0.26458333,0,0,0.26458333,15.846309,25.445271)">
</g>
    <g
       id="g36"
       transform="matrix(0.26458333,0,0,0.26458333,15.846309,25.445271)">
</g>
    <g
       id="g38"
       transform="matrix(0.26458333,0,0,0.26458333,15.846309,25.445271)">
</g>
    <g
       id="g40"
       transform="matrix(0.26458333,0,0,0.26458333,15.846309,25.445271)">
</g>
    <g
       id="g42"
       transform="matrix(0.26458333,0,0,0.26458333,15.846309,25.445271)">
</g>
    <g
       id="g44"
       transform="matrix(0.26458333,0,0,0.26458333,15.846309,25.445271)">
</g>
    <g
       id="g46"
       transform="matrix(0.26458333,0,0,0.26458333,15.846309,25.445271)">
</g>
    <g
       id="g48"
       transform="matrix(0.26458333,0,0,0.26458333,15.846309,25.445271)">
</g>
    <g
       id="g50"
       transform="matrix(0.26458333,0,0,0.26458333,15.846309,25.445271)">
</g>
    <g
       id="g52"
       transform="matrix(0.26458333,0,0,0.26458333,15.846309,25.445271)">
</g>
    <g
       id="g54"
       transform="matrix(0.26458333,0,0,0.26458333,15.846309,25.445271)">
</g>
    <g
       id="g56"
       transform="matrix(0.26458333,0,0,0.26458333,15.846309,25.445271)">
</g>
    <g
       id="g58"
       transform="matrix(0.26458333,0,0,0.26458333,15.846309,25.445271)">
</g>
    <g
       id="g60"
       transform="matrix(0.26458333,0,0,0.26458333,15.846309,25.445271)">
</g>
  </g>
</svg>
