<?xml version="1.0" standalone="no"?>
<!DOCTYPE svg PUBLIC "-//W3C//DTD SVG 20010904//EN"
 "http://www.w3.org/TR/2001/REC-SVG-20010904/DTD/svg10.dtd">
<svg version="1.0" xmlns="http://www.w3.org/2000/svg"
 width="32px" height="32px" viewBox="0 0 400.000000 400.000000"
 preserveAspectRatio="xMidYMid meet">

<g transform="translate(0.000000,400.000000) scale(0.100000,-0.100000)"
fill="#6706cf" stroke="none">
<path d="M1800 3989 c-376 -36 -761 -195 -1060 -436 -89 -72 -257 -243 -321
-328 -357 -467 -494 -1058 -379 -1626 59 -286 195 -584 379 -824 64 -85 232
-256 321 -328 606 -489 1436 -584 2135 -243 592 290 991 831 1101 1496 26 156
24 465 -4 625 -55 313 -175 600 -357 852 -89 124 -292 329 -417 422 -402 300
-897 438 -1398 390z m590 -623 c337 -72 583 -233 699 -455 50 -97 71 -181 71
-293 0 -230 -92 -441 -301 -684 -89 -104 -174 -177 -409 -354 -215 -163 -303
-249 -324 -320 -37 -126 48 -221 219 -244 107 -15 276 46 412 148 88 66 199
188 281 308 88 129 118 158 171 165 82 11 131 -34 131 -120 0 -50 -71 -201
-149 -317 -204 -303 -418 -480 -681 -566 -75 -24 -101 -27 -220 -28 -115 -1
-146 2 -210 22 -112 35 -196 86 -281 171 -209 210 -245 476 -94 706 60 91 190
216 405 387 210 167 297 252 368 361 201 311 59 598 -345 699 -70 18 -117 22
-228 22 -156 0 -256 -17 -389 -66 -186 -68 -307 -150 -511 -345 -163 -157
-211 -182 -291 -148 -127 53 -44 259 208 513 239 241 521 388 857 447 137 24
137 24 321 20 139 -3 199 -9 290 -29z m-538 -861 c25 -9 58 -29 74 -46 24 -26
29 -39 29 -83 0 -79 -29 -113 -210 -251 -208 -158 -224 -170 -333 -278 -289
-283 -324 -525 -136 -938 48 -105 49 -135 3 -159 -33 -18 -72 -5 -155 50 -197
134 -330 308 -386 507 -27 97 -29 273 -5 373 58 237 215 458 449 631 100 74
276 162 378 188 93 25 229 27 292 6z"/>
</g>
</svg>
