<svg width="40" height="40" xmlns="http://www.w3.org/2000/svg"><path d="M5.322 5.322l3.365 3.365A15.947 15.947 0 0 1 20 4c8.817 0 16.006 7.195 16 16.012C35.994 28.843 28.833 36 20 36c-4.124 0-7.884-1.56-10.721-4.123a.776.776 0 0 1-.031-1.125l1.273-1.273a.777.777 0 0 1 1.065-.036A12.6 12.6 0 0 0 20 32.645c6.988 0 12.645-5.655 12.645-12.645 0-6.988-5.655-12.645-12.645-12.645a12.603 12.603 0 0 0-8.943 3.702l3.492 3.492a.774.774 0 0 1-.547 1.322H4.774A.774.774 0 0 1 4 15.097V5.869a.774.774 0 0 1 1.322-.547z" fill="#000" fill-rule="nonzero"/></svg>