<svg xmlns="http://www.w3.org/2000/svg">
	<g xmlns="http://www.w3.org/2000/svg" version="1.1" x="0px" y="0px" viewBox="0 0 40 40">
		<ellipse style="fill: rgb(216, 216, 216);" cx="20" cy="20" ry="11" rx="11"></ellipse>
		<path d="M 39.462 2.335 C 39.134 2.204 38.755 2.278 38.507 2.518 L 34.866 6.053 C 30.955 2.151 25.733 0 20.162 0 C 18.985 0 17.795 0.098 16.63 0.298 C 8.691 1.637 2.262 7.4 0.248 14.988 C 0.181 15.241 0.24 15.514 0.404 15.722 C 0.572 15.931 0.824 16.053 1.097 16.053 L 6.677 16.053 C 7.043 16.053 7.375 15.829 7.501 15.494 C 9.133 11.155 13.19 7.849 17.837 7.065 C 18.602 6.935 19.38 6.869 20.153 6.869 C 23.845 6.869 27.293 8.302 29.862 10.91 L 26.162 14.502 C 25.914 14.747 25.838 15.11 25.973 15.429 C 26.107 15.747 26.427 15.955 26.78 15.955 L 39.125 15.955 C 39.609 15.955 40 15.576 40 15.106 L 40 3.118 C 40.004 2.776 39.79 2.465 39.462 2.335 Z" data-bx-origin="-0.660719 -0.618451"></path><path d="M 38.907 23.951 L 33.327 23.951 C 32.961 23.951 32.629 24.176 32.503 24.51 C 30.871 28.845 26.814 32.151 22.168 32.935 C 21.402 33.065 20.624 33.131 19.851 33.131 C 16.159 33.131 12.711 31.698 10.142 29.09 L 13.842 25.498 C 14.094 25.253 14.166 24.89 14.031 24.571 C 13.897 24.253 13.577 24.045 13.224 24.045 L 0.875 24.045 C 0.391 24.045 0 24.424 0 24.894 L 0 36.878 C 0 37.22 0.214 37.531 0.542 37.665 C 0.87 37.796 1.245 37.722 1.497 37.482 L 5.138 33.947 C 9.044 37.849 14.267 40 19.842 40 C 21.024 40 22.21 39.898 23.378 39.702 C 31.313 38.367 37.738 32.6 39.752 25.012 C 39.819 24.759 39.76 24.486 39.596 24.278 C 39.432 24.073 39.176 23.951 38.907 23.951 Z" data-bx-origin="-0.655168 -2.110973"></path>
	</g>
</svg>
