<svg width="1em" height="1em" viewBox="0 0 16 16" fill="none" xmlns="http://www.w3.org/2000/svg">
<g clip-path="url(#clip0)">
<path d="M1.289 2.771L0 3.30333V12.6463L1.289 13.1755L1.29675 13.1678V2.77833L1.289 2.771Z" fill="#8C3123"/>
<path d="M8.18756 11.8195L1.28906 13.1755V2.771L8.18756 4.0975V11.8195Z" fill="#E05243"/>
<path d="M5.07349 9.69626L7.99961 10.0039L8.01798 9.96888L8.03442 6.00655L7.99961 5.97559L5.07349 6.27876V9.69626Z" fill="#8C3123"/>
<path d="M7.99976 11.8347L14.7104 13.1784L14.721 13.1645L14.7208 2.78029L14.7102 2.771L7.99976 4.11273V11.8347Z" fill="#8C3123"/>
<path d="M10.9267 9.69626L7.99976 10.0039V5.97559L10.9267 6.27876V9.69626Z" fill="#E05243"/>
<path d="M10.9265 4.62622L7.99961 5.06674L5.07349 4.62622L7.99592 3.99365L10.9265 4.62622Z" fill="#5E1F18"/>
<path d="M10.9265 11.3448L7.99961 10.9014L5.07349 11.3448L7.99605 12.0185L10.9265 11.3448Z" fill="#F2B0A9"/>
<path d="M5.07349 4.62612L7.99961 4.02813L8.0233 4.02209V0.0161548L7.99961 0L5.07349 1.20841V4.62612Z" fill="#8C3123"/>
<path d="M10.9267 4.62612L7.99976 4.02813V0L10.9267 1.20841V4.62612Z" fill="#E05243"/>
<path d="M7.99968 15.9704L5.07324 14.7624V11.3447L7.99968 11.9425L8.04274 11.9829L8.03106 15.9006L7.99968 15.9704Z" fill="#8C3123"/>
<path d="M7.99976 15.9704L10.9264 14.7624V11.3447L7.99976 11.9425V15.9704Z" fill="#E05243"/>
<path d="M14.7104 2.771L16 3.30333V12.6463L14.7104 13.1784V2.771Z" fill="#E05243"/>
</g>
<defs>
<clipPath id="clip0">
<rect width="16" height="16" fill="white"/>
</clipPath>
</defs>
</svg>
