<svg width="40" height="40" xmlns="http://www.w3.org/2000/svg"><path d="M29.131 5l5.257 5.257V35H5V5h24.131zm-.866 17.143H10.51v11.633h17.755V22.143zM10.51 6.224H6.224v27.552h3.062V20.918H29.49v12.858h3.673V10.764l-4.539-4.54h-.97v9.796H10.51V6.224zm8.878 20.205a.612.612 0 0 1 .1 1.216l-.1.008h-6.123a.612.612 0 0 1-.1-1.216l.1-.008h6.123zm2.271.177c.11.116.178.276.178.435 0 .159-.068.318-.178.435a.644.644 0 0 1-.435.177.63.63 0 0 1-.434-.177.64.64 0 0 1-.178-.435.64.64 0 0 1 .178-.435.641.641 0 0 1 .87 0zm-4.108-2.626a.612.612 0 0 1 .1 1.216l-.1.008h-4.286a.612.612 0 0 1-.1-1.216l.1-.008h4.286zm8.878-17.756H11.735v8.572h14.694V6.224zM25.51 7.45v6.122h-3.673V7.45h3.673zm-1.224 1.224H23.06v3.674h1.225V8.673z" fill="#000" fill-rule="nonzero"/></svg>