<svg width="40" height="40" xmlns="http://www.w3.org/2000/svg"><path d="M22.147 2C23.169 2 24 2.831 24 3.853h0v3.368c0 .542.298.988.798 1.195a1.257 1.257 0 0 0 1.41-.28h0l2.38-2.381c.701-.702 1.922-.7 2.622 0h0l3.035 3.035c.35.35.543.816.543 1.311s-.193.961-.543 1.311h0l-2.381 2.38c-.382.383-.487.91-.28 1.41.207.5.653.798 1.195.798h3.368c1.022 0 1.853.831 1.853 1.853h0v4.294A1.855 1.855 0 0 1 36.147 24h0-3.368c-.542 0-.989.298-1.196.798a1.26 1.26 0 0 0 .28 1.41h0l2.382 2.38c.35.35.542.816.542 1.31 0 .496-.192.962-.542 1.312h0l-3.036 3.035c-.7.7-1.92.702-2.622 0h0l-2.38-2.381a1.257 1.257 0 0 0-1.41-.28c-.5.207-.798.653-.798 1.195h0v3.368A1.855 1.855 0 0 1 22.146 38h0-4.293A1.855 1.855 0 0 1 16 36.147h0v-3.368c0-.542-.298-.988-.798-1.195a1.258 1.258 0 0 0-1.41.28h0l-2.38 2.381c-.701.702-1.921.701-2.622 0h0L5.755 31.21a1.844 1.844 0 0 1-.543-1.311c0-.495.193-.961.543-1.311h0l2.381-2.38c.382-.383.487-.91.28-1.41A1.257 1.257 0 0 0 7.221 24h0-3.368A1.855 1.855 0 0 1 2 22.146h0v-4.293C2 16.831 2.831 16 3.853 16h3.368c.542 0 .988-.298 1.195-.798a1.26 1.26 0 0 0-.28-1.41h0l-2.381-2.38a1.843 1.843 0 0 1-.543-1.31c0-.496.193-.962.543-1.312h0L8.79 5.755c.7-.7 1.92-.702 2.622 0h0l2.38 2.38c.383.382.911.49 1.41.281.5-.207.798-.653.798-1.195h0V3.853C16 2.831 16.831 2 17.853 2h0zm-.001 1.333h-4.293a.52.52 0 0 0-.52.52h0v3.368a2.584 2.584 0 0 1-1.621 2.426 2.586 2.586 0 0 1-2.863-.569h0l-2.38-2.38a.52.52 0 0 0-.736 0h0L6.697 9.732a.52.52 0 0 0 0 .736h0l2.382 2.38c.766.766.984 1.863.569 2.863a2.586 2.586 0 0 1-2.427 1.621h0-3.368a.52.52 0 0 0-.52.52h0v4.294c0 .286.234.52.52.52h3.368c1.083 0 2.013.621 2.427 1.62.415 1 .196 2.098-.57 2.863h0l-2.38 2.38a.52.52 0 0 0 0 .737h0l3.035 3.035a.52.52 0 0 0 .736 0h0l2.38-2.381a2.59 2.59 0 0 1 2.863-.569 2.586 2.586 0 0 1 1.621 2.427h0v3.368c0 .286.234.52.52.52h4.294a.52.52 0 0 0 .52-.52h0v-3.368c0-1.083.621-2.013 1.621-2.427 1-.413 2.097-.197 2.863.57h0l2.38 2.38a.52.52 0 0 0 .736 0h0l3.036-3.035a.52.52 0 0 0 0-.736h0l-2.382-2.38a2.585 2.585 0 0 1-.569-2.863 2.586 2.586 0 0 1 2.427-1.621h3.368a.52.52 0 0 0 .52-.52h0v-4.294a.52.52 0 0 0-.52-.519h0-3.368a2.586 2.586 0 0 1-2.427-1.621c-.415-1-.196-2.098.57-2.863h0l2.38-2.38a.52.52 0 0 0 0-.737h0l-3.035-3.035a.52.52 0 0 0-.736 0h0l-2.38 2.38a2.585 2.585 0 0 1-2.863.57 2.586 2.586 0 0 1-1.621-2.427h0V3.853a.52.52 0 0 0-.521-.52h0zM20 14c3.309 0 6 2.691 6 6s-2.691 6-6 6-6-2.691-6-6 2.691-6 6-6zm0 1.333A4.673 4.673 0 0 0 15.333 20 4.673 4.673 0 0 0 20 24.667 4.673 4.673 0 0 0 24.667 20 4.673 4.673 0 0 0 20 15.333z" stroke="#000" fill="#000" fill-rule="nonzero"/></svg>