<svg width="15" height="15" viewBox="0 0 22 22" fill="none" xmlns="http://www.w3.org/2000/svg">
<g opacity="0.2">
<path d="M11 22C12.5046 22 13.9214 21.7116 15.2502 21.1348C16.5791 20.565 17.7462 19.7736 18.7517 18.7607C19.7641 17.7477 20.5586 16.58 21.1352 15.2576C21.7117 13.9281 22 12.5071 22 10.9947C22 9.48937 21.7117 8.07546 21.1352 6.753C20.5586 5.4235 19.7641 4.25228 18.7517 3.23933C17.7462 2.22638 16.5756 1.43501 15.2397 0.865228C13.9108 0.288409 12.4941 0 10.9895 0C9.48482 0 8.06807 0.288409 6.73921 0.865228C5.41035 1.43501 4.23969 2.22638 3.22723 3.23933C2.2218 4.25228 1.43081 5.4235 0.854267 6.753C0.284755 8.07546 0 9.48937 0 10.9947C0 12.5071 0.284755 13.9281 0.854267 15.2576C1.43081 16.58 2.22531 17.7477 3.23778 18.7607C4.25024 19.7736 5.4209 20.565 6.74976 21.1348C8.07862 21.7116 9.49537 22 11 22ZM11 15.458C10.1633 15.458 9.38287 15.3384 8.65868 15.0993C7.94151 14.8601 7.29115 14.5576 6.70757 14.1918C6.13103 13.819 5.63535 13.4286 5.22052 13.0206C4.80569 12.6056 4.48929 12.2187 4.27133 11.86C4.05337 11.4942 3.94439 11.2093 3.94439 11.0053C3.94439 10.7942 4.05337 10.5094 4.27133 10.1506C4.48929 9.78481 4.80569 9.39792 5.22052 8.98993C5.63535 8.5749 6.13103 8.18449 6.70757 7.8187C7.28412 7.44588 7.93448 7.1434 8.65868 6.91127C9.38287 6.6721 10.1633 6.55252 11 6.55252C11.8437 6.55252 12.6277 6.6721 13.3519 6.91127C14.0761 7.1434 14.7264 7.44588 15.303 7.8187C15.8795 8.18449 16.3717 8.5749 16.7795 8.98993C17.1873 9.39792 17.5002 9.78481 17.7181 10.1506C17.9431 10.5094 18.0556 10.7942 18.0556 11.0053C18.0556 11.2093 17.9431 11.4942 17.7181 11.86C17.5002 12.2187 17.1873 12.6056 16.7795 13.0206C16.3717 13.4286 15.8795 13.819 15.303 14.1918C14.7264 14.5576 14.0761 14.8601 13.3519 15.0993C12.6277 15.3384 11.8437 15.458 11 15.458ZM11 13.8647C11.5273 13.8647 12.0089 13.7346 12.4449 13.4743C12.8808 13.2141 13.2253 12.8659 13.4784 12.4297C13.7386 11.9936 13.8686 11.5188 13.8686 11.0053C13.8686 10.4777 13.7386 9.99584 13.4784 9.55971C13.2253 9.12358 12.8808 8.7789 12.4449 8.52566C12.0089 8.27242 11.5273 8.1458 11 8.1458C10.4727 8.1458 9.99105 8.27242 9.55513 8.52566C9.11921 8.7789 8.77117 9.12358 8.51103 9.55971C8.25088 9.99584 8.1208 10.4777 8.1208 11.0053C8.1208 11.5188 8.25088 11.9936 8.51103 12.4297C8.77117 12.8659 9.11921 13.2141 9.55513 13.4743C9.99105 13.7346 10.4727 13.8647 11 13.8647ZM11.0105 12.2609C10.659 12.2609 10.3602 12.1378 10.1141 11.8916C9.86801 11.6384 9.74497 11.3429 9.74497 11.0053C9.74497 10.6676 9.86801 10.3757 10.1141 10.1295C10.3602 9.87626 10.659 9.74964 11.0105 9.74964C11.348 9.74964 11.6398 9.87626 11.8859 10.1295C12.132 10.3757 12.255 10.6676 12.255 11.0053C12.255 11.3429 12.132 11.6384 11.8859 11.8916C11.6398 12.1378 11.348 12.2609 11.0105 12.2609Z" fill="black"/>
</g>
</svg>
