<svg width="18" height="18" viewBox="0 0 18 18" fill="none" xmlns="http://www.w3.org/2000/svg">
<path d="M14.7342 12.8981C17.8151 9.88961 17.7454 5.07886 14.5782 2.15231C11.4111 -0.77424 6.3466 -0.707958 3.26568 2.30007C0.244772 5.24985 0.244772 9.94829 3.26568 12.8981C3.27368 12.9061 3.27902 12.9149 3.28702 12.923L3.31324 12.9479C3.33413 12.9681 3.35502 12.988 3.37635 13.0078L8.3715 17.7527C8.71862 18.0824 9.28129 18.0824 9.6284 17.7527L14.6235 13.0078C14.6449 12.988 14.6658 12.9681 14.6867 12.9479L14.7129 12.923C14.7213 12.9149 14.7267 12.9057 14.7342 12.8981Z" fill="black"/>
<circle cx="9" cy="7.80005" r="4.25" stroke="#F1F1F1" stroke-width="1.5"/>
</svg>
