<svg width="1em" height="1em" viewBox="0 0 24 24" fill="none" xmlns="http://www.w3.org/2000/svg">
<path d="M6 21C6.62979 12.065 7.88955 6.70401 20 6" stroke="black" stroke-width="2" stroke-linecap="round"/>
<path d="M6 24C7.65685 24 9 22.6569 9 21C9 19.3431 7.65685 18 6 18C4.34315 18 3 19.3431 3 21C3 22.6569 4.34315 24 6 24Z" fill="black"/>
<path d="M9 13C10.6569 13 12 11.6569 12 10C12 8.34315 10.6569 7 9 7C7.34315 7 6 8.34315 6 10C6 11.6569 7.34315 13 9 13Z" fill="black"/>
<path d="M20 9C21.6569 9 23 7.65685 23 6C23 4.34315 21.6569 3 20 3C18.3431 3 17 4.34315 17 6C17 7.65685 18.3431 9 20 9Z" fill="black"/>
</svg>
