<?xml version="1.0" encoding="iso-8859-1"?>
<!-- Downloaded from https://www.svgrepo.com/svg/109131/molecule -->
<!-- LICENSE: CC0 License -->
<!-- Generator: Adobe Illustrator 19.0.0, SVG Export Plug-In . SVG Version: 6.00 Build 0)  -->
<svg width="40" height="40" version="1.1" xmlns="http://www.w3.org/2000/svg" xmlns:xlink="http://www.w3.org/1999/xlink" x="0px" y="0px"
	 viewBox="0 0 299.804 299.804" style="enable-background:new 0 0 299.804 299.804;" xml:space="preserve">
<g>
	<g>
		<path d="M230.816,221.246l-46.06-29.289c8.208-17.846,5.962-38.875-6.195-54.673l52.241-52.896
			c26.33,17.897,62.197-1.061,62.197-32.979c0-21.974-17.878-39.851-39.852-39.851c-32.101,0-51.072,36.267-32.692,62.601
			l-52.238,52.893c-18.971-14.23-45.044-14.211-64.003,0.091L56.2,78.794c12.273-20.103-2.286-46.056-25.888-46.056
			C13.597,32.738,0,46.336,0,63.048c0,23.553,25.813,38.053,45.874,25.997l48.02,48.354c-26.674,34.86-1.796,85.694,42.378,85.694
			c16.278,0,30.867-7.337,40.659-18.868l46.061,29.29c-10.578,26.177,8.847,54.731,36.959,54.731
			c21.973,0,39.851-17.877,39.851-39.851C299.804,212.29,255.403,194.877,230.816,221.246z M253.147,26.108
			c13.951,0,25.301,11.35,25.301,25.301c0,13.952-11.35,25.302-25.301,25.302c-13.952,0-25.302-11.35-25.302-25.302
			S239.195,26.108,253.147,26.108z M30.311,78.808c-8.69,0.001-15.761-7.069-15.761-15.76s7.07-15.76,15.761-15.76
			c8.69,0,15.76,7.07,15.76,15.76C46.07,71.738,39.001,78.808,30.311,78.808z M136.272,208.543
			c-21.392,0-38.795-17.403-38.795-38.795c0-21.391,17.403-38.795,38.795-38.795c21.391,0,38.794,17.404,38.794,38.795
			C175.068,191.14,157.664,208.543,136.272,208.543z M259.952,273.696c-13.951,0-25.301-11.35-25.301-25.301
			c0-13.952,11.35-25.302,25.301-25.302c13.952,0,25.301,11.35,25.301,25.302C285.254,262.346,273.904,273.696,259.952,273.696z"/>
	</g>
</g>
</svg>
