<svg width="33" height="32" viewBox="0 0 33 32" fill="none" xmlns="http://www.w3.org/2000/svg">
<path fill-rule="evenodd" clip-rule="evenodd" d="M16.4042 0C7.34236 0 0 7.34236 0 16.4042C0 23.6504 4.69911 29.802 11.2191 31.97C12.0415 32.1195 12.3405 31.6176 12.3405 31.1797C12.3405 30.7899 12.3245 29.7593 12.3191 28.3923C7.75354 29.3801 6.79235 26.1922 6.79235 26.1922C6.04477 24.2966 4.97145 23.7893 4.97145 23.7893C3.48162 22.7747 5.08359 22.796 5.08359 22.796C6.72827 22.9135 7.59334 24.4834 7.59334 24.4834C9.05647 26.9932 11.4327 26.267 12.3672 25.8505C12.5167 24.7878 12.9439 24.0669 13.4085 23.6558C9.76668 23.2446 5.93797 21.8349 5.93797 15.5498C5.93797 13.7556 6.57876 12.2925 7.62538 11.1444C7.45984 10.7332 6.89381 9.06181 7.78558 6.80304C7.78558 6.80304 9.16327 6.36516 12.2978 8.4851C13.6061 8.12199 15.0105 7.94043 16.4042 7.93509C17.7979 7.94043 19.2023 8.12199 20.5106 8.4851C23.6451 6.36516 25.0174 6.80304 25.0174 6.80304C25.9145 9.06181 25.3538 10.7332 25.183 11.1444C26.2349 12.2925 26.865 13.7556 26.865 15.5498C26.865 21.8509 23.031 23.2339 19.3785 23.6451C19.9659 24.147 20.4892 25.1509 20.4892 26.6781C20.4892 28.8728 20.4732 30.6404 20.4732 31.1797C20.4732 31.6176 20.7669 32.1302 21.5999 31.97C28.1146 29.7966 32.8083 23.6504 32.8083 16.4042C32.8083 7.34236 25.466 0 16.4042 0Z" fill="white"/>
</svg>
