<svg width="40" height="40" xmlns="http://www.w3.org/2000/svg"><path d="M37.011 17.886L22.114 2.99A3.375 3.375 0 0 0 19.727 2H5.375A3.375 3.375 0 0 0 2 5.375v14.352c0 .895.356 1.754.989 2.387L17.886 37.01a3.375 3.375 0 0 0 4.773 0L37.011 22.66a3.375 3.375 0 0 0 0-4.773zm-1.59 3.182L21.068 35.421a1.125 1.125 0 0 1-1.59 0L4.579 20.522a1.118 1.118 0 0 1-.329-.795V5.375c0-.62.505-1.125 1.125-1.125h14.352c.3 0 .583.117.796.33L35.42 19.476a1.126 1.126 0 0 1 0 1.591zm-23.296-10.35a1.408 1.408 0 0 1 0 2.812c-.775.001-1.406-.63-1.406-1.405s.63-1.406 1.406-1.406zm0-1.968a3.375 3.375 0 1 0 0 6.75 3.375 3.375 0 0 0 0-6.75z" fill="#000" fill-rule="nonzero"/></svg>