<svg width="1em" height="1em" viewBox="0 0 32 32" fill="none" xmlns="http://www.w3.org/2000/svg">
<path d="M14.98 25.9939C18.55 25.2679 21.498 24.6669 21.532 24.6589L21.594 24.6439L18.224 20.0289C16.37 17.4909 14.854 15.4039 14.854 15.3919C14.854 15.3799 18.334 4.3359 18.354 4.2969C18.361 4.2839 20.729 8.9909 24.095 15.7079L29.869 27.2289L29.913 27.3169H8.49097L14.98 25.9939Z" fill="#0089D6"/>
<path d="M2.125 24.586C2.125 24.58 3.713 21.406 5.654 17.533L9.183 10.492L13.3 6.52002C15.562 4.33502 17.419 2.54402 17.426 2.54102C17.4112 2.60727 17.3891 2.67167 17.36 2.73302L12.89 13.759L8.5 24.589H5.311C4.24902 24.5999 3.18696 24.5989 2.125 24.586V24.586Z" fill="#0089D6"/>
</svg>
