<svg width="40" height="40" xmlns="http://www.w3.org/2000/svg"><path d="M20 2c9.941 0 18 8.059 18 18s-8.059 18-18 18S2 29.941 2 20 10.059 2 20 2zm0 2.4C11.384 4.4 4.4 11.384 4.4 20S11.384 35.6 20 35.6 35.6 28.616 35.6 20 28.616 4.4 20 4.4zm1.27 25.2h-2.642V14.147h2.642V29.6zm-2.856-19.552c0-.429.13-.79.393-1.086.261-.295.65-.443 1.164-.443.514 0 .904.148 1.17.443.267.295.4.657.4 1.086 0 .428-.133.785-.4 1.07-.266.286-.656.43-1.17.43-.515 0-.903-.144-1.164-.43-.262-.285-.393-.642-.393-1.07z" fill="#000" fill-rule="nonzero"/></svg>