<svg width="40" height="40" xmlns="http://www.w3.org/2000/svg"><path d="M25.9 23c-1.73 0-2.561 1-5.4 1-2.839 0-3.664-1-5.4-1-4.472 0-8.1 3.762-8.1 8.4V33c0 1.656 1.296 3 2.893 3h21.214C32.704 36 34 34.656 34 33v-1.6c0-4.637-3.628-8.4-8.1-8.4zm5.207 10H9.893v-1.6c0-2.975 2.338-5.4 5.207-5.4.88 0 2.308 1 5.4 1 3.116 0 4.514-1 5.4-1 2.869 0 5.207 2.425 5.207 5.4V33zM20.5 22c4.791 0 8.679-4.031 8.679-9S25.29 4 20.5 4s-8.679 4.031-8.679 9 3.888 9 8.679 9zm0-15c3.188 0 5.786 2.694 5.786 6s-2.598 6-5.786 6c-3.188 0-5.786-2.694-5.786-6s2.598-6 5.786-6z" fill="#000" fill-rule="nonzero"/></svg>