<svg width="40" height="40" xmlns="http://www.w3.org/2000/svg"><path d="M36.889 5.188H29.5L27.389 3H22.11C20.945 3 20 3.98 20 5.188v10.937c0 1.208.945 2.188 2.111 2.188H36.89c1.166 0 2.111-.98 2.111-2.188v-8.75c0-1.208-.945-2.188-2.111-2.188zm0 19.687H29.5l-2.111-2.188H22.11c-1.166 0-2.111.98-2.111 2.188v10.938C20 37.02 20.945 38 22.111 38H36.89C38.055 38 39 37.02 39 35.812v-8.75c0-1.208-.945-2.187-2.111-2.187zM5.222 4.094C5.222 3.49 4.75 3 4.167 3H2.056C1.473 3 1 3.49 1 4.094v27.343c0 1.209.945 2.188 2.111 2.188H17.89V29.25H5.222V13.937H17.89V9.564H5.222v-5.47z" fill="#000" fill-rule="nonzero"/></svg>