<svg width="32" height="32" viewBox="0 0 32 32" fill="none" xmlns="http://www.w3.org/2000/svg">
<circle cx="16" cy="16" r="16" fill="white"/>
<path d="M24.6426 16.2067C24.6426 15.5949 24.593 14.9798 24.4871 14.3779H15.998V17.8437H20.8594C20.6576 18.9614 20.0095 19.9502 19.0603 20.5786V22.8273H21.9606C23.6637 21.2598 24.6426 18.9449 24.6426 16.2067Z" fill="#4285F4"/>
<path d="M15.9987 25C18.426 25 20.473 24.203 21.9645 22.8273L19.0643 20.5786C18.2574 21.1275 17.2157 21.4384 16.002 21.4384C13.654 21.4384 11.6632 19.8543 10.9489 17.7246H7.95605V20.0428C9.48389 23.082 12.5958 25 15.9987 25Z" fill="#34A853"/>
<path d="M10.945 17.7245C10.568 16.6068 10.568 15.3964 10.945 14.2786V11.9604H7.95542C6.67892 14.5035 6.67892 17.4997 7.95542 20.0427L10.945 17.7245Z" fill="#FBBC04"/>
<path d="M15.9987 10.5615C17.2818 10.5417 18.5219 11.0245 19.4512 11.9108L22.0207 9.34123C20.3937 7.8134 18.2342 6.97342 15.9987 6.99987C12.5958 6.99987 9.48389 8.91793 7.95605 11.9604L10.9456 14.2786C11.6566 12.1456 13.6507 10.5615 15.9987 10.5615Z" fill="#EA4335"/>
</svg>
