<svg width="90" height="78" xmlns="http://www.w3.org/2000/svg"><path d="M84.27 0c2.753 0 5.007 2.167 5.12 4.874l.005.215v67.148c0 2.734-2.183 4.972-4.908 5.085l-.217.004H5.123c-2.751 0-5.005-2.167-5.118-4.874L0 72.237V5.09C0 2.355 2.183.117 4.907.004L5.123 0H84.27zm1.58 16.242H3.546v55.995c0 .816.632 1.488 1.434 1.56l.144.007H84.27c.824 0 1.501-.627 1.574-1.424l.007-.143V16.242zM12.658 38.48h4.328c.59 0 1.076.452 1.138 1.031l.007.126v1.03h15.02v-1.03c0-.596.446-1.087 1.02-1.15l.125-.007h4.328c.59 0 1.076.451 1.138 1.03l.006.127v4.372c0 .596-.446 1.087-1.02 1.15l-.124.007h-1.02v10.548h1.019c.59 0 1.077.451 1.139 1.031l.006.126v4.372c0 .596-.446 1.087-1.02 1.15l-.125.007h-4.327a1.15 1.15 0 0 1-1.139-1.03l-.006-.127v-1.03H18.13v1.03c0 .596-.446 1.087-1.02 1.15l-.125.007h-4.328a1.15 1.15 0 0 1-1.138-1.03l-.007-.127v-4.372c0-.596.447-1.087 1.02-1.15l.125-.007h1.019V45.166h-1.02a1.15 1.15 0 0 1-1.138-1.03l-.006-.127v-4.372c0-.596.446-1.087 1.02-1.15l.125-.007h4.328zm3.183 19.548h-2.038v2.058h2.038v-2.058zm21.638 0h-2.039v2.058h2.039v-2.058zM33.15 42.98H18.13v1.03c0 .595-.447 1.087-1.02 1.15l-.125.006h-1.019v10.548h1.019c.59 0 1.076.451 1.138 1.031l.007.126V57.9h15.02V56.87c0-.596.446-1.087 1.02-1.15l.125-.007h1.019V45.166h-1.019a1.15 1.15 0 0 1-1.139-1.031l-.006-.126v-1.03zm21.575-7.62c.398 0 .72.338.72.755v.67h9.458v-.67c0-.417.323-.755.721-.755h2.725c.398 0 .72.338.72.754v2.852c0 .416-.322.754-.72.754h-.641v6.88h.64c.399 0 .722.337.722.754v2.852c0 .416-.323.754-.721.754h-2.725c-.398 0-.721-.338-.721-.754v-.672h-9.457v.672c0 .416-.322.754-.72.754H52c-.398 0-.72-.338-.72-.754v-2.852c0-.416.322-.754.72-.754h.642v-6.88H52c-.398 0-.72-.337-.72-.754v-2.851c0-.417.322-.755.72-.755zm-.72 12.749H52.72v1.342h1.283V48.11zm13.623 0h-1.283v1.342h1.283V48.11zm-2.725-9.814h-9.457v.671c0 .417-.323.755-.721.755h-.641V46.6h.641c.399 0 .721.337.721.754v.671h9.457v-.67c0-.417.323-.755.72-.755h.642v-6.88h-.64c-.4 0-.722-.338-.722-.754v-.671zm-49.063 2.5h-2.038v2.058h2.038v-2.058zm21.638-.001H35.44v2.058h2.038v-2.058zm30.15-3.925h-1.283v1.342h1.283V36.87zm-13.624 0h-1.283v1.343h1.283v-1.343zM9.098 19.76c.93 0 1.692.711 1.766 1.616l.006.145v.118c0 .973-.793 1.761-1.772 1.761-.93 0-1.693-.711-1.767-1.616l-.005-.145v-.118c0-.973.793-1.761 1.772-1.761zm21.65 0c.978 0 1.771.788 1.771 1.76 0 .974-.793 1.762-1.771 1.762H16.423c-.98 0-1.772-.788-1.772-1.761 0-.973.792-1.761 1.772-1.761h14.325zm13.988 0c.98 0 1.772.788 1.772 1.76 0 .974-.792 1.762-1.772 1.762h-5.29a1.768 1.768 0 0 1-1.772-1.761c0-.973.796-1.761 1.772-1.761h5.29zm9.868 0c.977 0 1.773.788 1.773 1.76 0 .974-.796 1.762-1.773 1.762H53.05a1.766 1.766 0 0 1-1.772-1.761c0-.973.793-1.761 1.772-1.761h1.553zm17.107 0c.977 0 1.772.788 1.772 1.76 0 .974-.795 1.762-1.772 1.762h-8.194c-.98 0-1.773-.788-1.773-1.761 0-.973.793-1.761 1.773-1.761h8.194zm12.56-16.238H5.122c-.82 0-1.5.628-1.572 1.424l-.006.143v7.631H85.85V5.09c0-.863-.709-1.567-1.58-1.567zM9.125 6.24c.98 0 1.772.787 1.772 1.76s-.793 1.761-1.772 1.761c-.977 0-1.8-.788-1.8-1.76 0-.974.761-1.761 1.741-1.761h.059zm7.354 0c.979 0 1.772.787 1.772 1.76s-.793 1.761-1.772 1.761c-.977 0-1.829-.788-1.829-1.76 0-.974.734-1.761 1.712-1.761h.117zm7.297 0c.977 0 1.773.787 1.773 1.76s-.796 1.761-1.773 1.761c-.979 0-1.8-.788-1.8-1.76 0-.974.764-1.761 1.743-1.761h.057z" fill="#9B9B9B" fill-rule="evenodd"/></svg>