<?xml version="1.0" encoding="UTF-8"?>
<svg xmlns="http://www.w3.org/2000/svg" xmlns:xlink="http://www.w3.org/1999/xlink" width="20px" height="20px" viewBox="0 0 20 20" version="1.1">
<g id="surface1">
<path style=" stroke:none;fill-rule:evenodd;fill:rgb(98.823529%,98.823529%,98.823529%);fill-opacity:1;" d="M 0 10 L 0 20 L 20 20 L 20 0 L 0 0 L 0 10 M 10.671875 3.75 C 11.589844 3.859375 12.175781 4.003906 12.367188 4.167969 C 12.558594 4.328125 12.753906 4.4375 13.046875 4.539062 C 13.320312 4.636719 13.496094 4.761719 13.675781 4.988281 C 13.835938 5.191406 13.90625 5.25 14.121094 5.375 C 14.375 5.527344 14.511719 5.632812 14.664062 5.800781 C 14.734375 5.878906 14.886719 6.046875 15 6.167969 C 15.304688 6.488281 15.398438 6.636719 15.503906 6.980469 C 15.574219 7.207031 15.714844 7.488281 15.824219 7.636719 C 15.9375 7.789062 16.054688 8.234375 16.222656 9.160156 C 16.292969 9.53125 16.292969 10.46875 16.222656 10.839844 C 16.054688 11.765625 15.9375 12.210938 15.824219 12.363281 C 15.714844 12.511719 15.574219 12.792969 15.503906 13.019531 C 15.398438 13.363281 15.304688 13.511719 15 13.832031 C 14.886719 13.953125 14.734375 14.121094 14.664062 14.199219 C 14.511719 14.367188 14.375 14.472656 14.121094 14.625 C 13.90625 14.75 13.835938 14.808594 13.675781 15.011719 C 13.496094 15.238281 13.320312 15.363281 13.046875 15.460938 C 12.753906 15.5625 12.558594 15.671875 12.367188 15.832031 C 12.101562 16.058594 10.933594 16.28125 10 16.28125 C 9.066406 16.28125 7.898438 16.058594 7.632812 15.832031 C 7.441406 15.671875 7.246094 15.5625 6.953125 15.460938 C 6.679688 15.363281 6.503906 15.238281 6.324219 15.011719 C 6.164062 14.808594 6.09375 14.75 5.878906 14.625 C 5.625 14.472656 5.488281 14.367188 5.335938 14.199219 C 5.265625 14.121094 5.113281 13.953125 5 13.832031 C 4.695312 13.511719 4.601562 13.363281 4.496094 13.019531 C 4.425781 12.792969 4.285156 12.511719 4.175781 12.363281 C 4.0625 12.210938 3.945312 11.765625 3.777344 10.839844 C 3.707031 10.46875 3.707031 9.53125 3.777344 9.160156 C 3.945312 8.234375 4.0625 7.789062 4.175781 7.636719 C 4.285156 7.488281 4.425781 7.207031 4.496094 6.980469 C 4.601562 6.636719 4.695312 6.488281 5 6.167969 C 5.113281 6.046875 5.265625 5.878906 5.335938 5.800781 C 5.488281 5.632812 5.625 5.527344 5.878906 5.375 C 6.09375 5.25 6.164062 5.191406 6.324219 4.988281 C 6.503906 4.761719 6.679688 4.636719 6.953125 4.539062 C 7.246094 4.4375 7.441406 4.328125 7.632812 4.167969 C 7.824219 4.003906 8.433594 3.855469 9.371094 3.742188 C 9.609375 3.714844 10.40625 3.71875 10.671875 3.75 M 8.417969 7.96875 C 8.136719 8.066406 7.96875 8.277344 7.925781 8.570312 C 7.90625 8.726562 8.203125 9.078125 8.546875 9.308594 C 8.640625 9.371094 8.742188 9.449219 8.769531 9.484375 L 8.820312 9.542969 L 8.820312 10.457031 L 8.769531 10.515625 C 8.742188 10.550781 8.640625 10.628906 8.546875 10.691406 C 8.203125 10.921875 7.90625 11.273438 7.925781 11.429688 C 7.972656 11.769531 8.230469 12.027344 8.570312 12.074219 C 8.726562 12.09375 9.078125 11.796875 9.308594 11.453125 C 9.371094 11.359375 9.449219 11.257812 9.484375 11.230469 L 9.542969 11.179688 L 10.457031 11.179688 L 10.515625 11.230469 C 10.550781 11.257812 10.628906 11.359375 10.691406 11.453125 C 10.921875 11.796875 11.273438 12.09375 11.429688 12.074219 C 11.769531 12.027344 12.027344 11.769531 12.074219 11.429688 C 12.09375 11.273438 11.796875 10.921875 11.453125 10.691406 C 11.359375 10.628906 11.257812 10.550781 11.230469 10.515625 L 11.179688 10.457031 L 11.179688 9.542969 L 11.230469 9.484375 C 11.257812 9.449219 11.359375 9.371094 11.453125 9.308594 C 11.796875 9.078125 12.09375 8.726562 12.074219 8.570312 C 12.027344 8.230469 11.769531 7.972656 11.429688 7.925781 C 11.273438 7.90625 10.921875 8.203125 10.691406 8.546875 C 10.628906 8.640625 10.550781 8.742188 10.515625 8.769531 L 10.457031 8.820312 L 9.542969 8.820312 L 9.484375 8.769531 C 9.449219 8.742188 9.371094 8.640625 9.308594 8.546875 C 9.109375 8.246094 8.742188 7.917969 8.605469 7.921875 C 8.574219 7.921875 8.488281 7.941406 8.417969 7.96875 "/>
<path style=" stroke:none;fill-rule:evenodd;fill:rgb(74.509805%,74.509805%,74.509805%);fill-opacity:1;" d="M 9.371094 3.742188 C 8.433594 3.855469 7.824219 4.003906 7.632812 4.167969 C 7.441406 4.328125 7.246094 4.4375 6.953125 4.539062 C 6.679688 4.636719 6.503906 4.761719 6.324219 4.988281 C 6.164062 5.191406 6.09375 5.25 5.878906 5.375 C 5.625 5.527344 5.488281 5.632812 5.335938 5.800781 C 5.265625 5.878906 5.113281 6.046875 5 6.167969 C 4.695312 6.488281 4.601562 6.636719 4.496094 6.980469 C 4.425781 7.207031 4.285156 7.488281 4.175781 7.636719 C 4.0625 7.789062 3.945312 8.234375 3.777344 9.160156 C 3.707031 9.53125 3.707031 10.46875 3.777344 10.839844 C 3.945312 11.765625 4.0625 12.210938 4.175781 12.363281 C 4.285156 12.511719 4.425781 12.792969 4.496094 13.019531 C 4.601562 13.363281 4.695312 13.511719 5 13.832031 C 5.113281 13.953125 5.265625 14.121094 5.335938 14.199219 C 5.488281 14.367188 5.625 14.472656 5.878906 14.625 C 6.09375 14.75 6.164062 14.808594 6.324219 15.011719 C 6.503906 15.238281 6.679688 15.363281 6.953125 15.460938 C 7.246094 15.5625 7.441406 15.671875 7.632812 15.832031 C 7.898438 16.058594 9.066406 16.28125 10 16.28125 C 10.933594 16.28125 12.101562 16.058594 12.367188 15.832031 C 12.558594 15.671875 12.753906 15.5625 13.046875 15.460938 C 13.320312 15.363281 13.496094 15.238281 13.675781 15.011719 C 13.835938 14.808594 13.90625 14.75 14.121094 14.625 C 14.375 14.472656 14.511719 14.367188 14.664062 14.199219 C 14.734375 14.121094 14.886719 13.953125 15 13.832031 C 15.304688 13.511719 15.398438 13.363281 15.503906 13.019531 C 15.574219 12.792969 15.714844 12.511719 15.824219 12.363281 C 15.9375 12.210938 16.054688 11.765625 16.222656 10.839844 C 16.292969 10.46875 16.292969 9.53125 16.222656 9.160156 C 16.054688 8.234375 15.9375 7.789062 15.824219 7.636719 C 15.714844 7.488281 15.574219 7.207031 15.503906 6.980469 C 15.398438 6.636719 15.304688 6.488281 15 6.167969 C 14.886719 6.046875 14.734375 5.878906 14.664062 5.800781 C 14.511719 5.632812 14.375 5.527344 14.121094 5.375 C 13.90625 5.25 13.835938 5.191406 13.675781 4.988281 C 13.496094 4.761719 13.320312 4.636719 13.046875 4.539062 C 12.753906 4.4375 12.558594 4.328125 12.367188 4.167969 C 12.03125 3.878906 10.28125 3.632812 9.371094 3.742188 M 8.785156 8.003906 C 8.957031 8.121094 9.175781 8.34375 9.308594 8.546875 C 9.371094 8.640625 9.449219 8.742188 9.484375 8.769531 L 9.542969 8.820312 L 10.457031 8.820312 L 10.515625 8.769531 C 10.550781 8.742188 10.628906 8.640625 10.691406 8.546875 C 10.921875 8.203125 11.273438 7.90625 11.429688 7.925781 C 11.769531 7.972656 12.027344 8.230469 12.074219 8.570312 C 12.09375 8.726562 11.796875 9.078125 11.453125 9.308594 C 11.359375 9.371094 11.257812 9.449219 11.230469 9.484375 L 11.179688 9.542969 L 11.179688 10.457031 L 11.230469 10.515625 C 11.257812 10.550781 11.359375 10.628906 11.453125 10.691406 C 11.796875 10.921875 12.09375 11.273438 12.074219 11.429688 C 12.027344 11.769531 11.769531 12.027344 11.429688 12.074219 C 11.273438 12.09375 10.921875 11.796875 10.691406 11.453125 C 10.628906 11.359375 10.550781 11.257812 10.515625 11.230469 L 10.457031 11.179688 L 9.542969 11.179688 L 9.484375 11.230469 C 9.449219 11.257812 9.371094 11.359375 9.308594 11.453125 C 9.078125 11.796875 8.726562 12.09375 8.570312 12.074219 C 8.230469 12.027344 7.972656 11.769531 7.925781 11.429688 C 7.90625 11.273438 8.203125 10.921875 8.546875 10.691406 C 8.640625 10.628906 8.742188 10.550781 8.769531 10.515625 L 8.820312 10.457031 L 8.820312 9.542969 L 8.769531 9.484375 C 8.742188 9.449219 8.640625 9.371094 8.546875 9.308594 C 8.203125 9.078125 7.90625 8.726562 7.925781 8.570312 C 7.992188 8.105469 8.46875 7.789062 8.785156 8.003906 "/>
</g>
</svg>
