<svg xmlns="http://www.w3.org/2000/svg" viewBox="0 0 1203 133" width="128" height="14.2"><g class="brand-ink" fill="#000000" transform="translate(0,0) scale(0.1,-0.1) translate(0,-1290)"><path d="M260 1261 c-89 -27 -154 -81 -192 -159 -63 -128 -37 -267 71 -370 34
-33 100 -74 202 -127 116 -61 161 -90 193 -126 65 -73 81 -149 47 -224 -36
-80 -110 -120 -221 -119 -53 0 -75 6 -119 29 -65 36 -97 81 -112 160 -14 71
-25 86 -67 87 -52 2 -65 -17 -58 -85 12 -122 85 -220 204 -275 119 -54 303
-36 403 41 25 19 57 58 78 97 33 60 36 71 35 146 -1 157 -66 237 -301 364
-212 116 -276 191 -258 304 10 58 37 98 87 126 36 21 56 25 125 25 74 0 85 -3
124 -30 54 -38 78 -79 86 -147 8 -76 17 -88 61 -88 51 0 62 14 62 80 0 87 -25
147 -86 207 -72 70 -136 93 -252 92 -48 0 -98 -4 -112 -8z"/><path d="M2801 1206 c-9 -10 -11 -140 -9 -498 3 -466 4 -485 24 -528 31 -67
68 -106 132 -137 50 -24 68 -28 142 -27 105 1 161 24 224 95 59 66 76 129 76
291 0 142 -4 151 -67 146 l-38 -3 -6 -140 c-7 -165 -19 -201 -79 -241 -34 -23
-53 -28 -104 -28 -80 0 -123 24 -153 84 -22 43 -23 52 -23 362 l0 318 208 1
c114 1 218 4 232 8 19 5 26 14 28 40 6 60 3 61 -249 61 l-229 0 0 93 c0 59 -4
97 -12 105 -17 17 -83 15 -97 -2z"/><path d="M2108 1007 c-174 -50 -252 -260 -151 -409 36 -53 84 -80 210 -121
134 -43 204 -77 225 -109 79 -121 -41 -259 -201 -228 -100 19 -135 45 -176
133 -16 34 -20 37 -61 37 -52 0 -67 -19 -55 -73 20 -88 98 -166 196 -196 233
-72 447 46 447 247 0 144 -75 215 -290 278 -139 41 -194 78 -213 146 -12 47 3
112 34 147 30 33 94 61 141 61 94 0 165 -46 195 -129 13 -35 24 -46 54 -58 68
-28 87 19 43 112 -49 106 -142 164 -274 171 -46 2 -96 -1 -124 -9z"/><path d="M5640 1008 c-59 -17 -134 -81 -146 -125 -12 -43 -24 -23 -24 40 0 36
-5 68 -12 75 -7 7 -31 12 -55 12 -32 0 -45 -5 -53 -20 -7 -13 -10 -170 -8
-485 3 -401 5 -467 18 -475 21 -14 84 -12 98 2 9 9 12 97 12 333 0 343 4 381
51 449 64 94 212 117 293 45 67 -58 69 -73 74 -469 3 -313 5 -356 20 -368 24
-18 69 -15 92 8 19 19 20 33 20 324 0 339 -14 454 -65 541 -57 98 -194 148
-315 113z"/><path d="M980 991 c-6 -13 -10 -142 -10 -353 0 -269 3 -345 15 -393 24 -92 83
-161 175 -204 46 -21 69 -25 145 -25 76 0 99 4 145 26 70 32 126 88 159 158
l26 55 3 350 c2 228 0 360 -7 378 -9 24 -16 27 -54 27 -24 0 -48 -5 -55 -12
-9 -9 -12 -100 -12 -348 0 -387 -4 -414 -69 -473 -45 -41 -85 -51 -171 -45
-70 5 -121 39 -153 102 -19 37 -20 56 -18 393 2 262 -1 358 -10 369 -18 22
-96 19 -109 -5z"/></g><g class="brand-teal" fill="#00B394" transform="translate(0,0) scale(0.1,-0.1) translate(0,-1290)"><path d="M3920 1257 c-14 -7 -30 -24 -37 -37 -6 -14 -41 -155 -76 -315 -36
-159 -94 -415 -128 -567 -61 -270 -62 -278 -44 -298 14 -15 31 -20 72 -20 60
0 87 11 103 40 25 46 175 771 245 1183 4 27 4 27 -53 27 -31 0 -68 -6 -82 -13z"/><path d="M4150 1257 c0 -54 147 -796 215 -1086 33 -137 44 -151 121 -151 71 0
94 12 94 50 0 16 -25 141 -56 277 -185 828 -191 854 -200 878 -10 26 -60 45
-119 45 -38 0 -55 -4 -55 -13z"/><path d="M4850 1258 c-13 -7 -27 -24 -31 -38 -4 -14 -7 -273 -8 -577 -1 -546
2 -596 32 -615 22 -14 122 -9 145 8 l22 15 0 588 c0 477 -3 591 -14 606 -17
23 -110 32 -146 13z"/></g><g class="brand-ink" fill="#000000" transform="translate(626,0) scale(0.1,-0.1) translate(0,-1330)"><path d="M774 1306 c-35 -15 -44 -32 -44 -81 0 -58 68 -93 123 -63 51 27 62
80 25 122 -29 32 -64 39 -104 22z"/><path d="M10 1231 c-16 -31 -13 -1159 3 -1191 l13 -25 254 0 254 0 6 25 c4 14
4 36 0 50 l-6 25 -197 5 -197 5 -2 546 c-3 445 -6 549 -17 562 -20 25 -97 23
-111 -2z"/><path d="M762 984 l-22 -15 0 -460 c0 -298 4 -467 10 -480 8 -14 21 -19 53
-19 24 0 48 5 55 12 9 9 12 129 12 479 0 412 -2 469 -16 483 -20 20 -63 20
-92 0z"/><path d="M1110 985 c-10 -12 -7 -34 13 -112 13 -54 59 -235 102 -403 111 -441
109 -436 147 -449 39 -14 138 -14 172 -1 15 5 33 24 40 42 8 18 63 230 121
471 116 474 115 467 51 467 -49 0 -71 -22 -89 -92 -29 -110 -137 -557 -173
-717 -30 -135 -44 -184 -44 -156 0 9 -100 439 -170 725 -53 223 -62 240 -125
240 -18 0 -38 -7 -45 -15z"/></g><g class="brand-ink" fill="#000000" transform="translate(831,0) scale(0.1,-0.1) translate(0,-1330)"><path d="M3100 1317 l-25 -13 -3 -626 c-2 -560 0 -628 14 -642 18 -19 75 -21
92 -4 9 9 12 164 12 638 0 344 -4 630 -8 637 -12 19 -55 24 -82 10z"/><path d="M1295 1256 c-20 -14 -19 -10 -150 -671 -89 -446 -106 -527 -110 -523
-2 2 -19 102 -39 223 -20 121 -43 258 -51 305 -8 47 -31 180 -50 295 -52 303
-63 353 -85 365 -10 6 -59 10 -109 10 -110 0 -112 -2 -135 -140 -58 -341 -170
-981 -182 -1043 -3 -16 -7 -27 -9 -25 -2 2 -56 266 -120 588 -74 370 -123 591
-133 603 -19 21 -94 23 -111 3 -14 -17 -24 34 109 -616 56 -272 104 -511 107
-530 3 -19 15 -45 26 -57 19 -21 30 -23 117 -23 82 0 100 3 114 19 11 12 28
82 51 212 18 107 52 302 75 434 23 132 48 274 56 315 8 41 19 108 26 148 6 39
14 72 17 72 4 0 21 -87 40 -192 18 -106 39 -224 47 -263 7 -38 19 -110 28
-160 45 -258 59 -336 72 -404 8 -40 14 -83 14 -96 0 -12 9 -34 21 -49 19 -25
25 -26 113 -26 83 0 95 2 113 23 21 21 44 128 235 1078 12 58 19 113 15 122
-8 21 -84 23 -112 3z"/><path d="M1775 1007 c-93 -31 -158 -89 -199 -176 -20 -43 -21 -61 -21 -316 l0
-270 27 -52 c45 -84 121 -148 202 -167 16 -4 65 -7 108 -7 126 0 225 56 281
158 39 73 50 168 45 393 -4 165 -8 203 -25 247 -30 76 -74 125 -144 163 -53
28 -74 33 -148 36 -54 3 -101 -1 -126 -9z m178 -112 c49 -8 111 -67 126 -120
15 -55 15 -466 -1 -516 -15 -53 -69 -106 -121 -120 -68 -18 -153 -6 -196 29
-73 59 -76 69 -79 330 -3 195 -1 241 13 282 20 59 70 107 122 115 21 4 43 8
48 10 6 2 19 1 30 0 11 -2 37 -7 58 -10z"/><path d="M2782 1007 c-47 -15 -117 -80 -144 -135 l-23 -47 -3 80 c-2 43 -8 85
-14 92 -6 7 -30 13 -54 13 -33 0 -46 -5 -54 -19 -6 -13 -10 -182 -10 -480 0
-509 -2 -491 65 -491 65 0 65 -2 65 340 0 291 1 313 21 367 36 97 123 163 215
163 45 0 57 13 57 62 0 25 -3 50 -7 56 -9 14 -69 14 -114 -1z"/><path d="M3583 993 c-11 -10 -61 -92 -110 -183 -151 -275 -155 -283 -149 -310
2 -14 67 -126 143 -250 130 -210 141 -225 173 -232 44 -9 80 0 80 19 0 8 -62
117 -139 243 -136 225 -138 229 -124 257 8 15 64 119 124 230 61 111 109 210
107 220 -5 26 -78 30 -105 6z"/></g></svg>