<?xml version="1.0" encoding="UTF-8"?>
<svg version="1.1" xmlns="http://www.w3.org/2000/svg" width="530" height="160">
<path d="M0 0 C6.98258904 5.12019378 12.84016315 11.62474666 18.87158203 17.80566406 C20.27623628 19.23042418 21.68182866 20.65426005 23.08837891 22.07714844 C25.66624184 24.68745724 28.23862986 27.30289646 30.80444336 29.92504883 C33.53728717 32.71670165 36.29246712 35.48492907 39.05908203 38.24316406 C39.63271484 38.82839844 40.20634766 39.41363281 40.79736328 40.01660156 C43.79918207 43.07056113 46.85990104 45.96700047 50.12158203 48.74316406 C52.76027112 51.00489757 55.04444715 53.30543021 57.24658203 55.99316406 C59.54790479 58.79888633 61.7733363 60.6002912 65.05908203 62.24316406 C72.02662618 55.89803081 78.2766023 48.9776753 79.26220703 39.23535156 C79.44832351 30.82909055 77.85210599 23.95181867 72.43408203 17.36816406 C66.79028784 11.52833314 60.39391679 8.763231 52.30908203 8.21582031 C44.87889301 8.30611775 39.8461354 10.6223734 33.90673828 15.00097656 C32.05908203 16.24316406 32.05908203 16.24316406 30.05908203 16.24316406 C30.05908203 16.90316406 30.05908203 17.56316406 30.05908203 18.24316406 C27.06687935 16.87946107 24.76881674 15.29408323 22.30908203 13.11816406 C21.69548828 12.57933594 21.08189453 12.04050781 20.44970703 11.48535156 C19.99080078 11.07542969 19.53189453 10.66550781 19.05908203 10.24316406 C19.79224951 5.40210231 22.67988243 3.25404991 26.29736328 0.21582031 C37.38611307 -7.70471525 49.98114186 -8.24742133 63.04345703 -6.31542969 C74.97828051 -3.29371483 83.35008824 4.38228376 89.52392578 14.68847656 C95.71351865 26.13473816 96.55304746 38.52115082 92.87158203 51.05566406 C88.98403483 61.07853457 81.35754168 68.60573386 74.05908203 76.24316406 C73.34623047 76.99726562 72.63337891 77.75136719 71.89892578 78.52832031 C67.47215021 83.10547467 67.47215021 83.10547467 64.05908203 84.24316406 C56.6238357 79.72185244 50.32114028 71.57670314 44.2219429 65.38949394 C42.24783086 63.38842784 40.26910639 61.39203234 38.28890991 59.39698792 C32.66398215 53.72962034 27.04182859 48.05959361 21.43603516 42.37329102 C17.99260321 38.88108208 14.53926489 35.39893438 11.0794487 31.92296028 C9.77216814 30.60584971 8.46853329 29.28510927 7.1688118 27.96053886 C-2.70905127 17.89798042 -11.97163494 8.52739096 -26.94091797 8.24316406 C-34.6300014 9.09220677 -41.67049664 11.37494031 -46.94091797 17.24316406 C-52.040686 25.31354697 -53.85725936 32.74418851 -52.94091797 42.24316406 C-50.34378653 51.50379274 -44.16597686 58.43286821 -36.94482422 64.46191406 C-34.91151205 66.26930266 -33.19464705 68.16585399 -31.44091797 70.24316406 C-29.18517489 72.91381516 -26.87725208 75.2570867 -24.20849609 77.51293945 C-20.00457322 81.14262943 -16.07024269 84.98554017 -12.15966797 88.92675781 C-11.46071411 89.62712662 -10.76176025 90.32749542 -10.04162598 91.04908752 C-7.83900258 93.25724864 -5.63990716 95.46888444 -3.44091797 97.68066406 C-1.93594289 99.1906622 -0.43073662 100.70042996 1.07470703 102.20996094 C4.73884032 105.88504047 8.39981683 109.56323762 12.05908203 113.24316406 C15.01762744 111.91513838 17.04856912 110.48417996 19.29541016 108.15454102 C19.90284058 107.53082108 20.510271 106.90710114 21.1361084 106.26448059 C21.7810022 105.59357895 22.425896 104.92267731 23.09033203 104.23144531 C24.47141373 102.82021833 25.85293749 101.40942386 27.23486328 99.99902344 C29.40604556 97.7718981 31.57310562 95.54112534 33.73242188 93.30249023 C35.81988978 91.14275471 37.92250075 88.99875065 40.02783203 86.85644531 C40.67272583 86.17947098 41.31761963 85.50249664 41.98205566 84.80500793 C42.58948608 84.19074448 43.1969165 83.57648102 43.82275391 82.94360352 C44.35251831 82.39670364 44.88228271 81.84980377 45.42810059 81.28633118 C47.05908203 80.24316406 47.05908203 80.24316406 49.13903809 80.48136902 C51.56723308 81.44477765 53.01187108 82.72727456 54.87158203 84.55566406 C55.49677734 85.14992188 56.12197266 85.74417969 56.76611328 86.35644531 C58.05908203 88.24316406 58.05908203 88.24316406 57.88972473 90.08500671 C56.7942105 92.93134737 55.20608712 94.49199692 53.06176758 96.66040039 C51.78990852 97.95612724 51.78990852 97.95612724 50.49235535 99.2780304 C49.56949234 100.20109482 48.64662933 101.12415924 47.69580078 102.07519531 C46.74244606 103.03565106 45.78939135 103.99640468 44.83662415 104.95744324 C42.84017409 106.96732992 40.83789406 108.97118955 38.83178711 110.97143555 C36.25896598 113.53834777 33.70489814 116.12307284 31.15530682 118.71303272 C29.19339247 120.70075855 27.22016138 122.67693881 25.24347878 124.6499691 C23.83573123 126.06023812 22.4391151 127.48159014 21.04264832 128.9030304 C20.1852858 129.75108749 19.32792328 130.59914459 18.44458008 131.47290039 C17.69258835 132.22694656 16.94059662 132.98099274 16.16581726 133.75788879 C14.05908203 135.24316406 14.05908203 135.24316406 12.12146378 135.00581646 C9.8255869 134.15681942 8.68211749 133.2455824 6.95423889 131.52600098 C6.36697525 130.94864197 5.77971161 130.37128296 5.1746521 129.77642822 C4.54233673 129.13961121 3.91002136 128.50279419 3.25854492 127.84667969 C2.58324234 127.17824036 1.90793976 126.50980103 1.21217346 125.82110596 C-1.02239835 123.60486174 -3.24567697 121.37767508 -5.46826172 119.14941406 C-7.01961762 117.60261918 -8.57134517 116.05619696 -10.12342834 114.51013184 C-13.37909888 111.26340572 -16.62901121 108.0110441 -19.87524414 104.75488281 C-24.0238338 100.59483996 -28.18799297 96.45079392 -32.35690975 92.31113434 C-35.56827921 89.11817373 -38.77021891 85.91588466 -41.96954536 82.71086121 C-43.50017965 81.18007407 -45.03390065 79.65236662 -46.57081413 78.12788391 C-48.72731454 75.98636778 -50.87053019 73.83234194 -53.01098633 71.67480469 C-53.95642303 70.74386993 -53.95642303 70.74386993 -54.92095947 69.79412842 C-64.00313884 60.56058844 -68.76718662 48.9959124 -69.19091797 36.11816406 C-69.02476721 23.8728529 -64.9726063 13.41373457 -56.62841797 4.43066406 C-52.81476542 0.86846113 -48.6523835 -1.55815202 -43.94091797 -3.75683594 C-43.30025391 -4.0778125 -42.65958984 -4.39878906 -41.99951172 -4.72949219 C-28.67093222 -10.33740724 -11.93356352 -7.26620445 0 0 Z " fill="#728867" transform="translate(78.94091796875,15.7568359375)"/>
<path d="M0 0 C2.97 0 5.94 0 9 0 C11.26495606 2.26821499 12.43187551 3.78753383 13.9375 6.5 C14.34516602 7.1705542 14.75283203 7.8411084 15.17285156 8.53198242 C16.03368383 9.95149945 16.88127374 11.37912075 17.71630859 12.81396484 C19.40050885 15.68203808 21.18389769 18.48185439 22.96704102 21.2890625 C27.09053035 27.79248393 31.03765387 34.39608979 35 41 C35.33 27.47 35.66 13.94 36 0 C38.64 0 41.28 0 44 0 C44 19.14 44 38.28 44 58 C41.03 58 38.06 58 35 58 C32.87577699 55.8724527 31.89807989 54.56797607 30.5625 52 C29.81821299 50.71324963 29.07340049 49.4268031 28.328125 48.140625 C27.95107422 47.46322266 27.57402344 46.78582031 27.18554688 46.08789062 C25.18501474 42.56471295 22.98420923 39.16920881 20.8125 35.75 C17.5328207 30.50866683 14.30639912 25.23842409 11.15625 19.91796875 C10.15057576 18.24977263 9.08049262 16.62073893 8 15 C8.00523682 16.26706787 8.01047363 17.53413574 8.01586914 18.83959961 C8.03391514 23.5228607 8.04543053 28.20611871 8.05493164 32.8894043 C8.05997278 34.91968298 8.06680557 36.94995802 8.07543945 38.98022461 C8.08751467 41.89177347 8.09323034 44.8032745 8.09765625 47.71484375 C8.10281754 48.6283812 8.10797882 49.54191864 8.11329651 50.48313904 C8.11349168 52.65575427 8.06211805 54.82827296 8 57 C7.505 57.495 7.505 57.495 7 58 C4.69 58 2.38 58 0 58 C0 38.86 0 19.72 0 0 Z " fill="#536E5F" transform="translate(422,51)"/>
<path d="M0 0 C9.62895528 0.78755344 16.71475163 3.57920831 23.3671875 10.76171875 C28.56716438 17.81708645 28.82557645 26.56163268 28.03125 35.01953125 C26.6630184 43.54940751 22.83275653 49.24554712 16.078125 54.5546875 C8.22987954 59.85379812 0.30796499 60.32835494 -8.90625 60.20703125 C-9.86337891 60.20638672 -10.82050781 60.20574219 -11.80664062 60.20507812 C-18.82805246 60.16022879 -18.82805246 60.16022879 -19.96875 59.01953125 C-20.06251053 57.208981 -20.0861911 55.39475924 -20.08227539 53.58178711 C-20.08219986 52.42065903 -20.08212433 51.25953094 -20.08204651 50.06321716 C-20.07688522 48.79969925 -20.07172394 47.53618134 -20.06640625 46.234375 C-20.0649913 44.94841934 -20.06357635 43.66246368 -20.06211853 42.33753967 C-20.05829418 38.91309682 -20.04846462 35.48869616 -20.03741455 32.06427002 C-20.02719864 28.57214936 -20.02262053 25.08002191 -20.01757812 21.58789062 C-20.00684227 14.73175347 -19.98976684 7.87564438 -19.96875 1.01953125 C-17.32875 1.01953125 -14.68875 1.01953125 -11.96875 1.01953125 C-11.63875 17.84953125 -11.30875 34.67953125 -10.96875 52.01953125 C2.03090249 52.14541402 2.03090249 52.14541402 13.03125 46.01953125 C17.51484532 39.03546931 18.75803153 32.23585805 18.03125 24.01953125 C17.25518698 21.18666316 16.21792353 18.7251469 15.03125 16.01953125 C14.53625 14.53453125 14.53625 14.53453125 14.03125 13.01953125 C12.24896064 11.87743308 12.24896064 11.87743308 10.03125 11.01953125 C8.9175 10.52453125 8.9175 10.52453125 7.78125 10.01953125 C4.24585899 8.73393452 0.69154662 7.88807621 -2.96875 7.01953125 C-3.01129356 5.01998379 -3.00955783 3.01911489 -2.96875 1.01953125 C-1.96875 0.01953125 -1.96875 0.01953125 0 0 Z " fill="#536E5F" transform="translate(323.96875,49.98046875)"/>
<path d="M0 0 C2.64 0 5.28 0 8 0 C9.68300669 1.68300669 9.22809077 3.82008727 9.31640625 6.12890625 C9.37924805 7.68061523 9.37924805 7.68061523 9.44335938 9.26367188 C9.48267578 10.35228516 9.52199219 11.44089844 9.5625 12.5625 C9.60568359 13.65498047 9.64886719 14.74746094 9.69335938 15.87304688 C9.79982068 18.58189564 9.90183516 21.29083992 10 24 C11.16837238 22.50946612 12.33663395 21.01884527 13.50439453 19.52783203 C14.50684755 18.25242902 15.51308084 16.97998879 16.52294922 15.71044922 C18.83350088 12.80034733 21.07229998 9.8960527 23.1953125 6.84375 C27.8538969 0.28023838 27.8538969 0.28023838 31.4921875 -0.609375 C33.75883862 -0.62349744 35.78466841 -0.46152742 38 0 C37.50578113 4.49579745 35.98098147 6.52820227 32.875 9.75 C31.67037109 11.04744141 31.67037109 11.04744141 30.44140625 12.37109375 C29.63574219 13.23863281 28.83007812 14.10617188 28 15 C26.57846029 16.5814317 25.17994743 18.18406857 23.8125 19.8125 C23.22082031 20.49957031 22.62914062 21.18664062 22.01953125 21.89453125 C20.72579105 23.99406014 20.72579105 23.99406014 21.59765625 26.41015625 C23.14165969 29.26161665 24.80749441 31.93856743 26.625 34.625 C27.33269531 35.67171875 28.04039062 36.7184375 28.76953125 37.796875 C31.51230455 41.73570881 34.34920155 45.59711523 37.23828125 49.4296875 C39.12201771 52.1780214 40.57492083 54.99198673 42 58 C38.43330867 58.80418093 35.55214965 58.94524991 32 58 C28.25234848 54.52626321 25.68737761 50.30757381 23 46 C22.14867678 44.69345534 21.29445602 43.38879457 20.4375 42.0859375 C18.2531427 38.74733398 16.11631544 35.38210221 14 32 C11.93144022 33.16331537 11.93144022 33.16331537 10 35 C9.37625205 37.38694021 9.37625205 37.38694021 9.42578125 40.0703125 C9.39806641 41.04871094 9.37035156 42.02710938 9.34179688 43.03515625 C9.33212891 44.05480469 9.32246094 45.07445312 9.3125 46.125 C9.27060787 48.14851705 9.22522895 50.17196598 9.17578125 52.1953125 C9.16458252 53.09266113 9.15338379 53.99000977 9.1418457 54.91455078 C9 57 9 57 8 58 C5.36 58 2.72 58 0 58 C0 38.86 0 19.72 0 0 Z " fill="#536E5F" transform="translate(478,51)"/>
<path d="M0 0 C2.64 0 5.28 0 8 0 C11.76272741 7.80894799 14.21080337 15.88920037 16.625 24.1875 C17.21811749 26.20559918 17.81297062 28.22317761 18.40853882 30.24055481 C18.94536224 32.06210023 19.47793967 33.88489542 20.01025391 35.70776367 C20.94811511 38.82741298 21.9528215 41.91553543 23 45 C25.05944674 39.57442833 27.0166129 34.12752375 28.8828125 28.6328125 C29.41536015 27.07291515 29.94791236 25.51301936 30.48046875 23.953125 C31.30816632 21.5238944 32.13538244 19.09450045 32.96240234 16.66503906 C33.76804625 14.29973296 34.5753641 11.93500309 35.3828125 9.5703125 C35.6307254 8.84014923 35.87863831 8.10998596 36.13406372 7.35769653 C37.88703085 2.22593829 37.88703085 2.22593829 39 0 C41.64 0 44.28 0 47 0 C46.45084009 6.90138278 44.52883232 12.8821583 42.1875 19.375 C41.84396484 20.35210937 41.50042969 21.32921875 41.14648438 22.3359375 C39.20510064 27.81406346 37.13072017 33.22083491 34.94848633 38.60693359 C33.44161342 42.40883018 32.09227439 46.26253696 30.75 50.125 C30.481875 50.89070313 30.21375 51.65640625 29.9375 52.4453125 C29.28969432 54.29618586 28.64455082 56.14799065 28 58 C24.7 58 21.4 58 18 58 C15.94550824 52.59938357 14.00994061 47.17816124 12.1875 41.6953125 C11.80501099 40.54928055 11.80501099 40.54928055 11.41479492 39.38009644 C10.8796343 37.77529027 10.34521972 36.17023514 9.81152344 34.56494141 C9.00418898 32.13759467 8.19366636 29.71132928 7.3828125 27.28515625 C0 5.15432934 0 5.15432934 0 0 Z " fill="#536E5F" transform="translate(250,51)"/>
<path d="M0 0 C0.75087891 -0.01224609 1.50175781 -0.02449219 2.27539062 -0.03710938 C6.49897648 -0.0482534 9.70553716 0.2475167 13.5625 2.1875 C13.2325 4.1675 12.9025 6.1475 12.5625 8.1875 C9.16154027 9.32115324 7.029548 8.89666891 3.5625 8.1875 C-3.62831757 7.57810868 -10.35875932 8.88837875 -16.11328125 13.54296875 C-21.33365301 19.28691762 -21.84354796 26.13483263 -21.69140625 33.5390625 C-21.13128733 39.38153373 -18.52510886 43.98310231 -14.4375 48.1875 C-5.88003531 53.1793544 2.06706768 52.54399033 11.5625 51.1875 C13.5625 54.1875 13.5625 54.1875 13.5 56.25 C12.5625 58.1875 12.5625 58.1875 10.55078125 59.28515625 C2.77729554 61.63244409 -8.17305745 61.67819745 -15.6875 58.5 C-17.6875 57.37109375 -17.6875 57.37109375 -19.4375 56.1875 C-21.04625 55.135625 -21.04625 55.135625 -22.6875 54.0625 C-29.20571514 47.24800235 -31.23190683 40.04418831 -31.56640625 30.71875 C-31.2385277 21.73686493 -29.16879404 13.47097407 -22.4375 7.1875 C-14.88797545 1.73705337 -9.24849476 0.00789795 0 0 Z " fill="#536E5F" transform="translate(232.4375,49.8125)"/>
<path d="M0 0 C2.82258343 1.29752746 5.04801938 2.68287679 7.3125 4.8125 C7.84488281 5.29332031 8.37726563 5.77414063 8.92578125 6.26953125 C10 8 10 8 9.91992188 10.2199707 C8.64606411 14.06960403 6.17257344 16.41919079 3.35546875 19.2109375 C2.78927322 19.7833316 2.2230777 20.35572571 1.63972473 20.94546509 C0.44345645 22.14882089 -0.75795253 23.34708529 -1.96411133 24.54052734 C-3.8115686 26.37407562 -5.63371825 28.23041094 -7.45507812 30.08984375 C-8.62094419 31.2566606 -9.78821534 32.42207556 -10.95703125 33.5859375 C-11.50196732 34.14413177 -12.04690338 34.70232605 -12.60835266 35.2774353 C-14.17504883 36.80615234 -14.17504883 36.80615234 -17 39 C-20.51848931 38.88954732 -22.33447439 37.14977217 -24.8125 34.75 C-25.43769531 34.16734375 -26.06289062 33.5846875 -26.70703125 32.984375 C-28 31 -28 31 -27.95703125 28.50390625 C-26.78346515 25.43347412 -25.42496242 24.24043585 -22.875 22.1875 C-19.85631189 19.64819475 -17.14840524 17.15676116 -14.625 14.125 C-10.23274183 8.9124383 -5.10013886 4.50066504 0 0 Z " fill="#536E5F" transform="translate(100,70)"/>
<path d="M0 0 C2.64 0 5.28 0 8 0 C8 16.83 8 33.66 8 51 C15.92 51 23.84 51 32 51 C33 52 33 52 33 58 C22.11 58 11.22 58 0 58 C0 38.86 0 19.72 0 0 Z " fill="#536E5F" transform="translate(361,51)"/>
<path d="M0 0 C3.33022734 1.2768712 5.81232255 2.36435661 8.375 4.875 C9.16003906 5.61363281 9.16003906 5.61363281 9.9609375 6.3671875 C11 8 11 8 10.71624756 9.92350769 C9.53720114 13.34171247 6.89108857 15.59758104 4.390625 18.11328125 C3.82680115 18.6870903 3.26297729 19.26089935 2.68206787 19.85209656 C1.48896368 21.06036837 0.29177346 22.26461718 -0.90917969 23.46508789 C-2.74540688 25.30789043 -4.55631298 27.1733361 -6.3671875 29.04101562 C-7.52977527 30.21240299 -8.69379132 31.38237491 -9.859375 32.55078125 C-10.39914978 33.11211258 -10.93892456 33.67344391 -11.49505615 34.25178528 C-13.06152344 35.7902832 -13.06152344 35.7902832 -16 38 C-19.40488349 37.94573891 -20.51212812 37.44635087 -23.01953125 35.15234375 C-23.61121094 34.42144531 -24.20289063 33.69054687 -24.8125 32.9375 C-25.41707031 32.20402344 -26.02164063 31.47054687 -26.64453125 30.71484375 C-27.09183594 30.14894531 -27.53914063 29.58304688 -28 29 C-26.32487711 25.54505903 -24.33534272 23.3045045 -21.4375 20.875 C-16.72800372 16.82498224 -12.36553605 12.47721453 -8 8.0625 C-7.22527344 7.28326172 -6.45054688 6.50402344 -5.65234375 5.70117188 C-3.76589243 3.8030758 -1.88183755 1.90266851 0 0 Z " fill="#536E5F" transform="translate(74,45)"/>
<path d="M0 0 C2.64 0 5.28 0 8 0 C9.70565618 1.70565618 9.12752055 3.90733495 9.12939453 6.23828125 C9.13254669 7.35614014 9.13569885 8.47399902 9.13894653 9.62573242 C9.1369223 10.84236572 9.13489807 12.05899902 9.1328125 13.3125 C9.13376923 14.55169189 9.13472595 15.79088379 9.13571167 17.06762695 C9.13639374 19.69388281 9.13503538 22.32004633 9.13037109 24.94628906 C9.12467381 28.31928714 9.12795302 31.69220565 9.13394356 35.06520081 C9.1384177 38.27263677 9.13528882 41.480063 9.1328125 44.6875 C9.13483673 45.9041333 9.13686096 47.1207666 9.13894653 48.37426758 C9.13579437 49.49212646 9.13264221 50.60998535 9.12939453 51.76171875 C9.12859894 52.75131592 9.12780334 53.74091309 9.12698364 54.76049805 C9 57 9 57 8 58 C5.36 58 2.72 58 0 58 C0 38.86 0 19.72 0 0 Z " fill="#526E5F" transform="translate(401,51)"/>
</svg>
